0
SECTION
2
HEADER
9
$INSUNITS
70
4
0
ENDSEC
0
SECTION
2
TABLES
0
TABLE
2
LTYPE
0
LTYPE
72
65
70
64
2
CONTINUOUS
3
______
73
0
40
0
0
ENDTAB
0
TABLE
2
LAYER
0
ENDTAB
0
ENDSEC
0
SECTION
2
ENTITIES
0
LINE
8
front_outsideCutPath
10
0
20
55
11
0
21
46.4375
0
LINE
8
front_outsideCutPath
10
0
20
46.4375
11
3
21
46.4375
0
LINE
8
front_outsideCutPath
10
3
20
46.4375
11
3
21
34.8125
0
LINE
8
front_outsideCutPath
10
3
20
34.8125
11
0
21
34.8125
0
LINE
8
front_outsideCutPath
10
0
20
34.8125
11
0
21
23.1875
0
LINE
8
front_outsideCutPath
10
0
20
23.1875
11
3
21
23.1875
0
LINE
8
front_outsideCutPath
10
3
20
23.1875
11
3
21
11.5625
0
LINE
8
front_outsideCutPath
10
3
20
11.5625
11
0
21
11.5625
0
LINE
8
front_outsideCutPath
10
0
20
11.5625
11
0
21
3
0
LINE
8
front_outsideCutPath
10
0
20
3
11
16.0625
21
3
0
LINE
8
front_outsideCutPath
10
16.0625
20
3
11
16.0625
21
6
0
LINE
8
front_outsideCutPath
10
16.0625
20
6
11
27.6875
21
6
0
LINE
8
front_outsideCutPath
10
27.6875
20
6
11
27.6875
21
3
0
LINE
8
front_outsideCutPath
10
27.6875
20
3
11
39.3125
21
3
0
LINE
8
front_outsideCutPath
10
39.3125
20
3
11
39.3125
21
6
0
LINE
8
front_outsideCutPath
10
39.3125
20
6
11
50.9375
21
6
0
LINE
8
front_outsideCutPath
10
50.9375
20
6
11
50.9375
21
3
0
LINE
8
front_outsideCutPath
10
50.9375
20
3
11
62.5625
21
3
0
LINE
8
front_outsideCutPath
10
62.5625
20
3
11
62.5625
21
6
0
LINE
8
front_outsideCutPath
10
62.5625
20
6
11
74.1875
21
6
0
LINE
8
front_outsideCutPath
10
74.1875
20
6
11
74.1875
21
3
0
LINE
8
front_outsideCutPath
10
74.1875
20
3
11
85.8125
21
3
0
LINE
8
front_outsideCutPath
10
85.8125
20
3
11
85.8125
21
6
0
LINE
8
front_outsideCutPath
10
85.8125
20
6
11
97.4375
21
6
0
LINE
8
front_outsideCutPath
10
97.4375
20
6
11
97.4375
21
3
0
LINE
8
front_outsideCutPath
10
97.4375
20
3
11
109.0625
21
3
0
LINE
8
front_outsideCutPath
10
109.0625
20
3
11
109.0625
21
6
0
LINE
8
front_outsideCutPath
10
109.0625
20
6
11
120.6875
21
6
0
LINE
8
front_outsideCutPath
10
120.6875
20
6
11
120.6875
21
3
0
LINE
8
front_outsideCutPath
10
120.6875
20
3
11
132.3125
21
3
0
LINE
8
front_outsideCutPath
10
132.3125
20
3
11
132.3125
21
6
0
LINE
8
front_outsideCutPath
10
132.3125
20
6
11
143.9375
21
6
0
LINE
8
front_outsideCutPath
10
143.9375
20
6
11
143.9375
21
3
0
LINE
8
front_outsideCutPath
10
143.9375
20
3
11
155.5625
21
3
0
LINE
8
front_outsideCutPath
10
155.5625
20
3
11
160
21
3
0
LINE
8
front_outsideCutPath
10
160
20
3
11
160
21
11.5625
0
LINE
8
front_outsideCutPath
10
160
20
11.5625
11
157
21
11.5625
0
LINE
8
front_outsideCutPath
10
157
20
11.5625
11
157
21
23.1875
0
LINE
8
front_outsideCutPath
10
157
20
23.1875
11
160
21
23.1875
0
LINE
8
front_outsideCutPath
10
160
20
23.1875
11
160
21
34.8125
0
LINE
8
front_outsideCutPath
10
160
20
34.8125
11
157
21
34.8125
0
LINE
8
front_outsideCutPath
10
157
20
34.8125
11
157
21
46.4375
0
LINE
8
front_outsideCutPath
10
157
20
46.4375
11
160
21
46.4375
0
LINE
8
front_outsideCutPath
10
160
20
46.4375
11
160
21
55
0
LINE
8
front_outsideCutPath
10
160
20
55
11
0
21
55
0
LINE
8
front_labelLayer
10
71.3849609
20
30.6378055
11
71.3849609
21
29.9827274
0
LINE
8
front_labelLayer
10
71.3849609
20
29.9827274
11
69.968164
21
29.9827274
0
LINE
8
front_labelLayer
10
69.968164
20
29.9827274
11
69.968164
21
25.0721805
0
LINE
8
front_labelLayer
10
69.968164
20
25.0721805
11
69.1251953
21
25.0721805
0
LINE
8
front_labelLayer
10
69.1251953
20
25.0721805
11
69.1251953
21
29.9827274
0
LINE
8
front_labelLayer
10
69.1251953
20
29.9827274
11
68.1298828
21
29.9827274
0
LINE
8
front_labelLayer
10
68.1298828
20
29.9827274
11
68.1298828
21
30.3635867
0
LINE
8
front_labelLayer
10
68.1298828
20
30.3635867
11
69.1251953
21
30.6682742
0
LINE
8
front_labelLayer
10
69.1251953
20
30.6682742
11
69.1251953
21
30.9780399
0
LINE
8
front_labelLayer
10
71.9537109
20
32.851868
11
71.7353515
21
32.1764774
0
LINE
8
front_labelLayer
10
69.968164
20
30.9983524
11
69.968164
21
30.6378055
0
LINE
8
front_labelLayer
10
69.968164
20
30.6378055
11
71.3849609
21
30.6378055
0
ARC
8
front_labelLayer
10
72.5414581
20
31.017315
40
3.4164886
50
167.577616
51
180.6586726
0
ARC
8
front_labelLayer
10
70.934911
20
31.3918671
40
1.7670962
50
141.7433821
51
168.2321939
0
ARC
8
front_labelLayer
10
70.6733329
20
31.5283915
40
1.4781741
50
98.255155
51
139.6203367
0
ARC
8
front_labelLayer
10
70.9030022
20
30.4673979
40
2.5622469
50
89.6696908
51
99.9313991
0
ARC
8
front_labelLayer
10
70.9036443
20
30.3150938
40
2.7145453
50
81.5640941
51
89.7017751
0
ARC
8
front_labelLayer
10
70.712809
20
28.9837123
40
4.0595233
50
75.9739806
51
81.6564991
0
ARC
8
front_labelLayer
10
70.3852939
20
27.6252566
40
5.4568671
50
73.2963951
51
76.0946045
0
ARC
8
front_labelLayer
10
70.4677799
20
28.2842336
40
4.0934459
50
71.9613286
51
76.5918071
0
ARC
8
front_labelLayer
10
70.785355
20
29.6314049
40
2.7093554
50
76.518371
51
83.0216687
0
ARC
8
front_labelLayer
10
70.8959778
20
30.5210037
40
1.8129074
50
83.0761027
51
89.792634
0
ARC
8
front_labelLayer
10
70.8923389
20
31.1971098
40
1.1368352
50
89.485914
51
103.4197376
0
ARC
8
front_labelLayer
10
70.7898453
20
31.5908804
40
0.7300764
50
102.7677416
51
144.3380278
0
ARC
8
front_labelLayer
10
70.9963312
20
31.4580257
40
0.975374
50
145.0688735
51
162.1801183
0
ARC
8
front_labelLayer
10
71.7042779
20
31.2198366
40
1.7222773
50
161.8437265
51
171.784709
0
ARC
8
front_labelLayer
10
72.8590048
20
31.0464018
40
2.8899448
50
171.6528149
51
178.4383242
0
ARC
8
front_labelLayer
10
73.9485015
20
30.9999558
40
3.9803377
50
178.197404
51
180.0230806
0
LINE
8
front_labelLayer
10
75.6048828
20
30.6784305
11
75.4880859
21
29.8963992
0
LINE
8
front_labelLayer
10
73.2435547
20
28.058118
11
73.2435547
21
25.0721805
0
LINE
8
front_labelLayer
10
73.2435547
20
25.0721805
11
72.4005859
21
25.0721805
0
LINE
8
front_labelLayer
10
72.4005859
20
25.0721805
11
72.4005859
21
30.6378055
0
LINE
8
front_labelLayer
10
72.4005859
20
30.6378055
11
73.096289
21
30.6378055
0
LINE
8
front_labelLayer
10
73.096289
20
30.6378055
11
73.1927734
21
29.6069461
0
LINE
8
front_labelLayer
10
73.1927734
20
29.6069461
11
73.2333984
21
29.6069461
0
ARC
8
front_labelLayer
10
74.9482988
20
26.8694397
40
3.869938
50
84.9922621
51
90.128072
0
ARC
8
front_labelLayer
10
75.0412342
20
27.9106685
40
2.8245719
50
78.489244
51
85.0265728
0
ARC
8
front_labelLayer
10
74.6805055
20
26.2700008
40
3.7152323
50
77.4453875
51
81.6359931
0
ARC
8
front_labelLayer
10
74.8423765
20
27.3857278
40
2.5878272
50
81.5884779
51
87.1916167
0
ARC
8
front_labelLayer
10
74.8775414
20
27.9956263
40
1.9769452
50
87.343487
51
89.9661054
0
ARC
8
front_labelLayer
10
74.8693688
20
28.5119857
40
1.4606153
50
89.6335327
51
137.0880758
0
ARC
8
front_labelLayer
10
75.2279142
20
28.1088085
40
1.9983819
50
135.621002
51
138.8376358
0
ARC
8
front_labelLayer
10
75.1753051
20
28.1601561
40
1.9249827
50
138.9575827
51
174.5422297
0
ARC
8
front_labelLayer
10
75.8022746
20
28.0620583
40
2.5587229
50
173.6908259
51
180.0882331
0
ARC
8
front_labelLayer
10
75.7135917
20
28.2096165
40
2.846733
50
139.4139296
51
150.6032868
0
ARC
8
front_labelLayer
10
75.2031688
20
28.6469966
40
2.1745479
50
124.2321455
51
139.4161303
0
ARC
8
front_labelLayer
10
74.9302533
20
29.0589611
40
1.6804331
50
89.6796642
51
124.4405587
0
ARC
8
front_labelLayer
10
77.0956305
20
27.8307156
40
4.3542732
50
349.1761911
51
0.3862779
0
ARC
8
front_labelLayer
10
78.56161
20
27.5384693
40
2.8595177
50
330.2506969
51
349.4116546
0
ARC
8
front_labelLayer
10
79.01276
20
27.3039794
40
2.3515592
50
318.1439882
51
329.7566178
0
ARC
8
front_labelLayer
10
79.0941907
20
27.2387209
40
2.2473705
50
278.8959057
51
317.9979177
0
ARC
8
front_labelLayer
10
78.8843823
20
28.2439312
40
3.2733444
50
269.7503066
51
279.8033224
0
ARC
8
front_labelLayer
10
78.8503569
20
27.6775575
40
2.7070116
50
253.5437078
51
270.4182447
0
ARC
8
front_labelLayer
10
78.7602471
20
27.3289861
40
2.3472247
50
238.8115627
51
253.2428244
0
ARC
8
front_labelLayer
10
78.7311643
20
27.2704999
40
2.2821373
50
207.7947045
51
238.6757929
0
ARC
8
front_labelLayer
10
79.1486355
20
27.5261631
40
2.7708385
50
205.6560962
51
208.4460172
0
ARC
8
front_labelLayer
10
79.4699008
20
27.6600083
40
3.1184353
50
188.9102619
51
205.317136
0
ARC
8
front_labelLayer
10
80.5531314
20
27.8434719
40
4.2170313
50
179.77447
51
189.0932871
0
ARC
8
front_labelLayer
10
80.7129245
20
27.8897166
40
4.3768921
50
169.2442963
51
180.3880773
0
ARC
8
front_labelLayer
10
79.226562
20
28.183517
40
2.8618348
50
150.7111294
51
169.4695537
0
ARC
8
front_labelLayer
10
78.7520665
20
28.4271903
40
2.3288712
50
138.1759139
51
150.2287623
0
ARC
8
front_labelLayer
10
78.6731462
20
28.487753
40
2.2296868
50
99.1759289
51
137.9832761
0
ARC
8
front_labelLayer
10
78.8903872
20
27.4653866
40
3.274017
50
89.7326525
51
100.0759621
0
ARC
8
front_labelLayer
10
78.9338049
20
27.9069188
40
2.832589
50
73.5222751
51
90.5692251
0
ARC
8
front_labelLayer
10
79.0999199
20
28.5104575
40
2.2067523
50
41.144566
51
73.2133903
0
ARC
8
front_labelLayer
10
78.7828205
20
28.2379147
40
2.6248693
50
13.5014363
51
41.0703459
0
ARC
8
front_labelLayer
10
77.5577092
20
27.9173203
40
3.8910575
50
1.1277135
51
13.8799906
0
ARC
8
front_labelLayer
10
76.5027525
20
27.8607779
40
4.9470522
50
359.9918145
51
1.5419845
0
ARC
8
front_labelLayer
10
81.478289
20
27.8381641
40
4.2687749
50
179.705962
51
187.9160819
0
ARC
8
front_labelLayer
10
79.9126441
20
27.6132613
40
2.6870846
50
187.7639418
51
200.0976685
0
ARC
8
front_labelLayer
10
79.0501218
20
27.297232
40
1.7684884
50
200.0845634
51
216.9131588
0
ARC
8
front_labelLayer
10
78.735165
20
27.0723385
40
1.3816253
50
217.3009653
51
261.7098946
0
ARC
8
front_labelLayer
10
78.8813783
20
27.7700408
40
2.0935831
50
260.5032594
51
270.2477121
0
ARC
8
front_labelLayer
10
78.9092876
20
27.6343875
40
1.958001
50
269.4481641
51
284.725562
0
ARC
8
front_labelLayer
10
79.0642911
20
27.0595291
40
1.362629
50
284.5662238
51
322.6333857
0
ARC
8
front_labelLayer
10
78.701888
20
27.3213495
40
1.8095966
50
323.0089175
51
342.6390759
0
ARC
8
front_labelLayer
10
77.6653325
20
27.6601266
40
2.9000526
50
342.3615692
51
353.7537791
0
ARC
8
front_labelLayer
10
76.1360573
20
27.8444631
40
4.4403375
50
353.5362907
51
0.2013982
0
ARC
8
front_labelLayer
10
76.370381
20
27.8815398
40
4.206041
50
359.7075465
51
7.897284
0
ARC
8
front_labelLayer
10
77.9107349
20
28.1023639
40
2.6499645
50
7.7440124
51
20.0690133
0
ARC
8
front_labelLayer
10
78.7690932
20
28.417348
40
1.7356391
50
20.0257344
51
37.4350222
0
ARC
8
front_labelLayer
10
79.0538949
20
28.6194381
40
1.3867092
50
37.9577656
51
80.4006258
0
ARC
8
front_labelLayer
10
78.8920551
20
27.8973249
40
2.1260599
50
79.3453528
51
90.3175087
0
ARC
8
front_labelLayer
10
78.8620878
20
28.0172634
40
2.0061714
50
89.4806161
51
103.880498
0
ARC
8
front_labelLayer
10
78.693518
20
28.6591794
40
1.3425958
50
103.4685436
51
142.3118655
0
ARC
8
front_labelLayer
10
79.0212314
20
28.4287091
40
1.7429254
50
142.9025844
51
162.3749615
0
ARC
8
front_labelLayer
10
80.0538531
20
28.08459
40
2.8313103
50
162.065304
51
173.1674861
0
ARC
8
front_labelLayer
10
81.6640055
20
27.8792262
40
4.4544763
50
173.0086393
51
180.2463841
0
LINE
8
front_labelLayer
10
87.5791015
20
25.0721805
11
86.7361328
21
25.0721805
0
LINE
8
front_labelLayer
10
86.7361328
20
25.0721805
11
86.7361328
21
28.6725711
0
LINE
8
front_labelLayer
10
83.7705078
20
27.9921024
11
83.7705078
21
25.0721805
0
LINE
8
front_labelLayer
10
83.7705078
20
25.0721805
11
82.927539
21
25.0721805
0
LINE
8
front_labelLayer
10
82.927539
20
25.0721805
11
82.927539
21
30.6378055
0
LINE
8
front_labelLayer
10
82.927539
20
30.6378055
11
83.6130859
21
30.6378055
0
LINE
8
front_labelLayer
10
83.6130859
20
30.6378055
11
83.7501953
21
29.8760867
0
LINE
8
front_labelLayer
10
83.7501953
20
29.8760867
11
83.7908203
21
29.8760867
0
LINE
8
front_labelLayer
10
87.5791015
20
28.7030399
11
87.5791015
21
25.0721805
0
ARC
8
front_labelLayer
10
84.3533189
20
28.6862378
40
2.3828531
50
359.6713819
51
8.6877229
0
ARC
8
front_labelLayer
10
85.2364679
20
28.8262989
40
1.4886895
50
8.4931575
51
22.6580126
0
ARC
8
front_labelLayer
10
85.6851744
20
29.0127688
40
1.0027805
50
22.7024022
51
42.3419971
0
ARC
8
front_labelLayer
10
85.735608
20
29.0354553
40
0.9503783
50
43.3790782
51
71.5386107
0
ARC
8
front_labelLayer
10
85.5469994
20
28.5084315
40
1.5100535
50
71.0828349
51
84.3690869
0
ARC
8
front_labelLayer
10
85.4623391
20
27.7886125
40
2.2347475
50
84.019805
51
90.1511102
0
ARC
8
front_labelLayer
10
85.4383373
20
27.4721244
40
2.5512922
50
89.5933358
51
100.3717574
0
ARC
8
front_labelLayer
10
85.2580397
20
28.4180957
40
1.5883336
50
100.1176451
51
118.160254
0
ARC
8
front_labelLayer
10
85.0763472
20
28.7743811
40
1.1885001
50
118.5439655
51
139.1926699
0
ARC
8
front_labelLayer
10
85.2347726
20
28.6680767
40
1.3780791
50
140.151915
51
160.3146463
0
ARC
8
front_labelLayer
10
86.191449
20
28.309745
40
2.3995975
50
159.9534118
51
171.3801328
0
ARC
8
front_labelLayer
10
87.7542534
20
28.0585306
40
3.9824259
50
171.1766044
51
178.3217304
0
ARC
8
front_labelLayer
10
89.1708767
20
27.9943319
40
5.4003693
50
178.0810794
51
180.0236552
0
ARC
8
front_labelLayer
10
85.2328473
20
28.962803
40
1.7069062
50
116.9442959
51
147.6525582
0
ARC
8
front_labelLayer
10
85.4106189
20
28.6654466
40
2.0526737
50
115.8074206
51
117.6068119
0
ARC
8
front_labelLayer
10
85.5013416
20
28.453867
40
2.2826705
50
94.3226488
51
115.5454613
0
ARC
8
front_labelLayer
10
85.5559812
20
27.9791395
40
2.7602293
50
89.9579317
51
94.7108719
0
ARC
8
front_labelLayer
10
85.5785618
20
27.4112544
40
3.328177
50
80.5585346
51
90.3538472
0
ARC
8
front_labelLayer
10
85.7865502
20
28.6160039
40
2.1056424
50
65.1094473
51
80.763809
0
ARC
8
front_labelLayer
10
86.0296804
20
29.1545346
40
1.5148161
50
46.5584752
51
64.8782134
0
ARC
8
front_labelLayer
10
86.0491414
20
29.2106349
40
1.4609059
50
19.3848838
51
45.5997065
0
ARC
8
front_labelLayer
10
85.2039661
20
28.8935103
40
2.3634994
50
6.9633415
51
19.8363416
0
ARC
8
front_labelLayer
10
83.9004056
20
28.7182455
40
3.6787274
50
359.7631731
51
7.2115414
0
LINE
8
front_labelLayer
10
91.8701172
20
25.7678836
11
91.8701172
21
25.1229617
0
LINE
8
front_labelLayer
10
89.3716797
20
26.6717899
11
89.3716797
21
29.9827274
0
LINE
8
front_labelLayer
10
89.3716797
20
29.9827274
11
88.574414
21
29.9827274
0
LINE
8
front_labelLayer
10
88.574414
20
29.9827274
11
88.574414
21
30.3889774
0
LINE
8
front_labelLayer
10
88.574414
20
30.3889774
11
89.3716797
21
30.739368
0
LINE
8
front_labelLayer
10
89.3716797
20
30.739368
11
89.7271484
21
31.9276492
0
LINE
8
front_labelLayer
10
89.7271484
20
31.9276492
11
90.2146484
21
31.9276492
0
LINE
8
front_labelLayer
10
90.2146484
20
31.9276492
11
90.2146484
21
30.6378055
0
LINE
8
front_labelLayer
10
90.2146484
20
30.6378055
11
91.8294922
21
30.6378055
0
LINE
8
front_labelLayer
10
91.8294922
20
30.6378055
11
91.8294922
21
29.9827274
0
LINE
8
front_labelLayer
10
91.8294922
20
29.9827274
11
90.2146484
21
29.9827274
0
LINE
8
front_labelLayer
10
90.2146484
20
29.9827274
11
90.2146484
21
26.7073367
0
ARC
8
front_labelLayer
10
91.1141807
20
28.4347389
40
2.7684238
50
269.8803283
51
278.3028088
0
ARC
8
front_labelLayer
10
91.1413005
20
28.2144386
40
2.546521
50
278.4147859
51
279.0085394
0
ARC
8
front_labelLayer
10
90.829919
20
30.2036881
40
4.5599914
50
278.959042
51
280.5105307
0
ARC
8
front_labelLayer
10
91.1259056
20
28.6155495
40
2.9445073
50
280.4848834
51
282.6268291
0
ARC
8
front_labelLayer
10
91.3855438
20
27.4620388
40
1.7621384
50
282.5877746
51
285.5794498
0
ARC
8
front_labelLayer
10
91.5170556
20
26.9786305
40
1.2611743
50
285.7226109
51
286.2570254
0
ARC
8
front_labelLayer
10
91.5157083
20
25.872558
40
0.8291563
50
287.9888391
51
295.3047686
0
ARC
8
front_labelLayer
10
91.3157459
20
26.4775246
40
1.4663088
50
283.3068378
51
288.1199228
0
ARC
8
front_labelLayer
10
91.1044721
20
27.3587978
40
2.3725506
50
280.0069785
51
283.3735475
0
ARC
8
front_labelLayer
10
90.9631224
20
28.1259341
40
3.1525837
50
279.1860994
51
280.1141242
0
ARC
8
front_labelLayer
10
90.8763266
20
28.6196043
40
3.6537854
50
275.5261003
51
279.2938655
0
ARC
8
front_labelLayer
10
90.9741176
20
27.5982201
40
2.6277313
50
270.893301
51
275.5483843
0
ARC
8
front_labelLayer
10
90.9864046
20
27.130772
40
2.1601541
50
270.0031511
51
270.760738
0
ARC
8
front_labelLayer
10
90.9525077
20
27.1720694
40
2.2017142
50
253.784803
51
270.8852365
0
ARC
8
front_labelLayer
10
90.6916633
20
26.2824886
40
1.2746833
50
190.3817789
51
253.877227
0
ARC
8
front_labelLayer
10
92.0211823
20
26.6419658
40
2.6496702
50
179.3550795
51
192.8477416
0
ARC
8
front_labelLayer
10
91.9120841
20
26.6967214
40
1.6974689
50
179.6416921
51
189.7505697
0
ARC
8
front_labelLayer
10
91.3128454
20
26.5898418
40
1.0887923
50
189.5480206
51
205.7873256
0
ARC
8
front_labelLayer
10
91.0665716
20
26.4762767
40
0.8176539
50
206.1293727
51
221.408473
0
ARC
8
front_labelLayer
10
91.0389659
20
26.4553294
40
0.7830984
50
221.5949204
51
262.3504993
0
ARC
8
front_labelLayer
10
91.1046351
20
26.7930328
40
1.1267178
50
261.3266843
51
270.1913735
0
LINE
8
left_outsideCutPath
10
166
20
55
11
166
21
46.4375
0
LINE
8
left_outsideCutPath
10
166
20
46.4375
11
163
21
46.4375
0
LINE
8
left_outsideCutPath
10
163
20
46.4375
11
163
21
34.8125
0
LINE
8
left_outsideCutPath
10
163
20
34.8125
11
166
21
34.8125
0
LINE
8
left_outsideCutPath
10
166
20
34.8125
11
166
21
23.1875
0
LINE
8
left_outsideCutPath
10
166
20
23.1875
11
163
21
23.1875
0
LINE
8
left_outsideCutPath
10
163
20
23.1875
11
163
21
11.5625
0
LINE
8
left_outsideCutPath
10
163
20
11.5625
11
166
21
11.5625
0
LINE
8
left_outsideCutPath
10
166
20
11.5625
11
166
21
3
0
LINE
8
left_outsideCutPath
10
166
20
3
11
171.6875
21
3
0
LINE
8
left_outsideCutPath
10
171.6875
20
3
11
171.6875
21
6
0
LINE
8
left_outsideCutPath
10
171.6875
20
6
11
183.3125
21
6
0
LINE
8
left_outsideCutPath
10
183.3125
20
6
11
183.3125
21
3
0
LINE
8
left_outsideCutPath
10
183.3125
20
3
11
194.9375
21
3
0
LINE
8
left_outsideCutPath
10
194.9375
20
3
11
194.9375
21
6
0
LINE
8
left_outsideCutPath
10
194.9375
20
6
11
206.5625
21
6
0
LINE
8
left_outsideCutPath
10
206.5625
20
6
11
206.5625
21
3
0
LINE
8
left_outsideCutPath
10
206.5625
20
3
11
218.1875
21
3
0
LINE
8
left_outsideCutPath
10
218.1875
20
3
11
218.1875
21
6
0
LINE
8
left_outsideCutPath
10
218.1875
20
6
11
229.8125
21
6
0
LINE
8
left_outsideCutPath
10
229.8125
20
6
11
229.8125
21
3
0
LINE
8
left_outsideCutPath
10
229.8125
20
3
11
241.4375
21
3
0
LINE
8
left_outsideCutPath
10
241.4375
20
3
11
241.4375
21
6
0
LINE
8
left_outsideCutPath
10
241.4375
20
6
11
253.0625
21
6
0
LINE
8
left_outsideCutPath
10
253.0625
20
6
11
253.0625
21
3
0
LINE
8
left_outsideCutPath
10
253.0625
20
3
11
264.6875
21
3
0
LINE
8
left_outsideCutPath
10
264.6875
20
3
11
264.6875
21
6
0
LINE
8
left_outsideCutPath
10
264.6875
20
6
11
276.3125
21
6
0
LINE
8
left_outsideCutPath
10
276.3125
20
6
11
276.3125
21
3
0
LINE
8
left_outsideCutPath
10
276.3125
20
3
11
282
21
3
0
LINE
8
left_outsideCutPath
10
282
20
3
11
282
21
11.5625
0
LINE
8
left_outsideCutPath
10
282
20
11.5625
11
285
21
11.5625
0
LINE
8
left_outsideCutPath
10
285
20
11.5625
11
285
21
23.1875
0
LINE
8
left_outsideCutPath
10
285
20
23.1875
11
282
21
23.1875
0
LINE
8
left_outsideCutPath
10
282
20
23.1875
11
282
21
34.8125
0
LINE
8
left_outsideCutPath
10
282
20
34.8125
11
285
21
34.8125
0
LINE
8
left_outsideCutPath
10
285
20
34.8125
11
285
21
46.4375
0
LINE
8
left_outsideCutPath
10
285
20
46.4375
11
282
21
46.4375
0
LINE
8
left_outsideCutPath
10
282
20
46.4375
11
282
21
55
0
LINE
8
left_outsideCutPath
10
282
20
55
11
166
21
55
0
LINE
8
left_labelLayer
10
217.5685547
20
32.973743
11
217.5685547
21
25.0721805
0
LINE
8
left_labelLayer
10
217.5685547
20
25.0721805
11
216.7255859
21
25.0721805
0
LINE
8
left_labelLayer
10
216.7255859
20
25.0721805
11
216.7255859
21
32.973743
0
LINE
8
left_labelLayer
10
216.7255859
20
32.973743
11
217.5685547
21
32.973743
0
LINE
8
left_labelLayer
10
223.7537109
20
28.2358524
11
223.7537109
21
27.7026492
0
LINE
8
left_labelLayer
10
223.7537109
20
27.7026492
11
219.9197265
21
27.7026492
0
LINE
8
left_labelLayer
10
223.515039
20
26.0827274
11
223.515039
21
25.3311649
0
LINE
8
left_labelLayer
10
219.940039
20
28.3881961
11
222.8498047
21
28.3881961
0
ARC
8
left_labelLayer
10
221.6795095
20
28.2462413
40
3.2757406
50
256.0087955
51
270.4848028
0
ARC
8
left_labelLayer
10
221.4409706
20
27.3201833
40
2.3194962
50
223.5465673
51
256.1957001
0
ARC
8
left_labelLayer
10
221.5725618
20
27.4158259
40
2.4808597
50
194.0877257
51
223.0538069
0
ARC
8
left_labelLayer
10
222.7782919
20
27.7455489
40
3.7306764
50
181.3574721
51
194.4919972
0
ARC
8
left_labelLayer
10
223.8613131
20
27.8083414
40
4.8150242
50
179.9887135
51
181.7991558
0
ARC
8
left_labelLayer
10
223.4725892
20
27.8389833
40
4.4263997
50
168.953913
51
180.3843578
0
ARC
8
left_labelLayer
10
222.026956
20
28.1333396
40
2.951175
50
149.4070987
51
169.1853674
0
ARC
8
left_labelLayer
10
221.6241573
20
28.3461632
40
2.4962258
50
140.1055616
51
148.9067506
0
ARC
8
left_labelLayer
10
221.3767188
20
28.574294
40
2.1601285
50
92.4762709
51
140.5386358
0
ARC
8
left_labelLayer
10
221.4869825
20
27.7595056
40
2.979863
50
89.9637613
51
93.9176755
0
ARC
8
left_labelLayer
10
221.5132954
20
28.1712799
40
2.5682043
50
74.2125856
51
90.5449943
0
ARC
8
left_labelLayer
10
221.6741512
20
28.7639398
40
1.9541477
50
41.2064582
51
74.0232823
0
ARC
8
left_labelLayer
10
221.3695215
20
28.5003055
40
2.3570096
50
11.5994348
51
41.1495915
0
ARC
8
left_labelLayer
10
220.3228344
20
28.2589188
40
3.4309542
50
359.614795
51
12.033653
0
ARC
8
left_labelLayer
10
223.3024023
20
27.7702397
40
3.3833509
50
181.1446952
51
190.8007384
0
ARC
8
left_labelLayer
10
222.1088053
20
27.5348275
40
2.1667972
50
190.6005949
51
206.0275265
0
ARC
8
left_labelLayer
10
221.5807118
20
27.2851695
40
1.5827279
50
206.2950688
51
222.5557746
0
ARC
8
left_labelLayer
10
221.5339138
20
27.2606671
40
1.5317449
50
223.0645269
51
258.1401109
0
ARC
8
left_labelLayer
10
221.7202002
20
28.0277261
40
2.320846
50
257.5311966
51
270.4319126
0
ARC
8
left_labelLayer
10
221.7222781
20
30.1591036
40
4.4521842
50
270.1984068
51
292.2090399
0
ARC
8
left_labelLayer
10
221.5087085
20
30.7725539
40
5.1009641
50
291.8254402
51
293.161474
0
ARC
8
left_labelLayer
10
221.4982249
20
29.9725938
40
5.0606721
50
287.9023038
51
293.486123
0
ARC
8
left_labelLayer
10
221.8653363
20
28.8399255
40
3.8699974
50
281.9936011
51
287.8851263
0
ARC
8
left_labelLayer
10
221.9543089
20
28.5201494
40
3.5387728
50
275.905466
51
281.6603884
0
ARC
8
left_labelLayer
10
221.7762094
20
30.1825194
40
5.2106484
50
271.911941
51
275.9727322
0
ARC
8
left_labelLayer
10
221.7111972
20
31.8383536
40
6.8677366
50
269.9668737
51
271.9931294
0
ARC
8
left_labelLayer
10
221.4625354
20
28.371899
40
1.6616883
50
89.442252
51
106.2089733
0
ARC
8
left_labelLayer
10
221.3625658
20
28.7364018
40
1.2837819
50
106.4656891
51
137.9176488
0
ARC
8
left_labelLayer
10
221.6491829
20
28.4847046
40
1.6651993
50
138.0994953
51
160.5866088
0
ARC
8
left_labelLayer
10
222.3859315
20
28.2136694
40
2.4501707
50
160.3353695
51
172.5314942
0
ARC
8
left_labelLayer
10
223.1115592
20
28.0974144
40
3.1848225
50
172.1545809
51
174.761466
0
ARC
8
left_labelLayer
10
219.9773315
20
28.4045153
40
2.8725195
50
359.6744927
51
8.922487
0
ARC
8
left_labelLayer
10
221.0037439
20
28.5717559
40
1.832599
50
8.7342024
51
23.2772294
0
ARC
8
left_labelLayer
10
221.4910143
20
28.7762993
40
1.3041675
50
23.4821975
51
39.7071716
0
ARC
8
left_labelLayer
10
221.6107141
20
28.865873
40
1.1548795
50
40.0822958
51
80.6243205
0
ARC
8
left_labelLayer
10
221.4875088
20
28.3011006
40
1.7324304
50
79.6468508
51
90.2909696
0
LINE
8
left_labelLayer
10
227.699414
20
30.6378055
11
227.699414
21
29.9827274
0
LINE
8
left_labelLayer
10
227.699414
20
29.9827274
11
226.2826172
21
29.9827274
0
LINE
8
left_labelLayer
10
226.2826172
20
29.9827274
11
226.2826172
21
25.0721805
0
LINE
8
left_labelLayer
10
226.2826172
20
25.0721805
11
225.4396484
21
25.0721805
0
LINE
8
left_labelLayer
10
225.4396484
20
25.0721805
11
225.4396484
21
29.9827274
0
LINE
8
left_labelLayer
10
225.4396484
20
29.9827274
11
224.4443359
21
29.9827274
0
LINE
8
left_labelLayer
10
224.4443359
20
29.9827274
11
224.4443359
21
30.3635867
0
LINE
8
left_labelLayer
10
224.4443359
20
30.3635867
11
225.4396484
21
30.6682742
0
LINE
8
left_labelLayer
10
225.4396484
20
30.6682742
11
225.4396484
21
30.9780399
0
LINE
8
left_labelLayer
10
228.268164
20
32.851868
11
228.0498047
21
32.1764774
0
LINE
8
left_labelLayer
10
226.2826172
20
30.9983524
11
226.2826172
21
30.6378055
0
LINE
8
left_labelLayer
10
226.2826172
20
30.6378055
11
227.699414
21
30.6378055
0
ARC
8
left_labelLayer
10
228.8559112
20
31.017315
40
3.4164886
50
167.577616
51
180.6586726
0
ARC
8
left_labelLayer
10
227.2493641
20
31.3918671
40
1.7670962
50
141.7433821
51
168.2321939
0
ARC
8
left_labelLayer
10
226.987786
20
31.5283915
40
1.4781741
50
98.255155
51
139.6203367
0
ARC
8
left_labelLayer
10
227.2174553
20
30.4673979
40
2.5622469
50
89.6696908
51
99.9313991
0
ARC
8
left_labelLayer
10
227.2180974
20
30.3150938
40
2.7145453
50
81.5640941
51
89.7017751
0
ARC
8
left_labelLayer
10
227.0272621
20
28.9837123
40
4.0595233
50
75.9739806
51
81.6564991
0
ARC
8
left_labelLayer
10
226.699747
20
27.6252566
40
5.4568671
50
73.2963951
51
76.0946045
0
ARC
8
left_labelLayer
10
226.782233
20
28.2842336
40
4.0934459
50
71.9613286
51
76.5918071
0
ARC
8
left_labelLayer
10
227.0998082
20
29.6314049
40
2.7093554
50
76.518371
51
83.0216687
0
ARC
8
left_labelLayer
10
227.2104309
20
30.5210037
40
1.8129074
50
83.0761027
51
89.792634
0
ARC
8
left_labelLayer
10
227.2067921
20
31.1971098
40
1.1368352
50
89.485914
51
103.4197376
0
ARC
8
left_labelLayer
10
227.1042984
20
31.5908804
40
0.7300764
50
102.7677416
51
144.3380278
0
ARC
8
left_labelLayer
10
227.3107843
20
31.4580257
40
0.975374
50
145.0688735
51
162.1801183
0
ARC
8
left_labelLayer
10
228.0187311
20
31.2198366
40
1.7222773
50
161.8437265
51
171.784709
0
ARC
8
left_labelLayer
10
229.173458
20
31.0464018
40
2.8899448
50
171.6528149
51
178.4383242
0
ARC
8
left_labelLayer
10
230.2629546
20
30.9999558
40
3.9803377
50
178.197404
51
180.0230806
0
LINE
8
left_labelLayer
10
231.274414
20
25.7678836
11
231.274414
21
25.1229617
0
LINE
8
left_labelLayer
10
228.7759765
20
26.6717899
11
228.7759765
21
29.9827274
0
LINE
8
left_labelLayer
10
228.7759765
20
29.9827274
11
227.9787109
21
29.9827274
0
LINE
8
left_labelLayer
10
227.9787109
20
29.9827274
11
227.9787109
21
30.3889774
0
LINE
8
left_labelLayer
10
227.9787109
20
30.3889774
11
228.7759765
21
30.739368
0
LINE
8
left_labelLayer
10
228.7759765
20
30.739368
11
229.1314453
21
31.9276492
0
LINE
8
left_labelLayer
10
229.1314453
20
31.9276492
11
229.6189453
21
31.9276492
0
LINE
8
left_labelLayer
10
229.6189453
20
31.9276492
11
229.6189453
21
30.6378055
0
LINE
8
left_labelLayer
10
229.6189453
20
30.6378055
11
231.233789
21
30.6378055
0
LINE
8
left_labelLayer
10
231.233789
20
30.6378055
11
231.233789
21
29.9827274
0
LINE
8
left_labelLayer
10
231.233789
20
29.9827274
11
229.6189453
21
29.9827274
0
LINE
8
left_labelLayer
10
229.6189453
20
29.9827274
11
229.6189453
21
26.7073367
0
ARC
8
left_labelLayer
10
230.5184776
20
28.4347389
40
2.7684238
50
269.8803283
51
278.3028088
0
ARC
8
left_labelLayer
10
230.5455974
20
28.2144386
40
2.546521
50
278.4147859
51
279.0085394
0
ARC
8
left_labelLayer
10
230.2342159
20
30.2036881
40
4.5599914
50
278.959042
51
280.5105307
0
ARC
8
left_labelLayer
10
230.5302024
20
28.6155495
40
2.9445073
50
280.4848834
51
282.6268291
0
ARC
8
left_labelLayer
10
230.7898407
20
27.4620388
40
1.7621384
50
282.5877746
51
285.5794498
0
ARC
8
left_labelLayer
10
230.9213524
20
26.9786305
40
1.2611743
50
285.7226109
51
286.2570254
0
ARC
8
left_labelLayer
10
230.9200052
20
25.872558
40
0.8291563
50
287.9888391
51
295.3047686
0
ARC
8
left_labelLayer
10
230.7200428
20
26.4775246
40
1.4663088
50
283.3068378
51
288.1199228
0
ARC
8
left_labelLayer
10
230.508769
20
27.3587978
40
2.3725506
50
280.0069785
51
283.3735475
0
ARC
8
left_labelLayer
10
230.3674193
20
28.1259341
40
3.1525837
50
279.1860994
51
280.1141242
0
ARC
8
left_labelLayer
10
230.2806235
20
28.6196043
40
3.6537854
50
275.5261003
51
279.2938655
0
ARC
8
left_labelLayer
10
230.3784144
20
27.5982201
40
2.6277313
50
270.893301
51
275.5483843
0
ARC
8
left_labelLayer
10
230.3907015
20
27.130772
40
2.1601541
50
270.0031511
51
270.760738
0
ARC
8
left_labelLayer
10
230.3568045
20
27.1720694
40
2.2017142
50
253.784803
51
270.8852365
0
ARC
8
left_labelLayer
10
230.0959602
20
26.2824886
40
1.2746833
50
190.3817789
51
253.877227
0
ARC
8
left_labelLayer
10
231.4254791
20
26.6419658
40
2.6496702
50
179.3550795
51
192.8477416
0
ARC
8
left_labelLayer
10
231.316381
20
26.6967214
40
1.6974689
50
179.6416921
51
189.7505697
0
ARC
8
left_labelLayer
10
230.7171423
20
26.5898418
40
1.0887923
50
189.5480206
51
205.7873256
0
ARC
8
left_labelLayer
10
230.4708685
20
26.4762767
40
0.8176539
50
206.1293727
51
221.408473
0
ARC
8
left_labelLayer
10
230.4432628
20
26.4553294
40
0.7830984
50
221.5949204
51
262.3504993
0
ARC
8
left_labelLayer
10
230.508932
20
26.7930328
40
1.1267178
50
261.3266843
51
270.1913735
0
LINE
8
back_outsideCutPath
10
0
20
110
11
0
21
101.4375
0
LINE
8
back_outsideCutPath
10
0
20
101.4375
11
3
21
101.4375
0
LINE
8
back_outsideCutPath
10
3
20
101.4375
11
3
21
89.8125
0
LINE
8
back_outsideCutPath
10
3
20
89.8125
11
0
21
89.8125
0
LINE
8
back_outsideCutPath
10
0
20
89.8125
11
0
21
78.1875
0
LINE
8
back_outsideCutPath
10
0
20
78.1875
11
3
21
78.1875
0
LINE
8
back_outsideCutPath
10
3
20
78.1875
11
3
21
66.5625
0
LINE
8
back_outsideCutPath
10
3
20
66.5625
11
0
21
66.5625
0
LINE
8
back_outsideCutPath
10
0
20
66.5625
11
0
21
58
0
LINE
8
back_outsideCutPath
10
0
20
58
11
16.0625
21
58
0
LINE
8
back_outsideCutPath
10
16.0625
20
58
11
16.0625
21
61
0
LINE
8
back_outsideCutPath
10
16.0625
20
61
11
27.6875
21
61
0
LINE
8
back_outsideCutPath
10
27.6875
20
61
11
27.6875
21
58
0
LINE
8
back_outsideCutPath
10
27.6875
20
58
11
39.3125
21
58
0
LINE
8
back_outsideCutPath
10
39.3125
20
58
11
39.3125
21
61
0
LINE
8
back_outsideCutPath
10
39.3125
20
61
11
50.9375
21
61
0
LINE
8
back_outsideCutPath
10
50.9375
20
61
11
50.9375
21
58
0
LINE
8
back_outsideCutPath
10
50.9375
20
58
11
62.5625
21
58
0
LINE
8
back_outsideCutPath
10
62.5625
20
58
11
62.5625
21
61
0
LINE
8
back_outsideCutPath
10
62.5625
20
61
11
74.1875
21
61
0
LINE
8
back_outsideCutPath
10
74.1875
20
61
11
74.1875
21
58
0
LINE
8
back_outsideCutPath
10
74.1875
20
58
11
85.8125
21
58
0
LINE
8
back_outsideCutPath
10
85.8125
20
58
11
85.8125
21
61
0
LINE
8
back_outsideCutPath
10
85.8125
20
61
11
97.4375
21
61
0
LINE
8
back_outsideCutPath
10
97.4375
20
61
11
97.4375
21
58
0
LINE
8
back_outsideCutPath
10
97.4375
20
58
11
109.0625
21
58
0
LINE
8
back_outsideCutPath
10
109.0625
20
58
11
109.0625
21
61
0
LINE
8
back_outsideCutPath
10
109.0625
20
61
11
120.6875
21
61
0
LINE
8
back_outsideCutPath
10
120.6875
20
61
11
120.6875
21
58
0
LINE
8
back_outsideCutPath
10
120.6875
20
58
11
132.3125
21
58
0
LINE
8
back_outsideCutPath
10
132.3125
20
58
11
132.3125
21
61
0
LINE
8
back_outsideCutPath
10
132.3125
20
61
11
143.9375
21
61
0
LINE
8
back_outsideCutPath
10
143.9375
20
61
11
143.9375
21
58
0
LINE
8
back_outsideCutPath
10
143.9375
20
58
11
155.5625
21
58
0
LINE
8
back_outsideCutPath
10
155.5625
20
58
11
160
21
58
0
LINE
8
back_outsideCutPath
10
160
20
58
11
160
21
66.5625
0
LINE
8
back_outsideCutPath
10
160
20
66.5625
11
157
21
66.5625
0
LINE
8
back_outsideCutPath
10
157
20
66.5625
11
157
21
78.1875
0
LINE
8
back_outsideCutPath
10
157
20
78.1875
11
160
21
78.1875
0
LINE
8
back_outsideCutPath
10
160
20
78.1875
11
160
21
89.8125
0
LINE
8
back_outsideCutPath
10
160
20
89.8125
11
157
21
89.8125
0
LINE
8
back_outsideCutPath
10
157
20
89.8125
11
157
21
101.4375
0
LINE
8
back_outsideCutPath
10
157
20
101.4375
11
160
21
101.4375
0
LINE
8
back_outsideCutPath
10
160
20
101.4375
11
160
21
110
0
LINE
8
back_outsideCutPath
10
160
20
110
11
0
21
110
0
LINE
8
back_labelLayer
10
70.0621094
20
80.816073
11
70.0011719
21
80.816073
0
LINE
8
back_labelLayer
10
70.0011719
20
80.816073
11
69.8234375
21
80.1000574
0
LINE
8
back_labelLayer
10
69.8234375
20
80.1000574
11
69.2191406
21
80.1000574
0
LINE
8
back_labelLayer
10
69.2191406
20
80.1000574
11
69.2191406
21
88.0016199
0
LINE
8
back_labelLayer
10
69.2191406
20
88.0016199
11
70.0621094
21
88.0016199
0
LINE
8
back_labelLayer
10
70.0621094
20
88.0016199
11
70.0621094
21
86.0820886
0
LINE
8
back_labelLayer
10
70.0214844
20
84.9242761
11
70.0621094
21
84.9242761
0
ARC
8
back_labelLayer
10
71.8342722
20
83.1808097
40
2.576403
50
74.2393169
51
90.5623761
0
ARC
8
back_labelLayer
10
72.0046319
20
83.8057813
40
1.9286632
50
38.5631467
51
74.0670198
0
ARC
8
back_labelLayer
10
71.56622
20
83.4648912
40
2.483979
50
16.4709153
51
38.4075314
0
ARC
8
back_labelLayer
10
70.3032077
20
83.0688477
40
3.8075136
50
5.1338488
51
16.7973299
0
ARC
8
back_labelLayer
10
68.7088213
20
82.8994778
40
5.4107222
50
359.8779074
51
5.4093882
0
ARC
8
back_labelLayer
10
69.1770978
20
82.8587872
40
4.9425194
50
350.6562894
51
0.3380458
0
ARC
8
back_labelLayer
10
70.9001509
20
82.565714
40
3.194759
50
335.8305665
51
350.8255127
0
ARC
8
back_labelLayer
10
71.6580778
20
82.2385807
40
2.3693624
50
321.3161238
51
335.5436105
0
ARC
8
back_labelLayer
10
71.9478388
20
82.0024685
40
1.9956003
50
274.0640121
51
321.4080945
0
ARC
8
back_labelLayer
10
71.8128479
20
82.8575716
40
2.8590792
50
269.9225755
51
275.548127
0
ARC
8
back_labelLayer
10
71.7947682
20
82.5553593
40
2.5569039
50
255.775538
51
270.3185618
0
ARC
8
back_labelLayer
10
71.7218048
20
82.2311868
40
2.2247596
50
245.9801898
51
255.5455638
0
ARC
8
back_labelLayer
10
71.580472
20
81.9025136
40
1.8670239
50
215.5850233
51
245.8361658
0
ARC
8
back_labelLayer
10
52.4872145
20
86.0672249
40
17.5749011
50
358.1123028
51
0.0484571
0
ARC
8
back_labelLayer
10
57.3785414
20
85.9030002
40
12.6808195
50
355.7238428
51
358.1259142
0
ARC
8
back_labelLayer
10
59.4951969
20
85.7579081
40
10.5592458
50
355.4718972
51
355.6525565
0
ARC
8
back_labelLayer
10
71.6342095
20
83.8280082
40
1.9165861
50
95.1835173
51
145.1108947
0
ARC
8
back_labelLayer
10
71.8026683
20
82.8780554
40
2.87904
50
89.8743036
51
96.8145321
0
ARC
8
back_labelLayer
10
71.6694604
20
82.6824959
40
2.368799
50
89.5731071
51
100.732464
0
ARC
8
back_labelLayer
10
71.4941029
20
83.5684528
40
1.4657024
50
100.4469367
51
119.6700743
0
ARC
8
back_labelLayer
10
71.3314912
20
83.8724731
40
1.1210863
50
120.1402579
51
142.4249224
0
ARC
8
back_labelLayer
10
71.6005184
20
83.6945026
40
1.4430149
50
143.3382481
51
161.2560025
0
ARC
8
back_labelLayer
10
72.7255248
20
83.2950858
40
2.6367571
50
160.8926065
51
171.2334157
0
ARC
8
back_labelLayer
10
74.6035575
20
82.9921124
40
4.5390446
50
171.0667444
51
177.8457223
0
ARC
8
back_labelLayer
10
76.5567512
20
82.8927741
40
6.4946434
50
177.6177007
51
180.0425758
0
ARC
8
back_labelLayer
10
75.6356968
20
82.8661839
40
5.5736299
50
179.7762686
51
185.7075379
0
ARC
8
back_labelLayer
10
73.4382094
20
82.639762
40
3.3645256
50
185.5924572
51
194.2050692
0
ARC
8
back_labelLayer
10
72.0305246
20
82.2744178
40
1.9102496
50
193.9430098
51
208.0218617
0
ARC
8
back_labelLayer
10
71.4609721
20
81.9846701
40
1.2713954
50
208.5536593
51
217.5605724
0
ARC
8
back_labelLayer
10
71.4145734
20
81.9653727
40
1.2229201
50
218.1690639
51
253.8047052
0
ARC
8
back_labelLayer
10
71.6413997
20
82.6646981
40
1.957891
50
253.1382106
51
266.8483283
0
ARC
8
back_labelLayer
10
71.7050098
20
83.4149352
40
2.710582
50
266.3776617
51
270.0509864
0
ARC
8
back_labelLayer
10
71.7254035
20
82.3847083
40
1.6804502
50
269.3868944
51
285.8630663
0
ARC
8
back_labelLayer
10
71.850251
20
81.9334939
40
1.2122978
50
286.016272
51
326.8497427
0
ARC
8
back_labelLayer
10
71.2476791
20
82.3326766
40
1.935088
50
326.7104878
51
343.6662045
0
ARC
8
back_labelLayer
10
70.1196975
20
82.6773532
40
3.1145077
50
343.4171191
51
353.6369255
0
ARC
8
back_labelLayer
10
68.4160117
20
82.8795103
40
4.8301179
50
353.4934538
51
0.2205659
0
ARC
8
back_labelLayer
10
68.2658407
20
82.918265
40
4.9802938
50
359.7680596
51
6.309554
0
ARC
8
back_labelLayer
10
70.1417934
20
83.1335443
40
3.0920552
50
6.1648733
51
16.0396558
0
ARC
8
back_labelLayer
10
71.3502781
20
83.4896859
40
1.8322323
50
15.7779231
51
32.0151452
0
ARC
8
back_labelLayer
10
71.7272973
20
83.7056099
40
1.3981848
50
32.7032174
51
35.5244755
0
ARC
8
back_labelLayer
10
71.8649502
20
83.8034537
40
1.2293015
50
35.540853
51
79.8011122
0
ARC
8
back_labelLayer
10
71.699867
20
83.1016477
40
1.9496233
50
78.6781494
51
90.3749255
0
LINE
8
back_labelLayer
10
79.6394531
20
80.1000574
11
79.0148438
21
80.1000574
0
LINE
8
back_labelLayer
10
79.0148438
20
80.1000574
11
78.8472656
21
80.8922449
0
LINE
8
back_labelLayer
10
78.8472656
20
80.8922449
11
78.8066406
21
80.8922449
0
LINE
8
back_labelLayer
10
77.8722656
20
83.4059167
11
78.8167969
21
83.4363855
0
LINE
8
back_labelLayer
10
78.8167969
20
83.4363855
11
78.8167969
21
83.781698
0
LINE
8
back_labelLayer
10
76.059375
20
84.634823
11
75.8003906
21
85.2797449
0
LINE
8
back_labelLayer
10
79.6394531
20
83.8984949
11
79.6394531
21
80.1000574
0
LINE
8
back_labelLayer
10
78.7964844
20
82.3344324
11
78.7964844
21
82.8371667
0
LINE
8
back_labelLayer
10
78.7964844
20
82.8371667
11
77.9535156
21
82.8016199
0
ARC
8
back_labelLayer
10
76.0639466
20
83.0577367
40
3.4945279
50
314.7445061
51
321.7071723
0
ARC
8
back_labelLayer
10
76.9224984
20
82.1853838
40
2.2705663
50
304.8485391
51
314.8530377
0
ARC
8
back_labelLayer
10
77.3349216
20
81.5983435
40
1.5531434
50
294.3933233
51
304.7370806
0
ARC
8
back_labelLayer
10
77.1940293
20
81.9634114
40
1.9439403
50
281.2979297
51
293.731401
0
ARC
8
back_labelLayer
10
77.0077558
20
82.8661981
40
2.8657314
50
272.9335577
51
281.4138557
0
ARC
8
back_labelLayer
10
76.9460202
20
83.7920657
40
3.7935721
50
269.9539135
51
273.1490964
0
ARC
8
back_labelLayer
10
76.9246944
20
82.5853876
40
2.5869573
50
258.6719711
51
270.4047434
0
ARC
8
back_labelLayer
10
76.7449996
20
81.7258028
40
1.7088374
50
238.327286
51
258.9183922
0
ARC
8
back_labelLayer
10
76.621181
20
81.4999068
40
1.4516335
50
227.7690303
51
237.8049679
0
ARC
8
back_labelLayer
10
76.5824372
20
81.4458211
40
1.3855668
50
192.0827787
51
227.4520806
0
ARC
8
back_labelLayer
10
77.2967808
20
81.6219125
40
2.1210661
50
179.5457292
51
192.6949146
0
ARC
8
back_labelLayer
10
76.6331611
20
81.6987111
40
1.4586136
50
115.490467
51
182.3568105
0
ARC
8
back_labelLayer
10
77.3636476
20
80.358851
40
2.9835684
50
101.3567931
51
117.079884
0
ARC
8
back_labelLayer
10
77.9503027
20
77.6173554
40
5.7870161
50
92.4696348
51
101.7064743
0
ARC
8
back_labelLayer
10
78.1188904
20
75.1759547
40
8.2336566
50
91.7164513
51
92.9096484
0
ARC
8
back_labelLayer
10
76.3956067
20
83.7946559
40
2.4212248
50
359.6933627
51
8.0035507
0
ARC
8
back_labelLayer
10
77.3115212
20
83.9280849
40
1.495661
50
7.8272403
51
20.6041693
0
ARC
8
back_labelLayer
10
77.8298072
20
84.1263551
40
0.9407599
50
20.4094145
51
41.4479257
0
ARC
8
back_labelLayer
10
77.9063865
20
84.1684483
40
0.8557102
50
42.729556
51
71.0380454
0
ARC
8
back_labelLayer
10
77.726095
20
83.6782311
40
1.3779552
50
70.5716513
51
83.9928154
0
ARC
8
back_labelLayer
10
77.6399681
20
82.9786239
40
2.0827713
50
83.6506548
51
90.1753535
0
ARC
8
back_labelLayer
10
77.6550752
20
82.3169475
40
2.7445221
50
90.44846
51
103.766551
0
ARC
8
back_labelLayer
10
77.9778176
20
80.9559299
40
4.1432571
50
103.6226578
51
112.4319999
0
ARC
8
back_labelLayer
10
78.5310102
20
79.5591506
40
5.6454789
50
112.2121906
51
115.9640995
0
ARC
8
back_labelLayer
10
77.6451046
20
81.8587426
40
3.8866728
50
106.3568767
51
118.3349674
0
ARC
8
back_labelLayer
10
77.8106532
20
81.3473719
40
4.423993
50
104.5162679
51
106.5490252
0
ARC
8
back_labelLayer
10
77.6892421
20
81.8532088
40
3.9038827
50
90.0714319
51
104.652103
0
ARC
8
back_labelLayer
10
77.7045626
20
82.1968895
40
3.5602563
50
81.5680039
51
90.3248833
0
ARC
8
back_labelLayer
10
77.9104119
20
83.5379512
40
2.2035169
50
68.2273362
51
81.7494221
0
ARC
8
back_labelLayer
10
78.1971245
20
84.2513153
40
1.4346944
50
47.8683131
51
68.2934247
0
ARC
8
back_labelLayer
10
78.2436586
20
84.3442285
40
1.3348626
50
19.2330936
51
46.6741357
0
ARC
8
back_labelLayer
10
77.4684813
20
84.0558598
40
2.1618326
50
6.3379118
51
19.6815619
0
ARC
8
back_labelLayer
10
76.3225986
20
83.9099195
40
3.3168743
50
359.8026508
51
6.6583824
0
ARC
8
back_labelLayer
10
77.1275916
20
83.0150709
40
2.3209355
50
269.5792217
51
282.04139
0
ARC
8
back_labelLayer
10
77.2968885
20
82.2641469
40
1.5512414
50
281.7120933
51
306.4593911
0
ARC
8
back_labelLayer
10
77.3719537
20
82.1406944
40
1.4074034
50
306.9881722
51
313.8559722
0
ARC
8
back_labelLayer
10
77.3630282
20
82.1381341
40
1.4117652
50
314.1891691
51
347.4270068
0
ARC
8
back_labelLayer
10
76.6558353
20
82.3153533
40
2.1406614
50
346.9177756
51
0.2824724
0
ARC
8
back_labelLayer
10
76.1275046
20
82.3344272
40
2.6689798
50
359.8170929
51
0.0001114
0
ARC
8
back_labelLayer
10
78.1540283
20
76.615334
40
6.1895345
50
91.8564464
51
96.4478389
0
ARC
8
back_labelLayer
10
77.8749062
20
79.0306646
40
3.758142
50
96.3545625
51
102.9952869
0
ARC
8
back_labelLayer
10
77.4960011
20
80.6405293
40
2.1043157
50
102.7995458
51
113.2432793
0
ARC
8
back_labelLayer
10
77.1836415
20
81.3875762
40
1.294656
50
113.5886482
51
121.6805225
0
ARC
8
back_labelLayer
10
76.9666279
20
81.7180818
40
0.899496
50
120.9734192
51
172.4179715
0
ARC
8
back_labelLayer
10
77.3908018
20
81.633357
40
1.3314352
50
171.2122597
51
180.2058715
0
ARC
8
back_labelLayer
10
77.2640413
20
81.61862
40
1.2047075
50
179.5266314
51
192.7786761
0
ARC
8
back_labelLayer
10
76.8565058
20
81.5198331
40
0.78544
50
192.3264608
51
222.0579555
0
ARC
8
back_labelLayer
10
76.8262199
20
81.5017339
40
0.7508606
50
222.5806532
51
229.2544791
0
ARC
8
back_labelLayer
10
76.9286256
20
81.6335861
40
0.9176334
50
229.7837058
51
254.2723859
0
ARC
8
back_labelLayer
10
77.0650524
20
82.088219
40
1.3922491
50
253.9396851
51
266.4533473
0
ARC
8
back_labelLayer
10
77.1085939
20
82.5901093
40
1.8959123
50
266.0782887
51
270.0590189
0
LINE
8
back_labelLayer
10
85.0882813
20
85.4777917
11
84.8292969
21
84.7617761
0
LINE
8
back_labelLayer
10
85.0070313
20
81.0344324
11
85.0070313
21
80.287948
0
ARC
8
back_labelLayer
10
83.5735041
20
83.1488928
40
3.1505127
50
256.4243625
51
270.4889685
0
ARC
8
back_labelLayer
10
83.3217479
20
82.1663125
40
2.1363369
50
221.797644
51
256.8020522
0
ARC
8
back_labelLayer
10
83.5655429
20
82.3464429
40
2.4383071
50
196.0166586
51
221.1349334
0
ARC
8
back_labelLayer
10
84.7908333
20
82.7209562
40
3.7194324
50
183.591353
51
196.3539713
0
ARC
8
back_labelLayer
10
86.1634639
20
82.8418804
40
5.0970604
50
179.9388206
51
183.9814773
0
ARC
8
back_labelLayer
10
85.7174753
20
82.8772687
40
4.6511655
50
169.8978289
51
180.368891
0
ARC
8
back_labelLayer
10
84.0983008
20
83.1767935
40
3.0045757
50
153.0875139
51
170.1051414
0
ARC
8
back_labelLayer
10
83.4839513
20
83.4703456
40
2.3239479
50
138.6549956
51
152.6853401
0
ARC
8
back_labelLayer
10
83.3692879
20
83.5539057
40
2.1827047
50
101.4912804
51
138.3133942
0
ARC
8
back_labelLayer
10
83.6325237
20
82.4583533
40
3.3089766
50
89.58917
51
102.1787931
0
ARC
8
back_labelLayer
10
83.6527668
20
81.9631644
40
3.804082
50
77.7702563
51
89.9475377
0
ARC
8
back_labelLayer
10
83.5807956
20
81.5660763
40
4.2074269
50
74.6796268
51
77.9578845
0
ARC
8
back_labelLayer
10
83.9696896
20
82.9749553
40
2.7458641
50
70.094566
51
74.7385873
0
ARC
8
back_labelLayer
10
84.3396446
20
83.9888164
40
1.6666193
50
63.5034304
51
70.1861617
0
ARC
8
back_labelLayer
10
84.5263085
20
84.3783648
40
1.2347279
50
62.9261243
51
63.1907686
0
ARC
8
back_labelLayer
10
83.4445243
20
81.2767859
40
3.7500336
50
68.3294348
51
74.8831644
0
ARC
8
back_labelLayer
10
83.2466823
20
80.5752833
40
4.4788636
50
74.7801562
51
77.4497312
0
ARC
8
back_labelLayer
10
83.4544003
20
81.5502809
40
3.4820383
50
77.2998544
51
81.7345656
0
ARC
8
back_labelLayer
10
83.6058874
20
82.6058599
40
2.4156471
50
81.6910271
51
87.5079067
0
ARC
8
back_labelLayer
10
83.6351118
20
83.1519864
40
1.8687744
50
87.6750105
51
89.974684
0
ARC
8
back_labelLayer
10
83.5941486
20
83.1514018
40
1.8698257
50
88.719386
51
112.5667864
0
ARC
8
back_labelLayer
10
83.4612851
20
83.5906817
40
1.4139373
50
114.4265752
51
161.6632838
0
ARC
8
back_labelLayer
10
84.7811574
20
83.0740696
40
2.8303163
50
160.1418434
51
175.1368112
0
ARC
8
back_labelLayer
10
86.5977411
20
82.870078
40
4.6579144
50
174.53095
51
180.154974
0
ARC
8
back_labelLayer
10
86.0222492
20
82.836398
40
4.0824599
50
179.7041309
51
188.0743814
0
ARC
8
back_labelLayer
10
84.5517921
20
82.6212521
40
2.5963692
50
187.9314994
51
200.3885643
0
ARC
8
back_labelLayer
10
83.7567117
20
82.3267139
40
1.7484869
50
200.418325
51
216.639279
0
ARC
8
back_labelLayer
10
83.4233941
20
82.0884331
40
1.3388521
50
216.9695335
51
261.3103086
0
ARC
8
back_labelLayer
10
83.5704942
20
82.774228
40
2.0394276
50
260.1359054
51
270.269253
0
ARC
8
back_labelLayer
10
83.5637059
20
84.2635503
40
3.5287653
50
270.2658332
51
286.2891492
0
ARC
8
back_labelLayer
10
83.3491843
20
85.0635782
40
4.3568881
50
286.046054
51
292.3653839
0
ARC
8
back_labelLayer
10
83.9204867
20
82.4254395
40
2.3978009
50
282.0344347
51
296.9454578
0
ARC
8
back_labelLayer
10
83.6738865
20
83.5367761
40
3.5361417
50
272.5980702
51
282.1878336
0
ARC
8
back_labelLayer
10
83.6031734
20
84.6213526
40
4.6228585
50
269.9655097
51
272.8642606
0
LINE
8
back_labelLayer
10
87.1195313
20
82.9488855
11
87.1601563
21
82.9488855
0
LINE
8
back_labelLayer
10
87.8253906
20
83.7613855
11
89.6230469
21
85.6656824
0
LINE
8
back_labelLayer
10
89.6230469
20
85.6656824
11
90.6234375
21
85.6656824
0
LINE
8
back_labelLayer
10
90.6234375
20
85.6656824
11
88.36875
21
83.294198
0
LINE
8
back_labelLayer
10
88.36875
20
83.294198
11
90.7808594
21
80.1000574
0
LINE
8
back_labelLayer
10
90.7808594
20
80.1000574
11
89.7601563
21
80.1000574
0
LINE
8
back_labelLayer
10
89.7601563
20
80.1000574
11
87.7949219
21
82.7305261
0
LINE
8
back_labelLayer
10
87.7949219
20
82.7305261
11
87.1601563
21
82.1820886
0
LINE
8
back_labelLayer
10
87.1601563
20
82.1820886
11
87.1601563
21
80.1000574
0
LINE
8
back_labelLayer
10
87.1601563
20
80.1000574
11
86.3273438
21
80.1000574
0
LINE
8
back_labelLayer
10
86.3273438
20
80.1000574
11
86.3273438
21
88.0016199
0
LINE
8
back_labelLayer
10
86.3273438
20
88.0016199
11
87.1601563
21
88.0016199
0
LINE
8
back_labelLayer
10
87.1601563
20
88.0016199
11
87.1601563
21
83.8121667
0
ARC
8
back_labelLayer
10
91.2330713
20
80.0659098
40
4.9900085
50
142.3233047
51
144.7075802
0
ARC
8
back_labelLayer
10
93.8905867
20
78.0161244
40
8.3461979
50
140.4331239
51
142.3366158
0
ARC
8
back_labelLayer
10
97.3535769
20
75.1654751
40
12.831558
50
139.2798823
51
140.47035
0
ARC
8
back_labelLayer
10
101.3571829
20
71.7226711
40
18.1118759
50
138.341742
51
139.287763
0
ARC
8
back_labelLayer
10
81.5421093
20
83.8226873
40
5.6180568
50
358.27403
51
359.8927061
0
ARC
8
back_labelLayer
10
77.1703772
20
83.9445448
40
9.9914806
50
357.5042498
51
358.3306369
0
ARC
8
back_labelLayer
10
70.6299191
20
84.2334614
40
16.5383161
50
356.6325429
51
357.4909585
0
ARC
8
back_labelLayer
10
59.7580242
20
84.8675493
40
27.4286857
50
356.032952
51
356.6442728
0
ARC
8
back_labelLayer
10
51.4076028
20
85.4327776
40
35.7982061
50
356.0212817
51
356.0550889
0
LINE
8
right_outsideCutPath
10
166
20
110
11
166
21
101.4375
0
LINE
8
right_outsideCutPath
10
166
20
101.4375
11
163
21
101.4375
0
LINE
8
right_outsideCutPath
10
163
20
101.4375
11
163
21
89.8125
0
LINE
8
right_outsideCutPath
10
163
20
89.8125
11
166
21
89.8125
0
LINE
8
right_outsideCutPath
10
166
20
89.8125
11
166
21
78.1875
0
LINE
8
right_outsideCutPath
10
166
20
78.1875
11
163
21
78.1875
0
LINE
8
right_outsideCutPath
10
163
20
78.1875
11
163
21
66.5625
0
LINE
8
right_outsideCutPath
10
163
20
66.5625
11
166
21
66.5625
0
LINE
8
right_outsideCutPath
10
166
20
66.5625
11
166
21
58
0
LINE
8
right_outsideCutPath
10
166
20
58
11
171.6875
21
58
0
LINE
8
right_outsideCutPath
10
171.6875
20
58
11
171.6875
21
61
0
LINE
8
right_outsideCutPath
10
171.6875
20
61
11
183.3125
21
61
0
LINE
8
right_outsideCutPath
10
183.3125
20
61
11
183.3125
21
58
0
LINE
8
right_outsideCutPath
10
183.3125
20
58
11
194.9375
21
58
0
LINE
8
right_outsideCutPath
10
194.9375
20
58
11
194.9375
21
61
0
LINE
8
right_outsideCutPath
10
194.9375
20
61
11
206.5625
21
61
0
LINE
8
right_outsideCutPath
10
206.5625
20
61
11
206.5625
21
58
0
LINE
8
right_outsideCutPath
10
206.5625
20
58
11
218.1875
21
58
0
LINE
8
right_outsideCutPath
10
218.1875
20
58
11
218.1875
21
61
0
LINE
8
right_outsideCutPath
10
218.1875
20
61
11
229.8125
21
61
0
LINE
8
right_outsideCutPath
10
229.8125
20
61
11
229.8125
21
58
0
LINE
8
right_outsideCutPath
10
229.8125
20
58
11
241.4375
21
58
0
LINE
8
right_outsideCutPath
10
241.4375
20
58
11
241.4375
21
61
0
LINE
8
right_outsideCutPath
10
241.4375
20
61
11
253.0625
21
61
0
LINE
8
right_outsideCutPath
10
253.0625
20
61
11
253.0625
21
58
0
LINE
8
right_outsideCutPath
10
253.0625
20
58
11
264.6875
21
58
0
LINE
8
right_outsideCutPath
10
264.6875
20
58
11
264.6875
21
61
0
LINE
8
right_outsideCutPath
10
264.6875
20
61
11
276.3125
21
61
0
LINE
8
right_outsideCutPath
10
276.3125
20
61
11
276.3125
21
58
0
LINE
8
right_outsideCutPath
10
276.3125
20
58
11
282
21
58
0
LINE
8
right_outsideCutPath
10
282
20
58
11
282
21
66.5625
0
LINE
8
right_outsideCutPath
10
282
20
66.5625
11
285
21
66.5625
0
LINE
8
right_outsideCutPath
10
285
20
66.5625
11
285
21
78.1875
0
LINE
8
right_outsideCutPath
10
285
20
78.1875
11
282
21
78.1875
0
LINE
8
right_outsideCutPath
10
282
20
78.1875
11
282
21
89.8125
0
LINE
8
right_outsideCutPath
10
282
20
89.8125
11
285
21
89.8125
0
LINE
8
right_outsideCutPath
10
285
20
89.8125
11
285
21
101.4375
0
LINE
8
right_outsideCutPath
10
285
20
101.4375
11
282
21
101.4375
0
LINE
8
right_outsideCutPath
10
282
20
101.4375
11
282
21
110
0
LINE
8
right_outsideCutPath
10
282
20
110
11
166
21
110
0
LINE
8
right_labelLayer
10
216.446289
20
86.9047182
11
216.3294922
21
86.1226869
0
LINE
8
right_labelLayer
10
214.0849609
20
84.2844057
11
214.0849609
21
81.2984682
0
LINE
8
right_labelLayer
10
214.0849609
20
81.2984682
11
213.2419922
21
81.2984682
0
LINE
8
right_labelLayer
10
213.2419922
20
81.2984682
11
213.2419922
21
86.8640932
0
LINE
8
right_labelLayer
10
213.2419922
20
86.8640932
11
213.9376953
21
86.8640932
0
LINE
8
right_labelLayer
10
213.9376953
20
86.8640932
11
214.0341797
21
85.8332338
0
LINE
8
right_labelLayer
10
214.0341797
20
85.8332338
11
214.0748047
21
85.8332338
0
ARC
8
right_labelLayer
10
215.7897051
20
83.0957274
40
3.869938
50
84.9922621
51
90.128072
0
ARC
8
right_labelLayer
10
215.8826404
20
84.1369562
40
2.8245719
50
78.489244
51
85.0265728
0
ARC
8
right_labelLayer
10
215.5219118
20
82.4962886
40
3.7152323
50
77.4453875
51
81.6359931
0
ARC
8
right_labelLayer
10
215.6837827
20
83.6120155
40
2.5878272
50
81.5884779
51
87.1916167
0
ARC
8
right_labelLayer
10
215.7189477
20
84.221914
40
1.9769452
50
87.343487
51
89.9661054
0
ARC
8
right_labelLayer
10
215.7107751
20
84.7382734
40
1.4606153
50
89.6335327
51
137.0880758
0
ARC
8
right_labelLayer
10
216.0693204
20
84.3350962
40
1.9983819
50
135.621002
51
138.8376358
0
ARC
8
right_labelLayer
10
216.0167113
20
84.3864438
40
1.9249827
50
138.9575827
51
174.5422297
0
ARC
8
right_labelLayer
10
216.6436808
20
84.288346
40
2.5587229
50
173.6908259
51
180.0882331
0
ARC
8
right_labelLayer
10
216.5549979
20
84.4359042
40
2.846733
50
139.4139296
51
150.6032868
0
ARC
8
right_labelLayer
10
216.0445751
20
84.8732843
40
2.1745479
50
124.2321455
51
139.4161303
0
ARC
8
right_labelLayer
10
215.7716596
20
85.2852488
40
1.6804331
50
89.6796642
51
124.4405587
0
LINE
8
right_labelLayer
10
218.3302734
20
86.8640932
11
218.3302734
21
81.2984682
0
LINE
8
right_labelLayer
10
218.3302734
20
81.2984682
11
217.4873047
21
81.2984682
0
LINE
8
right_labelLayer
10
217.4873047
20
81.2984682
11
217.4873047
21
86.8640932
0
LINE
8
right_labelLayer
10
217.4873047
20
86.8640932
11
218.3302734
21
86.8640932
0
ARC
8
right_labelLayer
10
218.3503
20
88.3780755
40
0.934107
50
170.8451562
51
180.3544813
0
ARC
8
right_labelLayer
10
218.0006142
20
88.4365438
40
0.5795768
50
155.9678805
51
171.0515188
0
ARC
8
right_labelLayer
10
217.8312343
20
88.5116891
40
0.3942766
50
133.787919
51
155.917262
0
ARC
8
right_labelLayer
10
217.8937702
20
88.4425532
40
0.487468
50
92.6446418
51
133.4709925
0
ARC
8
right_labelLayer
10
217.9135219
20
88.2873832
40
0.6435069
50
89.9692569
51
93.7639889
0
ARC
8
right_labelLayer
10
217.9215635
20
88.4342827
40
0.496667
50
46.3708457
51
90.8878937
0
ARC
8
right_labelLayer
10
217.9709941
20
88.4853134
40
0.4256239
50
17.7252036
51
46.4473585
0
ARC
8
right_labelLayer
10
217.7404804
20
88.4059348
40
0.6693835
50
4.9428546
51
18.1899815
0
ARC
8
right_labelLayer
10
217.4472315
20
88.3742355
40
0.9642939
50
359.8847794
51
5.3180448
0
ARC
8
right_labelLayer
10
217.5393579
20
88.3663736
40
0.8721856
50
349.8345766
51
0.3890788
0
ARC
8
right_labelLayer
10
217.8568873
20
88.3071415
40
0.5491914
50
332.6321828
51
350.0704892
0
ARC
8
right_labelLayer
10
217.9804791
20
88.2461109
40
0.4113853
50
313.6152639
51
332.2678895
0
ARC
8
right_labelLayer
10
217.9209149
20
88.3003457
40
0.4917719
50
269.1788511
51
314.2807777
0
ARC
8
right_labelLayer
10
217.9082806
20
88.3440639
40
0.5354686
50
250.4999739
51
270.5977838
0
ARC
8
right_labelLayer
10
217.892073
20
88.2834648
40
0.4729613
50
225.1299762
51
249.9002426
0
ARC
8
right_labelLayer
10
217.8667044
20
88.2554422
40
0.4352075
50
197.7934388
51
224.8941919
0
ARC
8
right_labelLayer
10
218.1041654
20
88.3368169
40
0.6861939
50
184.9924749
51
198.2040169
0
ARC
8
right_labelLayer
10
218.4115036
20
88.3702233
40
0.9952949
50
179.8806623
51
185.3685962
0
LINE
8
right_labelLayer
10
222.7482422
20
86.8640932
11
224.6728515
21
86.8640932
0
LINE
8
right_labelLayer
10
224.6728515
20
86.8640932
11
224.6728515
21
86.3308901
0
LINE
8
right_labelLayer
10
224.6728515
20
86.3308901
11
223.6419922
21
86.2090151
0
LINE
8
right_labelLayer
10
221.7427734
20
82.1820619
11
222.7279297
21
82.1820619
0
LINE
8
right_labelLayer
10
222.458789
20
81.4254213
11
221.4482422
21
81.4254213
0
ARC
8
right_labelLayer
10
222.5677583
20
85.3588796
40
1.3699302
50
29.4584066
51
38.3576584
0
ARC
8
right_labelLayer
10
222.0079734
20
85.0393182
40
2.014502
50
23.1845436
51
29.5422723
0
ARC
8
right_labelLayer
10
221.4737917
20
84.8024245
40
2.5988183
50
21.2507479
51
23.3489811
0
ARC
8
right_labelLayer
10
222.3817252
20
85.1635187
40
1.6217598
50
6.8505169
51
20.9871788
0
ARC
8
right_labelLayer
10
221.9249727
20
85.101592
40
2.0826497
50
359.8710761
51
7.0431898
0
ARC
8
right_labelLayer
10
222.0752535
20
85.0768127
40
1.9324682
50
342.5649796
51
0.5957487
0
ARC
8
right_labelLayer
10
222.4316605
20
84.9783955
40
1.5630005
50
310.6097763
51
342.0923691
0
ARC
8
right_labelLayer
10
222.2318025
20
85.2108659
40
1.8695712
50
284.9315685
51
310.6222907
0
ARC
8
right_labelLayer
10
221.9817014
20
86.0872569
40
2.7808576
50
272.5334901
51
285.2579479
0
ARC
8
right_labelLayer
10
221.9173983
20
86.9656704
40
3.6613433
50
269.9691934
51
272.9311535
0
ARC
8
right_labelLayer
10
221.9094197
20
86.0135114
40
2.7091905
50
263.483694
51
270.1271034
0
ARC
8
right_labelLayer
10
221.8652944
20
85.5943624
40
2.2877448
50
259.4963377
51
263.3903455
0
ARC
8
right_labelLayer
10
222.1384083
20
82.0131195
40
1.5000362
50
117.3935359
51
128.4095097
0
ARC
8
right_labelLayer
10
221.7522349
20
82.4921959
40
0.8847295
50
128.088152
51
147.1400825
0
ARC
8
right_labelLayer
10
221.5441955
20
82.6318061
40
0.6342411
50
147.5369527
51
180.2591951
0
ARC
8
right_labelLayer
10
221.3468278
20
82.623537
40
0.4369002
50
179.2918255
51
198.3580248
0
ARC
8
right_labelLayer
10
221.2650259
20
82.6020384
40
0.352531
50
199.2290978
51
239.5691669
0
ARC
8
right_labelLayer
10
221.3328662
20
82.6957786
40
0.4678484
50
238.2200026
51
239.8456666
0
ARC
8
right_labelLayer
10
221.3869604
20
82.807066
40
0.5913194
50
240.730272
51
254.502745
0
ARC
8
right_labelLayer
10
221.5483538
20
83.3632215
40
1.1703986
50
254.1637242
51
262.2122398
0
ARC
8
right_labelLayer
10
221.6761868
20
84.256102
40
2.0723735
50
262.0556126
51
267.2083447
0
ARC
8
right_labelLayer
10
221.7379386
20
85.3887348
40
3.2066764
50
267.0919467
51
270.0863862
0
ARC
8
right_labelLayer
10
222.7463555
20
78.7314745
40
3.4506366
50
81.5744284
51
90.3059515
0
ARC
8
right_labelLayer
10
222.9356342
20
79.9659059
40
2.2018037
50
68.3671242
51
81.7399638
0
ARC
8
right_labelLayer
10
223.1828451
20
80.5976826
40
1.523393
50
52.1879358
51
68.2501232
0
ARC
8
right_labelLayer
10
223.355822
20
80.8307564
40
1.2332269
50
8.6201298
51
51.8982496
0
ARC
8
right_labelLayer
10
222.7495587
20
80.7024764
40
1.8522178
50
359.7430935
51
9.7326512
0
ARC
8
right_labelLayer
10
222.7767165
20
80.6712304
40
1.8251855
50
340.526869
51
0.7201743
0
ARC
8
right_labelLayer
10
223.0448765
20
80.6044625
40
1.5503323
50
302.9903934
51
339.5494371
0
ARC
8
right_labelLayer
10
222.7632672
20
80.9623282
40
2.0042586
50
303.1872289
51
304.1724328
0
ARC
8
right_labelLayer
10
222.5010229
20
81.4164091
40
2.5279863
50
286.2542295
51
302.5280221
0
ARC
8
right_labelLayer
10
222.0235882
20
82.9912138
40
4.1735156
50
276.4939753
51
286.4953514
0
ARC
8
right_labelLayer
10
221.7256992
20
85.4813655
40
6.6813962
50
269.7544944
51
276.6169864
0
ARC
8
right_labelLayer
10
221.6748229
20
83.5229195
40
4.7229412
50
262.563489
51
270.2698923
0
ARC
8
right_labelLayer
10
221.4435031
20
81.8083731
40
2.9928861
50
251.2102019
51
262.7063937
0
ARC
8
right_labelLayer
10
221.1100953
20
80.8297673
40
1.9590439
50
235.9668316
51
251.2228715
0
ARC
8
right_labelLayer
10
220.7567065
20
80.3256186
40
1.3435095
50
208.9036265
51
236.4231473
0
ARC
8
right_labelLayer
10
220.7891489
20
80.3120194
40
1.3656162
50
182.207998
51
207.7461591
0
ARC
8
right_labelLayer
10
221.2019996
20
80.3532635
40
1.7799294
50
179.9783214
51
183.0226697
0
ARC
8
right_labelLayer
10
220.7108116
20
80.3765505
40
1.2889397
50
138.3916075
51
181.0052683
0
ARC
8
right_labelLayer
10
220.8469264
20
80.2542241
40
1.4719424
50
113.8121557
51
138.3496276
0
ARC
8
right_labelLayer
10
221.1051183
20
79.696678
40
2.0862986
50
102.2870862
51
114.1172635
0
ARC
8
right_labelLayer
10
221.0239883
20
82.5312854
40
0.8748925
50
216.5861779
51
245.4968677
0
ARC
8
right_labelLayer
10
221.1491428
20
82.6374764
40
1.0387345
50
215.46504
51
217.1748098
0
ARC
8
right_labelLayer
10
220.9406192
20
82.4868615
40
0.7815125
50
182.1767161
51
215.3415324
0
ARC
8
right_labelLayer
10
221.1263664
20
82.5067864
40
0.967968
50
179.9836924
51
182.937683
0
ARC
8
right_labelLayer
10
221.1223481
20
82.5152106
40
0.9639841
50
161.722618
51
180.4843332
0
ARC
8
right_labelLayer
10
221.0163573
20
82.5441316
40
0.8542899
50
144.4963147
51
161.3350491
0
ARC
8
right_labelLayer
10
221.2988962
20
82.3335584
40
1.2066126
50
132.7259436
51
144.1479106
0
ARC
8
right_labelLayer
10
221.7516972
20
81.8500224
40
1.8690493
50
125.2212521
51
132.8655933
0
ARC
8
right_labelLayer
10
222.2069859
20
81.2177918
40
2.6481293
50
121.2352759
51
125.3794083
0
ARC
8
right_labelLayer
10
221.3999152
20
84.8471134
40
1.4777903
50
215.1640591
51
247.4748081
0
ARC
8
right_labelLayer
10
221.6758411
20
85.0697901
40
1.8317514
50
212.4715223
51
215.8875188
0
ARC
8
right_labelLayer
10
221.6032304
20
85.0178436
40
1.7426104
50
183.0160905
51
212.3123257
0
ARC
8
right_labelLayer
10
221.9855393
20
85.0604627
40
2.1267504
50
179.975859
51
183.6207647
0
ARC
8
right_labelLayer
10
222.2941854
20
85.0819291
40
2.4354832
50
166.8195949
51
180.4839315
0
ARC
8
right_labelLayer
10
221.4862366
20
85.2859179
40
1.6023697
50
132.3287823
51
167.3340836
0
ARC
8
right_labelLayer
10
221.594329
20
85.1305439
40
1.7901949
50
106.2189087
51
131.5377618
0
ARC
8
right_labelLayer
10
221.8678224
20
84.2449906
40
2.7169362
50
93.6329813
51
106.5408614
0
ARC
8
right_labelLayer
10
221.9571059
20
83.2426355
40
3.7230224
50
89.9380272
51
94.0268003
0
ARC
8
right_labelLayer
10
221.971563
20
83.7345346
40
3.2311379
50
82.5852005
51
90.1849534
0
ARC
8
right_labelLayer
10
222.0702903
20
84.4984061
40
2.4609132
50
74.0089072
51
82.5694326
0
ARC
8
right_labelLayer
10
221.0811138
20
80.3525786
40
0.8466218
50
179.2207145
51
200.9355237
0
ARC
8
right_labelLayer
10
220.9804349
20
80.3292674
40
0.7443952
50
202.0287159
51
236.1457473
0
ARC
8
right_labelLayer
10
221.1321154
20
80.5218458
40
0.9889985
50
235.0633663
51
238.50439
0
ARC
8
right_labelLayer
10
221.3085723
20
80.8370068
40
1.3499916
50
239.1066172
51
254.4862903
0
ARC
8
right_labelLayer
10
221.5437659
20
81.647948
40
2.1943159
50
254.2324089
51
263.4937586
0
ARC
8
right_labelLayer
10
221.6915037
20
82.8992333
40
3.4542864
50
263.4108025
51
270.1457654
0
ARC
8
right_labelLayer
10
221.7072226
20
83.7339369
40
4.2889844
50
269.9074113
51
270.0000531
0
ARC
8
right_labelLayer
10
221.7274291
20
85.1117479
40
5.6668314
50
269.7957374
51
275.3991417
0
ARC
8
right_labelLayer
10
221.9395182
20
82.9344648
40
3.4792576
50
275.2957203
51
283.3515762
0
ARC
8
right_labelLayer
10
222.2850678
20
81.5112083
40
2.0146876
50
283.1370483
51
295.8573109
0
ARC
8
right_labelLayer
10
222.5410828
20
80.9522845
40
1.4001294
50
296.4048822
51
301.8008253
0
ARC
8
right_labelLayer
10
222.6414895
20
80.8138794
40
1.2296523
50
301.2230807
51
318.6238296
0
ARC
8
right_labelLayer
10
222.867904
20
80.604732
40
0.9215365
50
319.0765428
51
1.1406958
0
ARC
8
right_labelLayer
10
222.6487751
20
80.6321127
40
1.1405184
50
359.5461028
51
10.9904282
0
ARC
8
right_labelLayer
10
223.0893227
20
80.7217192
40
0.6909793
50
10.6608337
51
30.9361856
0
ARC
8
right_labelLayer
10
223.229003
20
80.7992374
40
0.5313455
50
31.5095088
51
58.0778255
0
ARC
8
right_labelLayer
10
223.098083
20
80.5648193
40
0.7996411
50
58.9972954
51
73.8585166
0
ARC
8
right_labelLayer
10
222.8334798
20
79.6985812
40
1.7053449
50
73.4100161
51
81.5907435
0
ARC
8
right_labelLayer
10
222.6092711
20
78.2476259
40
3.1735042
50
81.4173067
51
86.5756235
0
ARC
8
right_labelLayer
10
222.4718847
20
76.0615921
40
5.3638451
50
86.5054754
51
90.1398854
0
ARC
8
right_labelLayer
10
221.4361859
20
79.487716
40
1.9377428
50
89.6435152
51
100.0208946
0
ARC
8
right_labelLayer
10
221.3143958
20
80.1502492
40
1.2641331
50
99.8102921
51
116.8229674
0
ARC
8
right_labelLayer
10
221.1957542
20
80.4004452
40
0.9873467
50
117.230395
51
130.50241
0
ARC
8
right_labelLayer
10
221.1348455
20
80.4787251
40
0.888277
50
130.7944516
51
169.0413694
0
ARC
8
right_labelLayer
10
221.5834011
20
80.3730878
40
1.3488607
50
168.2580457
51
180.3820684
0
ARC
8
right_labelLayer
10
222.3370084
20
85.0690867
40
1.6454549
50
179.5617916
51
191.6529263
0
ARC
8
right_labelLayer
10
221.7649035
20
84.9454812
40
1.0601899
50
191.3555486
51
213.3660349
0
ARC
8
right_labelLayer
10
221.6275182
20
84.8661558
40
0.9018697
50
213.9574756
51
227.7970747
0
ARC
8
right_labelLayer
10
221.7470437
20
85.0111243
40
1.0895861
50
228.2620811
51
254.7341475
0
ARC
8
right_labelLayer
10
221.8997568
20
85.5346318
40
1.634858
50
254.4016948
51
267.4348365
0
ARC
8
right_labelLayer
10
221.9396004
20
86.0689699
40
2.1705022
50
267.0154021
51
270.0322018
0
ARC
8
right_labelLayer
10
221.9656381
20
85.7347468
40
1.8364463
50
269.2256808
51
284.3773463
0
ARC
8
right_labelLayer
10
222.2159431
20
84.8626845
40
0.9299049
50
282.7796741
51
346.4828392
0
ARC
8
right_labelLayer
10
221.4675979
20
85.0746585
40
1.7073518
50
345.4362088
51
0.7465981
0
ARC
8
right_labelLayer
10
221.3623977
20
85.1228254
40
1.8125924
50
359.1806539
51
15.0431416
0
ARC
8
right_labelLayer
10
222.1837191
20
85.3624125
40
0.9574062
50
13.9535599
51
77.6673998
0
ARC
8
right_labelLayer
10
221.9480752
20
84.5179697
40
1.833371
50
76.1094761
51
90.702843
0
ARC
8
right_labelLayer
10
221.9128034
20
84.5824659
40
1.7687828
50
89.5859335
51
101.3334309
0
ARC
8
right_labelLayer
10
221.7864007
20
85.1853504
40
1.1528271
50
101.0620678
51
121.973913
0
ARC
8
right_labelLayer
10
221.6975671
20
85.3451566
40
0.9702692
50
122.5210972
51
134.9966432
0
ARC
8
right_labelLayer
10
221.7341427
20
85.3232442
40
1.0116789
50
135.5839997
51
163.0015601
0
ARC
8
right_labelLayer
10
222.2683799
20
85.1481408
40
1.5738078
50
162.5912005
51
175.7343494
0
ARC
8
right_labelLayer
10
222.9091875
20
85.0850128
40
2.2175886
50
175.3393186
51
180.0863346
0
LINE
8
right_labelLayer
10
230.4669922
20
81.2984682
11
229.6240234
21
81.2984682
0
LINE
8
right_labelLayer
10
229.6240234
20
81.2984682
11
229.6240234
21
84.8988588
0
LINE
8
right_labelLayer
10
226.6583984
20
84.2082338
11
226.6583984
21
81.2984682
0
LINE
8
right_labelLayer
10
226.6583984
20
81.2984682
11
225.8154297
21
81.2984682
0
LINE
8
right_labelLayer
10
225.8154297
20
81.2984682
11
225.8154297
21
89.2000307
0
LINE
8
right_labelLayer
10
225.8154297
20
89.2000307
11
226.6583984
21
89.2000307
0
LINE
8
right_labelLayer
10
226.6583984
20
89.2000307
11
226.6583984
21
86.8082338
0
LINE
8
right_labelLayer
10
226.6177734
20
86.0922182
11
226.6685547
21
86.0922182
0
LINE
8
right_labelLayer
10
230.4669922
20
84.9293276
11
230.4669922
21
81.2984682
0
ARC
8
right_labelLayer
10
227.2412095
20
84.9125255
40
2.3828531
50
359.6713819
51
8.6877229
0
ARC
8
right_labelLayer
10
228.1243585
20
85.0525866
40
1.4886895
50
8.4931575
51
22.6580126
0
ARC
8
right_labelLayer
10
228.573065
20
85.2390565
40
1.0027805
50
22.7024022
51
42.3419971
0
ARC
8
right_labelLayer
10
228.6234986
20
85.261743
40
0.9503783
50
43.3790782
51
71.5386107
0
ARC
8
right_labelLayer
10
228.43489
20
84.7347192
40
1.5100535
50
71.0828349
51
84.3690869
0
ARC
8
right_labelLayer
10
228.3502298
20
84.0149002
40
2.2347475
50
84.019805
51
90.1511102
0
ARC
8
right_labelLayer
10
228.3261696
20
83.6987559
40
2.5509488
50
89.5919715
51
100.3595273
0
ARC
8
right_labelLayer
10
228.1455384
20
84.6479942
40
1.584718
50
100.1067794
51
118.0847167
0
ARC
8
right_labelLayer
10
227.9618226
20
85.0084905
40
1.1802047
50
118.4551119
51
139.6706211
0
ARC
8
right_labelLayer
10
228.1462597
20
84.8824243
40
1.4025884
50
140.6208065
51
160.5049162
0
ARC
8
right_labelLayer
10
229.118455
20
84.52252
40
2.4392023
50
160.1567006
51
171.5312814
0
ARC
8
right_labelLayer
10
230.6914959
20
84.2732923
40
4.0318223
50
171.320257
51
178.3406835
0
ARC
8
right_labelLayer
10
232.0990221
20
84.210414
40
5.440624
50
178.107999
51
180.0229595
0
ARC
8
right_labelLayer
10
219.0753732
20
86.7991897
40
7.5830306
50
357.8674291
51
0.0683356
0
ARC
8
right_labelLayer
10
221.6513091
20
86.7009144
40
5.0052222
50
354.9828943
51
357.8943536
0
ARC
8
right_labelLayer
10
223.3529283
20
86.5527374
40
3.2971642
50
351.9711734
51
354.9619938
0
ARC
8
right_labelLayer
10
228.096403
20
85.1990487
40
1.6841919
50
119.8316177
51
147.9725665
0
ARC
8
right_labelLayer
10
228.3003696
20
84.8857072
40
2.0575845
50
116.6658649
51
120.4182531
0
ARC
8
right_labelLayer
10
228.3384169
20
84.7857398
40
2.1640217
50
96.6652408
51
116.3782366
0
ARC
8
right_labelLayer
10
228.4204638
20
84.2196738
40
2.7358305
50
89.8927287
51
96.9959301
0
ARC
8
right_labelLayer
10
228.4467008
20
83.5355297
40
3.4200349
50
80.6862976
51
90.3537399
0
ARC
8
right_labelLayer
10
228.6596555
20
84.78809
40
2.1495353
50
65.6022746
51
80.8844298
0
ARC
8
right_labelLayer
10
228.9153701
20
85.3640184
40
1.5194179
50
46.7401042
51
65.4130326
0
ARC
8
right_labelLayer
10
228.9327514
20
85.4188974
40
1.4677527
50
19.2204546
51
45.7660548
0
ARC
8
right_labelLayer
10
228.0864376
20
85.1051623
40
2.3702405
50
6.4733873
51
19.646808
0
ARC
8
right_labelLayer
10
226.8218165
20
84.9423986
40
3.6451992
50
359.7945469
51
6.7743984
0
LINE
8
right_labelLayer
10
234.7580078
20
81.9941713
11
234.7580078
21
81.3492494
0
LINE
8
right_labelLayer
10
232.2595703
20
82.8980776
11
232.2595703
21
86.2090151
0
LINE
8
right_labelLayer
10
232.2595703
20
86.2090151
11
231.4623047
21
86.2090151
0
LINE
8
right_labelLayer
10
231.4623047
20
86.2090151
11
231.4623047
21
86.6152651
0
LINE
8
right_labelLayer
10
231.4623047
20
86.6152651
11
232.2595703
21
86.9656557
0
LINE
8
right_labelLayer
10
232.2595703
20
86.9656557
11
232.615039
21
88.1539369
0
LINE
8
right_labelLayer
10
232.615039
20
88.1539369
11
233.102539
21
88.1539369
0
LINE
8
right_labelLayer
10
233.102539
20
88.1539369
11
233.102539
21
86.8640932
0
LINE
8
right_labelLayer
10
233.102539
20
86.8640932
11
234.7173828
21
86.8640932
0
LINE
8
right_labelLayer
10
234.7173828
20
86.8640932
11
234.7173828
21
86.2090151
0
LINE
8
right_labelLayer
10
234.7173828
20
86.2090151
11
233.102539
21
86.2090151
0
LINE
8
right_labelLayer
10
233.102539
20
86.2090151
11
233.102539
21
82.9336244
0
ARC
8
right_labelLayer
10
234.0020714
20
84.6610266
40
2.7684238
50
269.8803283
51
278.3028088
0
ARC
8
right_labelLayer
10
234.0291912
20
84.4407263
40
2.546521
50
278.4147859
51
279.0085394
0
ARC
8
right_labelLayer
10
233.7178096
20
86.4299758
40
4.5599914
50
278.959042
51
280.5105307
0
ARC
8
right_labelLayer
10
234.0137962
20
84.8418372
40
2.9445073
50
280.4848834
51
282.6268291
0
ARC
8
right_labelLayer
10
234.2734344
20
83.6883266
40
1.7621384
50
282.5877746
51
285.5794498
0
ARC
8
right_labelLayer
10
234.4049462
20
83.2049182
40
1.2611743
50
285.7226109
51
286.2570254
0
ARC
8
right_labelLayer
10
234.4035989
20
82.0988457
40
0.8291563
50
287.9888391
51
295.3047686
0
ARC
8
right_labelLayer
10
234.2036365
20
82.7038124
40
1.4663088
50
283.3068378
51
288.1199228
0
ARC
8
right_labelLayer
10
233.9923627
20
83.5850856
40
2.3725506
50
280.0069785
51
283.3735475
0
ARC
8
right_labelLayer
10
233.851013
20
84.3522218
40
3.1525837
50
279.1860994
51
280.1141242
0
ARC
8
right_labelLayer
10
233.7642172
20
84.845892
40
3.6537854
50
275.5261003
51
279.2938655
0
ARC
8
right_labelLayer
10
233.8620082
20
83.8245078
40
2.6277313
50
270.893301
51
275.5483843
0
ARC
8
right_labelLayer
10
233.8742952
20
83.3570597
40
2.1601541
50
270.0031511
51
270.760738
0
ARC
8
right_labelLayer
10
233.8403983
20
83.3983571
40
2.2017142
50
253.784803
51
270.8852365
0
ARC
8
right_labelLayer
10
233.5795539
20
82.5087763
40
1.2746833
50
190.3817789
51
253.877227
0
ARC
8
right_labelLayer
10
234.9090729
20
82.8682535
40
2.6496702
50
179.3550795
51
192.8477416
0
ARC
8
right_labelLayer
10
234.7999747
20
82.9230091
40
1.6974689
50
179.6416921
51
189.7505697
0
ARC
8
right_labelLayer
10
234.200736
20
82.8161295
40
1.0887923
50
189.5480206
51
205.7873256
0
ARC
8
right_labelLayer
10
233.9544622
20
82.7025644
40
0.8176539
50
206.1293727
51
221.408473
0
ARC
8
right_labelLayer
10
233.9268565
20
82.6816171
40
0.7830984
50
221.5949204
51
262.3504993
0
ARC
8
right_labelLayer
10
233.9925257
20
83.0193205
40
1.1267178
50
261.3266843
51
270.1913735
0
LINE
8
bottom_outsideCutPath
10
291
20
122
11
291
21
116.3125
0
LINE
8
bottom_outsideCutPath
10
291
20
116.3125
11
288
21
116.3125
0
LINE
8
bottom_outsideCutPath
10
288
20
116.3125
11
288
21
104.6875
0
LINE
8
bottom_outsideCutPath
10
288
20
104.6875
11
291
21
104.6875
0
LINE
8
bottom_outsideCutPath
10
291
20
104.6875
11
291
21
93.0625
0
LINE
8
bottom_outsideCutPath
10
291
20
93.0625
11
288
21
93.0625
0
LINE
8
bottom_outsideCutPath
10
288
20
93.0625
11
288
21
81.4375
0
LINE
8
bottom_outsideCutPath
10
288
20
81.4375
11
291
21
81.4375
0
LINE
8
bottom_outsideCutPath
10
291
20
81.4375
11
291
21
69.8125
0
LINE
8
bottom_outsideCutPath
10
291
20
69.8125
11
288
21
69.8125
0
LINE
8
bottom_outsideCutPath
10
288
20
69.8125
11
288
21
58.1875
0
LINE
8
bottom_outsideCutPath
10
288
20
58.1875
11
291
21
58.1875
0
LINE
8
bottom_outsideCutPath
10
291
20
58.1875
11
291
21
46.5625
0
LINE
8
bottom_outsideCutPath
10
291
20
46.5625
11
288
21
46.5625
0
LINE
8
bottom_outsideCutPath
10
288
20
46.5625
11
288
21
34.9375
0
LINE
8
bottom_outsideCutPath
10
288
20
34.9375
11
291
21
34.9375
0
LINE
8
bottom_outsideCutPath
10
291
20
34.9375
11
291
21
23.3125
0
LINE
8
bottom_outsideCutPath
10
291
20
23.3125
11
288
21
23.3125
0
LINE
8
bottom_outsideCutPath
10
288
20
23.3125
11
288
21
11.6875
0
LINE
8
bottom_outsideCutPath
10
288
20
11.6875
11
291
21
11.6875
0
LINE
8
bottom_outsideCutPath
10
291
20
11.6875
11
291
21
6
0
LINE
8
bottom_outsideCutPath
10
291
20
6
11
304.0625
21
6
0
LINE
8
bottom_outsideCutPath
10
304.0625
20
6
11
304.0625
21
3
0
LINE
8
bottom_outsideCutPath
10
304.0625
20
3
11
315.6875
21
3
0
LINE
8
bottom_outsideCutPath
10
315.6875
20
3
11
315.6875
21
6
0
LINE
8
bottom_outsideCutPath
10
315.6875
20
6
11
327.3125
21
6
0
LINE
8
bottom_outsideCutPath
10
327.3125
20
6
11
327.3125
21
3
0
LINE
8
bottom_outsideCutPath
10
327.3125
20
3
11
338.9375
21
3
0
LINE
8
bottom_outsideCutPath
10
338.9375
20
3
11
338.9375
21
6
0
LINE
8
bottom_outsideCutPath
10
338.9375
20
6
11
350.5625
21
6
0
LINE
8
bottom_outsideCutPath
10
350.5625
20
6
11
350.5625
21
3
0
LINE
8
bottom_outsideCutPath
10
350.5625
20
3
11
362.1875
21
3
0
LINE
8
bottom_outsideCutPath
10
362.1875
20
3
11
362.1875
21
6
0
LINE
8
bottom_outsideCutPath
10
362.1875
20
6
11
373.8125
21
6
0
LINE
8
bottom_outsideCutPath
10
373.8125
20
6
11
373.8125
21
3
0
LINE
8
bottom_outsideCutPath
10
373.8125
20
3
11
385.4375
21
3
0
LINE
8
bottom_outsideCutPath
10
385.4375
20
3
11
385.4375
21
6
0
LINE
8
bottom_outsideCutPath
10
385.4375
20
6
11
397.0625
21
6
0
LINE
8
bottom_outsideCutPath
10
397.0625
20
6
11
397.0625
21
3
0
LINE
8
bottom_outsideCutPath
10
397.0625
20
3
11
408.6875
21
3
0
LINE
8
bottom_outsideCutPath
10
408.6875
20
3
11
408.6875
21
6
0
LINE
8
bottom_outsideCutPath
10
408.6875
20
6
11
420.3125
21
6
0
LINE
8
bottom_outsideCutPath
10
420.3125
20
6
11
420.3125
21
3
0
LINE
8
bottom_outsideCutPath
10
420.3125
20
3
11
431.9375
21
3
0
LINE
8
bottom_outsideCutPath
10
431.9375
20
3
11
431.9375
21
6
0
LINE
8
bottom_outsideCutPath
10
431.9375
20
6
11
443.5625
21
6
0
LINE
8
bottom_outsideCutPath
10
443.5625
20
6
11
445
21
6
0
LINE
8
bottom_outsideCutPath
10
445
20
6
11
445
21
11.6875
0
LINE
8
bottom_outsideCutPath
10
445
20
11.6875
11
448
21
11.6875
0
LINE
8
bottom_outsideCutPath
10
448
20
11.6875
11
448
21
23.3125
0
LINE
8
bottom_outsideCutPath
10
448
20
23.3125
11
445
21
23.3125
0
LINE
8
bottom_outsideCutPath
10
445
20
23.3125
11
445
21
34.9375
0
LINE
8
bottom_outsideCutPath
10
445
20
34.9375
11
448
21
34.9375
0
LINE
8
bottom_outsideCutPath
10
448
20
34.9375
11
448
21
46.5625
0
LINE
8
bottom_outsideCutPath
10
448
20
46.5625
11
445
21
46.5625
0
LINE
8
bottom_outsideCutPath
10
445
20
46.5625
11
445
21
58.1875
0
LINE
8
bottom_outsideCutPath
10
445
20
58.1875
11
448
21
58.1875
0
LINE
8
bottom_outsideCutPath
10
448
20
58.1875
11
448
21
69.8125
0
LINE
8
bottom_outsideCutPath
10
448
20
69.8125
11
445
21
69.8125
0
LINE
8
bottom_outsideCutPath
10
445
20
69.8125
11
445
21
81.4375
0
LINE
8
bottom_outsideCutPath
10
445
20
81.4375
11
448
21
81.4375
0
LINE
8
bottom_outsideCutPath
10
448
20
81.4375
11
448
21
93.0625
0
LINE
8
bottom_outsideCutPath
10
448
20
93.0625
11
445
21
93.0625
0
LINE
8
bottom_outsideCutPath
10
445
20
93.0625
11
445
21
104.6875
0
LINE
8
bottom_outsideCutPath
10
445
20
104.6875
11
448
21
104.6875
0
LINE
8
bottom_outsideCutPath
10
448
20
104.6875
11
448
21
116.3125
0
LINE
8
bottom_outsideCutPath
10
448
20
116.3125
11
445
21
116.3125
0
LINE
8
bottom_outsideCutPath
10
445
20
116.3125
11
445
21
122
0
LINE
8
bottom_outsideCutPath
10
445
20
122
11
431.9375
21
122
0
LINE
8
bottom_outsideCutPath
10
431.9375
20
122
11
431.9375
21
125
0
LINE
8
bottom_outsideCutPath
10
431.9375
20
125
11
420.3125
21
125
0
LINE
8
bottom_outsideCutPath
10
420.3125
20
125
11
420.3125
21
122
0
LINE
8
bottom_outsideCutPath
10
420.3125
20
122
11
408.6875
21
122
0
LINE
8
bottom_outsideCutPath
10
408.6875
20
122
11
408.6875
21
125
0
LINE
8
bottom_outsideCutPath
10
408.6875
20
125
11
397.0625
21
125
0
LINE
8
bottom_outsideCutPath
10
397.0625
20
125
11
397.0625
21
122
0
LINE
8
bottom_outsideCutPath
10
397.0625
20
122
11
385.4375
21
122
0
LINE
8
bottom_outsideCutPath
10
385.4375
20
122
11
385.4375
21
125
0
LINE
8
bottom_outsideCutPath
10
385.4375
20
125
11
373.8125
21
125
0
LINE
8
bottom_outsideCutPath
10
373.8125
20
125
11
373.8125
21
122
0
LINE
8
bottom_outsideCutPath
10
373.8125
20
122
11
362.1875
21
122
0
LINE
8
bottom_outsideCutPath
10
362.1875
20
122
11
362.1875
21
125
0
LINE
8
bottom_outsideCutPath
10
362.1875
20
125
11
350.5625
21
125
0
LINE
8
bottom_outsideCutPath
10
350.5625
20
125
11
350.5625
21
122
0
LINE
8
bottom_outsideCutPath
10
350.5625
20
122
11
338.9375
21
122
0
LINE
8
bottom_outsideCutPath
10
338.9375
20
122
11
338.9375
21
125
0
LINE
8
bottom_outsideCutPath
10
338.9375
20
125
11
327.3125
21
125
0
LINE
8
bottom_outsideCutPath
10
327.3125
20
125
11
327.3125
21
122
0
LINE
8
bottom_outsideCutPath
10
327.3125
20
122
11
315.6875
21
122
0
LINE
8
bottom_outsideCutPath
10
315.6875
20
122
11
315.6875
21
125
0
LINE
8
bottom_outsideCutPath
10
315.6875
20
125
11
304.0625
21
125
0
LINE
8
bottom_outsideCutPath
10
304.0625
20
125
11
304.0625
21
122
0
LINE
8
bottom_outsideCutPath
10
304.0625
20
122
11
292.4375
21
122
0
LINE
8
bottom_outsideCutPath
10
292.4375
20
122
11
291
21
122
0
LINE
8
bottom_labelLayer
10
329.8392001
20
56.5301911
11
329.6962313
21
56.5301911
0
LINE
8
bottom_labelLayer
10
329.6962313
20
56.5301911
11
329.2792391
21
54.8503083
0
LINE
8
bottom_labelLayer
10
329.2792391
20
54.8503083
11
327.8614657
21
54.8503083
0
LINE
8
bottom_labelLayer
10
327.8614657
20
54.8503083
11
327.8614657
21
73.3885895
0
LINE
8
bottom_labelLayer
10
327.8614657
20
73.3885895
11
329.8392001
21
73.3885895
0
LINE
8
bottom_labelLayer
10
329.8392001
20
73.3885895
11
329.8392001
21
68.8850739
0
LINE
8
bottom_labelLayer
10
329.7438876
20
66.1686677
11
329.8392001
21
66.1686677
0
ARC
8
bottom_labelLayer
10
333.9969669
20
62.0782252
40
6.0446399
50
74.2393247
51
90.5623787
0
ARC
8
bottom_labelLayer
10
334.3966585
20
63.5445097
40
4.5249372
50
38.5631312
51
74.0670317
0
ARC
8
bottom_labelLayer
10
333.3680685
20
62.7447221
40
5.8278047
50
16.4709357
51
38.4075228
0
ARC
8
bottom_labelLayer
10
330.4048619
20
61.815548
40
8.9330048
50
5.1338476
51
16.7973391
0
ARC
8
bottom_labelLayer
10
326.6640706
20
61.4181767
40
12.694494
50
359.87792
51
5.409354
0
ARC
8
bottom_labelLayer
10
327.7628348
20
61.3227144
40
11.595903
50
350.6562759
51
0.3380388
0
ARC
8
bottom_labelLayer
10
331.8053448
20
60.6351273
40
7.4954268
50
335.830594
51
350.8254785
0
ARC
8
bottom_labelLayer
10
333.5835842
20
59.8676133
40
5.5588919
50
321.3161419
51
335.543621
0
ARC
8
bottom_labelLayer
10
334.2634122
20
59.313656
40
4.6819838
50
274.0640048
51
321.4081032
0
ARC
8
bottom_labelLayer
10
333.9466999
20
61.3198265
40
6.7078057
50
269.922593
51
275.5481733
0
ARC
8
bottom_labelLayer
10
333.9042865
20
60.6108384
40
5.998904
50
255.77555
51
270.3185394
0
ARC
8
bottom_labelLayer
10
333.7330868
20
59.8502243
40
5.2195845
50
245.9801458
51
255.5456
0
ARC
8
bottom_labelLayer
10
333.4015121
20
59.0791474
40
4.3803247
50
215.5850184
51
245.836165
0
ARC
8
bottom_labelLayer
10
288.604747
20
68.8502202
40
41.2344678
50
358.1123245
51
0.0484296
0
ARC
8
bottom_labelLayer
10
300.0810038
20
68.4649318
40
29.7517483
50
355.7238764
51
358.1258997
0
ARC
8
bottom_labelLayer
10
305.095312
20
68.1208065
40
24.7257583
50
355.4716921
51
355.6527011
0
ARC
8
bottom_labelLayer
10
333.5275886
20
63.5966548
40
4.4966053
50
95.1835139
51
145.1108958
0
ARC
8
bottom_labelLayer
10
333.9228214
20
61.3678947
40
6.7546953
50
89.8743239
51
96.8145272
0
ARC
8
bottom_labelLayer
10
333.6102952
20
60.9090667
40
5.5576068
50
89.5731352
51
100.7324122
0
ARC
8
bottom_labelLayer
10
333.1988777
20
62.9876967
40
3.4387644
50
100.4469409
51
119.6700725
0
ARC
8
bottom_labelLayer
10
332.8173699
20
63.7009705
40
2.630248
50
120.1402875
51
142.4248904
0
ARC
8
bottom_labelLayer
10
333.4485496
20
63.283426
40
3.3855415
50
143.3382505
51
161.2559712
0
ARC
8
bottom_labelLayer
10
336.0879853
20
62.3463385
40
6.1862399
50
160.8926331
51
171.2334385
0
ARC
8
bottom_labelLayer
10
340.4942617
20
61.6355025
40
10.6494229
50
171.0667864
51
177.845684
0
ARC
8
bottom_labelLayer
10
345.0767147
20
61.4024405
40
15.2375188
50
177.6176732
51
180.0425347
0
ARC
8
bottom_labelLayer
10
342.9156943
20
61.3400649
40
13.0765939
50
179.7762611
51
185.70753
0
ARC
8
bottom_labelLayer
10
337.7600988
20
60.8088566
40
7.8937442
50
185.5924981
51
194.2050559
0
ARC
8
bottom_labelLayer
10
334.4574188
20
59.9516987
40
4.4817543
50
193.9430443
51
208.0218485
0
ARC
8
bottom_labelLayer
10
333.1211691
20
59.2719126
40
2.9829147
50
208.5536747
51
217.5605113
0
ARC
8
bottom_labelLayer
10
333.0122876
20
59.226623
40
2.8691565
50
218.1690462
51
253.8047153
0
ARC
8
bottom_labelLayer
10
333.5444604
20
60.8673653
40
4.5935288
50
253.1382404
51
266.8483123
0
ARC
8
bottom_labelLayer
10
333.6936873
20
62.6271819
40
6.3591026
50
266.3775575
51
270.0510786
0
ARC
8
bottom_labelLayer
10
333.7415437
20
60.2104514
40
3.9425954
50
269.3869001
51
285.8630692
0
ARC
8
bottom_labelLayer
10
334.0344541
20
59.1518338
40
2.8442388
50
286.01629
51
326.8497345
0
ARC
8
bottom_labelLayer
10
332.6207181
20
60.0883823
40
4.5400266
50
326.7105024
51
343.6661731
0
ARC
8
bottom_labelLayer
10
329.9743011
20
60.8970416
40
7.3071236
50
343.4171338
51
353.6369269
0
ARC
8
bottom_labelLayer
10
325.9771189
20
61.3713378
40
11.3322825
50
353.4934739
51
0.2205368
0
ARC
8
bottom_labelLayer
10
325.6247926
20
61.4622531
40
11.6846204
50
359.7680806
51
6.3095275
0
ARC
8
bottom_labelLayer
10
330.0261453
20
61.9673352
40
7.2544429
50
6.1648689
51
16.0396439
0
ARC
8
bottom_labelLayer
10
332.8614309
20
62.8028939
40
4.2987109
50
15.7779379
51
32.0151143
0
ARC
8
bottom_labelLayer
10
333.7453833
20
63.3090832
40
3.2810842
50
32.7034842
51
35.5241168
0
ARC
8
bottom_labelLayer
10
334.0689428
20
63.5390475
40
2.8841288
50
35.5408345
51
79.801122
0
ARC
8
bottom_labelLayer
10
333.6816329
20
61.8925154
40
4.5741018
50
78.678132
51
90.3749448
0
ARC
8
bottom_labelLayer
10
343.8687292
20
61.3222595
40
10.2158202
50
349.1761988
51
0.3862574
0
ARC
8
bottom_labelLayer
10
347.3081645
20
60.6366025
40
6.7088723
50
330.2507037
51
349.4116503
0
ARC
8
bottom_labelLayer
10
348.3666334
20
60.0864545
40
5.5171229
50
318.1439812
51
329.756604
0
ARC
8
bottom_labelLayer
10
348.5576825
20
59.9333482
40
5.2726804
50
278.8959228
51
317.997909
0
ARC
8
bottom_labelLayer
10
348.0654453
20
62.2916985
40
7.6797443
50
269.7502786
51
279.8033273
0
ARC
8
bottom_labelLayer
10
347.9856126
20
60.9629197
40
6.3510619
50
253.5436991
51
270.4182461
0
ARC
8
bottom_labelLayer
10
347.7741974
20
60.1451122
40
5.5069403
50
238.8115495
51
253.2428374
0
ARC
8
bottom_labelLayer
10
347.7059692
20
60.0079047
40
5.3542463
50
207.7947094
51
238.6757919
0
ARC
8
bottom_labelLayer
10
348.6850037
20
60.6075212
40
6.500348
50
205.6560339
51
208.4461548
0
ARC
8
bottom_labelLayer
10
349.439148
20
60.9217473
40
7.3163185
50
188.9102491
51
205.3171469
0
ARC
8
bottom_labelLayer
10
351.9805989
20
61.3521854
40
9.8938192
50
179.7744766
51
189.0932796
0
ARC
8
bottom_labelLayer
10
352.3554836
20
61.4606814
40
10.2688628
50
169.2442968
51
180.3880773
0
ARC
8
bottom_labelLayer
10
348.8682529
20
62.1499812
40
6.7143099
50
150.7111401
51
169.4695502
0
ARC
8
bottom_labelLayer
10
347.7550318
20
62.7216608
40
5.4639187
50
138.1759476
51
150.2287328
0
ARC
8
bottom_labelLayer
10
347.5698499
20
62.8637657
40
5.2311895
50
99.1759336
51
137.9832707
0
ARC
8
bottom_labelLayer
10
348.0795268
20
60.4651667
40
7.6813188
50
89.7326262
51
100.0759747
0
ARC
8
bottom_labelLayer
10
348.1813954
20
61.5010408
40
6.6456892
50
73.5222791
51
90.5692303
0
ARC
8
bottom_labelLayer
10
348.5711259
20
62.9170356
40
5.1773801
50
41.1445619
51
73.2133877
0
ARC
8
bottom_labelLayer
10
347.8271612
20
62.2776075
40
6.1583481
50
13.501438
51
41.070343
0
ARC
8
bottom_labelLayer
10
344.9528803
20
61.5254447
40
9.1290021
50
1.127711
51
13.8800128
0
ARC
8
bottom_labelLayer
10
342.4773174
20
61.3927696
40
11.6070001
50
359.9918994
51
1.5420087
0
ARC
8
bottom_labelLayer
10
354.1511599
20
61.3397329
40
10.0152167
50
179.7059707
51
187.9160792
0
ARC
8
bottom_labelLayer
10
350.477888
20
60.8120709
40
6.3042993
50
187.7639244
51
200.0976796
0
ARC
8
bottom_labelLayer
10
348.4542987
20
60.0706265
40
4.1491537
50
200.0845986
51
216.9131607
0
ARC
8
bottom_labelLayer
10
347.715354
20
59.5429856
40
3.2415041
50
217.3009582
51
261.7099075
0
ARC
8
bottom_labelLayer
10
348.0583966
20
61.1799444
40
4.9119087
50
260.5033073
51
270.2476789
0
ARC
8
bottom_labelLayer
10
348.1238733
20
60.8616381
40
4.5937695
50
269.448164
51
284.7255685
0
ARC
8
bottom_labelLayer
10
348.487535
20
59.5129347
40
3.1969384
50
284.5662297
51
322.6333792
0
ARC
8
bottom_labelLayer
10
347.6372699
20
60.1272121
40
4.2456061
50
323.0089388
51
342.6390324
0
ARC
8
bottom_labelLayer
10
345.2053589
20
60.92203
40
6.8039745
50
342.3615656
51
353.7537674
0
ARC
8
bottom_labelLayer
10
341.6174339
20
61.354506
40
10.4177289
50
353.5363199
51
0.2014183
0
ARC
8
bottom_labelLayer
10
342.1671663
20
61.4414945
40
9.8680607
50
359.7075648
51
7.8972678
0
ARC
8
bottom_labelLayer
10
345.781129
20
61.9595896
40
6.2172102
50
7.7439857
51
20.0690154
0
ARC
8
bottom_labelLayer
10
347.7949686
20
62.6985928
40
4.0720617
50
20.0257037
51
37.4350541
0
ARC
8
bottom_labelLayer
10
348.4631438
20
63.1727196
40
3.2534339
50
37.9577723
51
80.4006203
0
ARC
8
bottom_labelLayer
10
348.0834399
20
61.4785087
40
4.988087
50
79.3453639
51
90.3174688
0
ARC
8
bottom_labelLayer
10
348.0131331
20
61.7599353
40
4.7067774
50
89.4805875
51
103.8804984
0
ARC
8
bottom_labelLayer
10
347.6176434
20
63.2659618
40
3.1499337
50
103.4685301
51
142.3118837
0
ARC
8
bottom_labelLayer
10
348.3865059
20
62.7252427
40
4.0891663
50
142.9025635
51
162.3749647
0
ARC
8
bottom_labelLayer
10
350.8092224
20
61.91788
40
6.6427121
50
162.0653272
51
173.1674713
0
ARC
8
bottom_labelLayer
10
354.586858
20
61.436068
40
10.4508795
50
173.0086264
51
180.2463762
0
LINE
8
bottom_labelLayer
10
363.555997
20
56.4825348
11
363.555997
21
54.9694489
0
LINE
8
bottom_labelLayer
10
357.6942782
20
58.603238
11
357.6942782
21
66.3712067
0
LINE
8
bottom_labelLayer
10
357.6942782
20
66.3712067
11
355.8237704
21
66.3712067
0
LINE
8
bottom_labelLayer
10
355.8237704
20
66.3712067
11
355.8237704
21
67.3243317
0
LINE
8
bottom_labelLayer
10
355.8237704
20
67.3243317
11
357.6942782
21
68.146402
0
LINE
8
bottom_labelLayer
10
357.6942782
20
68.146402
11
358.5282626
21
70.9342927
0
LINE
8
bottom_labelLayer
10
358.5282626
20
70.9342927
11
359.6720126
21
70.9342927
0
LINE
8
bottom_labelLayer
10
359.6720126
20
70.9342927
11
359.6720126
21
67.9081208
0
LINE
8
bottom_labelLayer
10
359.6720126
20
67.9081208
11
363.4606845
21
67.9081208
0
LINE
8
bottom_labelLayer
10
363.4606845
20
67.9081208
11
363.4606845
21
66.3712067
0
LINE
8
bottom_labelLayer
10
363.4606845
20
66.3712067
11
359.6720126
21
66.3712067
0
LINE
8
bottom_labelLayer
10
359.6720126
20
66.3712067
11
359.6720126
21
58.6866364
0
ARC
8
bottom_labelLayer
10
361.7824493
20
62.7394079
40
6.4951684
50
269.880368
51
278.3028219
0
ARC
8
bottom_labelLayer
10
361.8439595
20
62.236319
40
5.9884818
50
278.4155579
51
279.007928
0
ARC
8
bottom_labelLayer
10
361.1156173
20
66.8892151
40
10.6980336
50
278.9589238
51
280.5104716
0
ARC
8
bottom_labelLayer
10
361.8100715
20
63.1631105
40
6.9077687
50
280.4847245
51
282.6268248
0
ARC
8
bottom_labelLayer
10
362.4191642
20
60.4570991
40
4.1340567
50
282.587644
51
285.5794576
0
ARC
8
bottom_labelLayer
10
362.724253
20
59.3349577
40
2.9712143
50
285.7240663
51
286.2562675
0
ARC
8
bottom_labelLayer
10
362.7245006
20
56.728112
40
1.9453231
50
287.9888462
51
295.3047958
0
ARC
8
bottom_labelLayer
10
362.2553099
20
58.1476269
40
3.4403574
50
283.3069627
51
288.1198078
0
ARC
8
bottom_labelLayer
10
361.7596491
20
60.2151983
40
5.5665052
50
280.0070099
51
283.3734963
0
ARC
8
bottom_labelLayer
10
361.4280716
20
62.0145612
40
7.3961243
50
279.1863163
51
280.1143816
0
ARC
8
bottom_labelLayer
10
361.2244528
20
63.1727804
40
8.5720106
50
275.5260373
51
279.2939486
0
ARC
8
bottom_labelLayer
10
361.4538512
20
60.776706
40
6.1649816
50
270.893246
51
275.5483898
0
ARC
8
bottom_labelLayer
10
361.4826867
20
59.6789904
40
5.0669634
50
270.0029785
51
270.7607284
0
ARC
8
bottom_labelLayer
10
361.4031424
20
59.7769614
40
5.165551
50
253.7847902
51
270.8852545
0
ARC
8
bottom_labelLayer
10
360.7911622
20
57.6898768
40
2.9906024
50
190.3817708
51
253.877236
0
ARC
8
bottom_labelLayer
10
363.9104173
20
58.5332687
40
6.216533
50
179.3551021
51
192.8477672
0
ARC
8
bottom_labelLayer
10
363.6544392
20
58.6617288
40
3.9825046
50
179.6416558
51
189.750581
0
ARC
8
bottom_labelLayer
10
362.2485285
20
58.4109673
40
2.5544502
50
189.5479327
51
205.7873927
0
ARC
8
bottom_labelLayer
10
361.6707749
20
58.1445467
40
1.9183649
50
206.1294578
51
221.4083741
0
ARC
8
bottom_labelLayer
10
361.6059876
20
58.0953875
40
1.8372684
50
221.594912
51
262.3505129
0
ARC
8
bottom_labelLayer
10
361.7600623
20
58.8876945
40
2.6434558
50
261.3266023
51
270.1912837
0
LINE
8
bottom_labelLayer
10
372.1698641
20
56.4825348
11
372.1698641
21
54.9694489
0
LINE
8
bottom_labelLayer
10
366.3081454
20
58.603238
11
366.3081454
21
66.3712067
0
LINE
8
bottom_labelLayer
10
366.3081454
20
66.3712067
11
364.4376376
21
66.3712067
0
LINE
8
bottom_labelLayer
10
364.4376376
20
66.3712067
11
364.4376376
21
67.3243317
0
LINE
8
bottom_labelLayer
10
364.4376376
20
67.3243317
11
366.3081454
21
68.146402
0
LINE
8
bottom_labelLayer
10
366.3081454
20
68.146402
11
367.1421298
21
70.9342927
0
LINE
8
bottom_labelLayer
10
367.1421298
20
70.9342927
11
368.2858798
21
70.9342927
0
LINE
8
bottom_labelLayer
10
368.2858798
20
70.9342927
11
368.2858798
21
67.9081208
0
LINE
8
bottom_labelLayer
10
368.2858798
20
67.9081208
11
372.0745516
21
67.9081208
0
LINE
8
bottom_labelLayer
10
372.0745516
20
67.9081208
11
372.0745516
21
66.3712067
0
LINE
8
bottom_labelLayer
10
372.0745516
20
66.3712067
11
368.2858798
21
66.3712067
0
LINE
8
bottom_labelLayer
10
368.2858798
20
66.3712067
11
368.2858798
21
58.6866364
0
ARC
8
bottom_labelLayer
10
370.3963165
20
62.7394079
40
6.4951684
50
269.880368
51
278.3028219
0
ARC
8
bottom_labelLayer
10
370.4578267
20
62.236319
40
5.9884818
50
278.4155579
51
279.007928
0
ARC
8
bottom_labelLayer
10
369.7294845
20
66.8892151
40
10.6980336
50
278.9589238
51
280.5104716
0
ARC
8
bottom_labelLayer
10
370.4239387
20
63.1631105
40
6.9077687
50
280.4847245
51
282.6268248
0
ARC
8
bottom_labelLayer
10
371.0330313
20
60.4570991
40
4.1340567
50
282.587644
51
285.5794576
0
ARC
8
bottom_labelLayer
10
371.3381201
20
59.3349577
40
2.9712143
50
285.7240663
51
286.2562675
0
ARC
8
bottom_labelLayer
10
371.3383678
20
56.728112
40
1.9453231
50
287.9888462
51
295.3047958
0
ARC
8
bottom_labelLayer
10
370.8691771
20
58.1476269
40
3.4403574
50
283.3069627
51
288.1198078
0
ARC
8
bottom_labelLayer
10
370.3735163
20
60.2151983
40
5.5665052
50
280.0070099
51
283.3734963
0
ARC
8
bottom_labelLayer
10
370.0419387
20
62.0145612
40
7.3961243
50
279.1863163
51
280.1143816
0
ARC
8
bottom_labelLayer
10
369.83832
20
63.1727804
40
8.5720106
50
275.5260373
51
279.2939486
0
ARC
8
bottom_labelLayer
10
370.0677184
20
60.776706
40
6.1649816
50
270.893246
51
275.5483898
0
ARC
8
bottom_labelLayer
10
370.0965539
20
59.6789904
40
5.0669634
50
270.0029785
51
270.7607284
0
ARC
8
bottom_labelLayer
10
370.0170096
20
59.7769614
40
5.165551
50
253.7847902
51
270.8852545
0
ARC
8
bottom_labelLayer
10
369.4050294
20
57.6898768
40
2.9906024
50
190.3817708
51
253.877236
0
ARC
8
bottom_labelLayer
10
372.5242845
20
58.5332687
40
6.216533
50
179.3551021
51
192.8477672
0
ARC
8
bottom_labelLayer
10
372.2683064
20
58.6617288
40
3.9825046
50
179.6416558
51
189.750581
0
ARC
8
bottom_labelLayer
10
370.8623957
20
58.4109673
40
2.5544502
50
189.5479327
51
205.7873927
0
ARC
8
bottom_labelLayer
10
370.284642
20
58.1445467
40
1.9183649
50
206.1294578
51
221.4083741
0
ARC
8
bottom_labelLayer
10
370.2198548
20
58.0953875
40
1.8372684
50
221.594912
51
262.3505129
0
ARC
8
bottom_labelLayer
10
370.3739295
20
58.8876945
40
2.6434558
50
261.3266023
51
270.1912837
0
ARC
8
bottom_labelLayer
10
375.8341589
20
61.3222595
40
10.2158202
50
349.1761988
51
0.3862574
0
ARC
8
bottom_labelLayer
10
379.2735942
20
60.6366025
40
6.7088723
50
330.2507037
51
349.4116503
0
ARC
8
bottom_labelLayer
10
380.3320631
20
60.0864545
40
5.5171229
50
318.1439812
51
329.756604
0
ARC
8
bottom_labelLayer
10
380.5231122
20
59.9333482
40
5.2726804
50
278.8959228
51
317.997909
0
ARC
8
bottom_labelLayer
10
380.030875
20
62.2916985
40
7.6797443
50
269.7502786
51
279.8033273
0
ARC
8
bottom_labelLayer
10
379.9510423
20
60.9629197
40
6.3510619
50
253.5436991
51
270.4182461
0
ARC
8
bottom_labelLayer
10
379.7396271
20
60.1451122
40
5.5069403
50
238.8115495
51
253.2428374
0
ARC
8
bottom_labelLayer
10
379.6713989
20
60.0079047
40
5.3542463
50
207.7947094
51
238.6757919
0
ARC
8
bottom_labelLayer
10
380.6504334
20
60.6075212
40
6.500348
50
205.6560339
51
208.4461548
0
ARC
8
bottom_labelLayer
10
381.4045777
20
60.9217473
40
7.3163185
50
188.9102491
51
205.3171469
0
ARC
8
bottom_labelLayer
10
383.9460286
20
61.3521854
40
9.8938192
50
179.7744766
51
189.0932796
0
ARC
8
bottom_labelLayer
10
384.3209133
20
61.4606814
40
10.2688628
50
169.2442968
51
180.3880773
0
ARC
8
bottom_labelLayer
10
380.8336826
20
62.1499812
40
6.7143099
50
150.7111401
51
169.4695502
0
ARC
8
bottom_labelLayer
10
379.7204615
20
62.7216608
40
5.4639187
50
138.1759476
51
150.2287328
0
ARC
8
bottom_labelLayer
10
379.5352796
20
62.8637657
40
5.2311895
50
99.1759336
51
137.9832707
0
ARC
8
bottom_labelLayer
10
380.0449565
20
60.4651667
40
7.6813188
50
89.7326262
51
100.0759747
0
ARC
8
bottom_labelLayer
10
380.1468251
20
61.5010408
40
6.6456892
50
73.5222791
51
90.5692303
0
ARC
8
bottom_labelLayer
10
380.5365556
20
62.9170356
40
5.1773801
50
41.1445619
51
73.2133877
0
ARC
8
bottom_labelLayer
10
379.7925909
20
62.2776075
40
6.1583481
50
13.501438
51
41.070343
0
ARC
8
bottom_labelLayer
10
376.91831
20
61.5254447
40
9.1290021
50
1.127711
51
13.8800128
0
ARC
8
bottom_labelLayer
10
374.442747
20
61.3927696
40
11.6070001
50
359.9918994
51
1.5420087
0
ARC
8
bottom_labelLayer
10
386.1165896
20
61.3397329
40
10.0152167
50
179.7059707
51
187.9160792
0
ARC
8
bottom_labelLayer
10
382.4433177
20
60.8120709
40
6.3042993
50
187.7639244
51
200.0976796
0
ARC
8
bottom_labelLayer
10
380.4197284
20
60.0706265
40
4.1491537
50
200.0845986
51
216.9131607
0
ARC
8
bottom_labelLayer
10
379.6807837
20
59.5429856
40
3.2415041
50
217.3009582
51
261.7099075
0
ARC
8
bottom_labelLayer
10
380.0238263
20
61.1799444
40
4.9119087
50
260.5033073
51
270.2476789
0
ARC
8
bottom_labelLayer
10
380.089303
20
60.8616381
40
4.5937695
50
269.448164
51
284.7255685
0
ARC
8
bottom_labelLayer
10
380.4529646
20
59.5129347
40
3.1969384
50
284.5662297
51
322.6333792
0
ARC
8
bottom_labelLayer
10
379.6026996
20
60.1272121
40
4.2456061
50
323.0089388
51
342.6390324
0
ARC
8
bottom_labelLayer
10
377.1707886
20
60.92203
40
6.8039745
50
342.3615656
51
353.7537674
0
ARC
8
bottom_labelLayer
10
373.5828636
20
61.354506
40
10.4177289
50
353.5363199
51
0.2014183
0
ARC
8
bottom_labelLayer
10
374.132596
20
61.4414945
40
9.8680607
50
359.7075648
51
7.8972678
0
ARC
8
bottom_labelLayer
10
377.7465587
20
61.9595896
40
6.2172102
50
7.7439857
51
20.0690154
0
ARC
8
bottom_labelLayer
10
379.7603983
20
62.6985928
40
4.0720617
50
20.0257037
51
37.4350541
0
ARC
8
bottom_labelLayer
10
380.4285735
20
63.1727196
40
3.2534339
50
37.9577723
51
80.4006203
0
ARC
8
bottom_labelLayer
10
380.0488696
20
61.4785087
40
4.988087
50
79.3453639
51
90.3174688
0
ARC
8
bottom_labelLayer
10
379.9785628
20
61.7599353
40
4.7067774
50
89.4805875
51
103.8804984
0
ARC
8
bottom_labelLayer
10
379.5830731
20
63.2659618
40
3.1499337
50
103.4685301
51
142.3118837
0
ARC
8
bottom_labelLayer
10
380.3519356
20
62.7252427
40
4.0891663
50
142.9025635
51
162.3749647
0
ARC
8
bottom_labelLayer
10
382.7746521
20
61.91788
40
6.6427121
50
162.0653272
51
173.1674713
0
ARC
8
bottom_labelLayer
10
386.5522877
20
61.436068
40
10.4508795
50
173.0086264
51
180.2463762
0
LINE
8
bottom_labelLayer
10
408.1384188
20
54.8503083
11
406.1606845
21
54.8503083
0
LINE
8
bottom_labelLayer
10
406.1606845
20
54.8503083
11
406.1606845
21
63.3450348
0
LINE
8
bottom_labelLayer
10
399.8104891
20
62.1417145
11
399.8104891
21
54.8503083
0
LINE
8
bottom_labelLayer
10
399.8104891
20
54.8503083
11
397.8327548
21
54.8503083
0
LINE
8
bottom_labelLayer
10
397.8327548
20
54.8503083
11
397.8327548
21
63.3450348
0
LINE
8
bottom_labelLayer
10
391.4944735
20
61.7008942
11
391.4944735
21
54.8503083
0
LINE
8
bottom_labelLayer
10
391.4944735
20
54.8503083
11
389.5167391
21
54.8503083
0
LINE
8
bottom_labelLayer
10
389.5167391
20
54.8503083
11
389.5167391
21
67.9081208
0
LINE
8
bottom_labelLayer
10
389.5167391
20
67.9081208
11
391.1251376
21
67.9081208
0
LINE
8
bottom_labelLayer
10
391.1251376
20
67.9081208
11
391.4468173
21
66.1210114
0
LINE
8
bottom_labelLayer
10
391.4468173
20
66.1210114
11
391.5421298
21
66.1210114
0
LINE
8
bottom_labelLayer
10
399.405411
20
65.9303864
11
399.5007235
21
65.9303864
0
LINE
8
bottom_labelLayer
10
408.1384188
20
63.368863
11
408.1384188
21
54.8503083
0
ARC
8
bottom_labelLayer
10
400.3262948
20
63.3761102
40
5.8344724
50
359.6948315
51
8.1471496
0
ARC
8
bottom_labelLayer
10
402.475306
20
63.6941387
40
3.6620951
50
7.9864741
51
20.7949438
0
ARC
8
bottom_labelLayer
10
403.6632293
20
64.1491869
40
2.3900062
50
20.7071265
51
40.0217494
0
ARC
8
bottom_labelLayer
10
403.9238347
20
64.3196977
40
2.0811118
50
41.0408053
51
73.1792831
0
ARC
8
bottom_labelLayer
10
403.546743
20
63.1791793
40
3.2821008
50
72.6395571
51
86.2567915
0
ARC
8
bottom_labelLayer
10
403.4259437
20
61.8757152
40
4.5908074
50
85.8144119
51
90.0685635
0
ARC
8
bottom_labelLayer
10
403.3815584
20
61.3776444
40
5.0890235
50
89.5621263
51
101.2961584
0
ARC
8
bottom_labelLayer
10
402.9982693
20
63.2125833
40
3.2145944
50
101.0032181
51
121.7840417
0
ARC
8
bottom_labelLayer
10
402.7068763
20
63.7328051
40
2.6190351
50
122.3597406
51
140.2884236
0
ARC
8
bottom_labelLayer
10
403.2311261
20
63.3484059
40
3.2681624
50
140.9765244
51
161.1699387
0
ARC
8
bottom_labelLayer
10
405.2060895
20
62.6455612
40
5.3643495
50
160.8731728
51
172.527254
0
ARC
8
bottom_labelLayer
10
408.5062169
20
62.1897885
40
8.6957534
50
172.3776516
51
180.1829607
0
ARC
8
bottom_labelLayer
10
410.7639987
20
62.1418345
40
10.9535094
50
179.8944095
51
180.0006273
0
ARC
8
bottom_labelLayer
10
391.9983651
20
63.3761102
40
5.8344724
50
359.6948315
51
8.1471496
0
ARC
8
bottom_labelLayer
10
394.1473763
20
63.6941387
40
3.6620951
50
7.9864741
51
20.7949438
0
ARC
8
bottom_labelLayer
10
395.3352996
20
64.1491869
40
2.3900062
50
20.7071265
51
40.0217494
0
ARC
8
bottom_labelLayer
10
395.6013224
20
64.3234408
40
2.0745682
50
41.0610727
51
72.8993524
0
ARC
8
bottom_labelLayer
10
395.2170898
20
63.1795352
40
3.2810307
50
72.3601162
51
85.9561878
0
ARC
8
bottom_labelLayer
10
395.0870203
20
61.8352784
40
4.6312452
50
85.5238006
51
90.0793507
0
ARC
8
bottom_labelLayer
10
395.0426557
20
61.5545301
40
4.9121357
50
89.5573348
51
101.483199
0
ARC
8
bottom_labelLayer
10
394.6656316
20
63.3209765
40
3.1060409
50
101.1546254
51
123.0655678
0
ARC
8
bottom_labelLayer
10
394.4093533
20
63.7674023
40
2.5922501
50
123.7020507
51
142.3022043
0
ARC
8
bottom_labelLayer
10
395.0096659
20
63.3601419
40
3.3165872
50
143.0769577
51
161.3914051
0
ARC
8
bottom_labelLayer
10
397.4295274
20
62.5055021
40
5.8827778
50
161.0234582
51
171.4469105
0
ARC
8
bottom_labelLayer
10
401.4355305
20
61.8779754
40
9.9375884
50
171.3042022
51
178.3501679
0
ARC
8
bottom_labelLayer
10
405.2642233
20
61.7069791
40
13.7697511
50
178.0976223
51
180.0253192
0
ARC
8
bottom_labelLayer
10
394.892679
20
64.1507232
40
3.8869289
50
117.1209542
51
149.5423722
0
ARC
8
bottom_labelLayer
10
395.2893731
20
63.44565
40
4.6954243
50
93.8343232
51
117.5072139
0
ARC
8
bottom_labelLayer
10
395.3989375
20
62.4752073
40
5.6711957
50
89.9661698
51
94.2831418
0
ARC
8
bottom_labelLayer
10
395.4645894
20
61.6715971
40
6.4751047
50
77.5572126
51
90.5513082
0
ARC
8
bottom_labelLayer
10
396.0654077
20
64.2558229
40
3.8222399
50
52.7027057
51
78.0053721
0
ARC
8
bottom_labelLayer
10
396.2794694
20
64.65409
40
3.3764543
50
22.2097915
51
51.4970602
0
ARC
8
bottom_labelLayer
10
403.0834755
20
63.8771035
40
4.1294168
50
119.404176
51
150.1828845
0
ARC
8
bottom_labelLayer
10
403.5411315
20
63.1812266
40
4.9606715
50
118.2582305
51
120.0630845
0
ARC
8
bottom_labelLayer
10
403.5401427
20
63.129755
40
5.0056044
50
95.863508
51
117.9693246
0
ARC
8
bottom_labelLayer
10
403.7095513
20
61.9048233
40
6.2415848
50
89.9196742
51
96.2617664
0
ARC
8
bottom_labelLayer
10
403.7639406
20
61.2718379
40
6.8747156
50
79.9361042
51
90.3803703
0
ARC
8
bottom_labelLayer
10
404.2220142
20
63.7527114
40
4.3520026
50
62.9723221
51
80.1665249
0
ARC
8
bottom_labelLayer
10
404.7008661
20
64.7351304
40
3.2593366
50
44.2290147
51
62.6229102
0
ARC
8
bottom_labelLayer
10
404.5584426
20
64.6722142
40
3.4057093
50
19.5612119
51
43.3161138
0
ARC
8
bottom_labelLayer
10
402.4900079
20
63.8953086
40
5.6150206
50
7.5041882
51
19.9645353
0
ARC
8
bottom_labelLayer
10
399.0673163
20
63.414661
40
9.071218
50
359.7107287
51
7.6907195
0
ENDSEC
0
EOF