999
"DXF R12 Output" (www.mydxf.blogspot.com)
 0 
SECTION
 2 
HEADER
 9 
$ACADVER
 1 
AC1009
 9 
$EXTMIN
 10 
 0 
 20 
 0 
 9 
$EXTMAX
 10 
 8.5 
 20 
 11 
 0 
ENDSEC
 0 
SECTION
 2 
ENTITIES
0
LINE
8
Camada 1
10
51.200400
20
74.322800
11
50.098979
21
74.954803
0
LINE
8
Camada 1
10
50.098979
20
74.954803
11
49.103480
21
75.762206
0
LINE
8
Camada 1
10
49.103480
20
75.762206
11
48.241099
21
76.719184
0
LINE
8
Camada 1
10
48.241099
20
76.719184
11
47.539030
21
77.799910
0
LINE
8
Camada 1
10
47.539030
20
77.799910
11
47.207503
21
78.747518
0
LINE
8
Camada 1
10
47.207503
20
78.747518
11
47.022919
21
81.345397
0
LINE
8
Camada 1
10
47.022919
20
81.345397
11
46.834775
21
99.495710
0
LINE
8
Camada 1
10
46.834775
20
99.495710
11
46.702483
21
120.133210
0
LINE
8
Camada 1
10
46.702483
20
120.133210
11
31.356683
21
120.265500
0
LINE
8
Camada 1
10
31.356683
20
120.265500
11
17.876058
21
120.455528
0
LINE
8
Camada 1
10
17.876058
20
120.455528
11
15.824033
21
120.641306
0
LINE
8
Camada 1
10
15.824033
20
120.641306
11
14.938483
21
120.971880
0
LINE
8
Camada 1
10
14.938483
20
120.971880
11
13.947728
21
121.612443
0
LINE
8
Camada 1
10
13.947728
20
121.612443
11
13.021867
21
122.423664
0
LINE
8
Camada 1
10
13.021867
20
122.423664
11
12.208616
21
123.357658
0
LINE
8
Camada 1
10
12.208616
20
123.357658
11
11.555693
21
124.366540
0
LINE
8
Camada 1
10
11.555693
20
124.366540
11
10.983730
21
125.424880
0
LINE
8
Camada 1
10
10.983730
20
125.424880
11
10.983800
21
200.434000
0
LINE
8
Camada 1
10
10.983800
20
200.434000
11
10.983800
21
275.444000
0
LINE
8
Camada 1
10
10.983800
20
275.444000
11
11.552141
21
276.502330
0
LINE
8
Camada 1
10
11.552141
20
276.502330
11
12.229617
21
277.547119
0
LINE
8
Camada 1
10
12.229617
20
277.547119
11
13.079880
21
278.524391
0
LINE
8
Camada 1
10
13.079880
20
278.524391
11
14.025241
21
279.355888
0
LINE
8
Camada 1
10
14.025241
20
279.355888
11
14.988011
21
279.963350
0
LINE
8
Camada 1
10
14.988011
20
279.963350
11
15.574271
21
280.128045
0
LINE
8
Camada 1
10
15.574271
20
280.128045
11
17.264156
21
280.252626
0
LINE
8
Camada 1
10
17.264156
20
280.252626
11
28.052945
21
280.403831
0
LINE
8
Camada 1
10
28.052945
20
280.403831
11
107.953611
21
280.471078
0
LINE
8
Camada 1
10
107.953611
20
280.471078
11
187.177211
21
280.403893
0
LINE
8
Camada 1
10
187.177211
20
280.403893
11
198.372674
21
280.260334
0
LINE
8
Camada 1
10
198.372674
20
280.260334
11
200.225664
21
280.143687
0
LINE
8
Camada 1
10
200.225664
20
280.143687
11
200.861911
21
279.990507
0
LINE
8
Camada 1
10
200.861911
20
279.990507
11
201.829723
21
279.373952
0
LINE
8
Camada 1
10
201.829723
20
279.373952
11
202.802202
21
278.519280
0
LINE
8
Camada 1
10
202.802202
20
278.519280
11
203.677551
21
277.528177
0
LINE
8
Camada 1
10
203.677551
20
277.528177
11
204.353971
21
276.502327
0
LINE
8
Camada 1
10
204.353971
20
276.502327
11
204.923361
21
275.443997
0
LINE
8
Camada 1
10
204.923361
20
275.443997
11
204.923000
21
200.434000
0
LINE
8
Camada 1
10
204.923000
20
200.434000
11
204.923000
21
125.425000
0
LINE
8
Camada 1
10
204.923000
20
125.425000
11
204.351030
21
124.366660
0
LINE
8
Camada 1
10
204.351030
20
124.366660
11
203.698113
21
123.357778
0
LINE
8
Camada 1
10
203.698113
20
123.357778
11
202.884865
21
122.423784
0
LINE
8
Camada 1
10
202.884865
20
122.423784
11
201.959004
21
121.612563
0
LINE
8
Camada 1
10
201.959004
20
121.612563
11
200.968250
21
120.972000
0
LINE
8
Camada 1
10
200.968250
20
120.972000
11
200.082699
21
120.641426
0
LINE
8
Camada 1
10
200.082699
20
120.641426
11
198.030671
21
120.455647
0
LINE
8
Camada 1
10
198.030671
20
120.455647
11
184.550050
21
120.265620
0
LINE
8
Camada 1
10
184.550050
20
120.265620
11
169.204250
21
120.133330
0
LINE
8
Camada 1
10
169.204250
20
120.133330
11
169.071960
21
99.495830
0
LINE
8
Camada 1
10
169.071960
20
99.495830
11
168.883814
21
81.345517
0
LINE
8
Camada 1
10
168.883814
20
81.345517
11
168.699229
21
78.747638
0
LINE
8
Camada 1
10
168.699229
20
78.747638
11
168.367700
21
77.800030
0
LINE
8
Camada 1
10
168.367700
20
77.800030
11
167.665631
21
76.719304
0
LINE
8
Camada 1
10
167.665631
20
76.719304
11
166.803250
21
75.762326
0
LINE
8
Camada 1
10
166.803250
20
75.762326
11
165.807751
21
74.954923
0
LINE
8
Camada 1
10
165.807751
20
74.954923
11
164.706330
21
74.322920
0
LINE
8
Camada 1
10
164.706330
20
74.322920
11
163.383410
21
73.704160
0
LINE
8
Camada 1
10
163.383410
20
73.704160
11
107.954000
21
73.704000
0
LINE
8
Camada 1
10
107.954000
20
73.704000
11
52.523400
21
73.704000
0
LINE
8
Camada 1
10
52.523400
20
73.704000
11
51.200400
21
74.322800
0
LINE
8
Camada 1
10
163.193400
20
75.332590
11
164.424334
21
75.856086
0
LINE
8
Camada 1
10
164.424334
20
75.856086
11
165.647580
21
76.863250
0
LINE
8
Camada 1
10
165.647580
20
76.863250
11
166.396667
21
77.518746
0
LINE
8
Camada 1
10
166.396667
20
77.518746
11
166.943995
21
78.304271
0
LINE
8
Camada 1
10
166.943995
20
78.304271
11
167.320864
21
80.029583
0
LINE
8
Camada 1
10
167.320864
20
80.029583
11
167.558575
21
83.504439
0
LINE
8
Camada 1
10
167.558575
20
83.504439
11
167.741725
21
98.941812
0
LINE
8
Camada 1
10
167.741725
20
98.941812
11
167.743850
21
131.094450
0
LINE
8
Camada 1
10
167.743850
20
131.094450
11
167.670484
21
174.530250
0
LINE
8
Camada 1
10
167.670484
20
174.530250
11
167.525855
21
180.883266
0
LINE
8
Camada 1
10
167.525855
20
180.883266
11
167.409149
21
182.050843
0
LINE
8
Camada 1
10
167.409149
20
182.050843
11
167.256220
21
182.577150
0
LINE
8
Camada 1
10
167.256220
20
182.577150
11
166.678953
21
183.509598
0
LINE
8
Camada 1
10
166.678953
20
183.509598
11
165.844863
21
184.428761
0
LINE
8
Camada 1
10
165.844863
20
184.428761
11
164.871096
21
185.223576
0
LINE
8
Camada 1
10
164.871096
20
185.223576
11
163.874800
21
185.782980
0
LINE
8
Camada 1
10
163.874800
20
185.782980
11
158.749019
21
185.961296
0
LINE
8
Camada 1
10
158.749019
20
185.961296
11
146.033725
21
186.088665
0
LINE
8
Camada 1
10
146.033725
20
186.088665
11
107.953928
21
186.190560
0
LINE
8
Camada 1
10
107.953928
20
186.190560
11
69.874067
21
186.088665
0
LINE
8
Camada 1
10
69.874067
20
186.088665
11
57.158693
21
185.961296
0
LINE
8
Camada 1
10
57.158693
20
185.961296
11
52.032800
21
185.782980
0
LINE
8
Camada 1
10
52.032800
20
185.782980
11
51.036504
21
185.223576
0
LINE
8
Camada 1
10
51.036504
20
185.223576
11
50.062738
21
184.428761
0
LINE
8
Camada 1
10
50.062738
20
184.428761
11
49.228648
21
183.509598
0
LINE
8
Camada 1
10
49.228648
20
183.509598
11
48.651380
21
182.577150
0
LINE
8
Camada 1
10
48.651380
20
182.577150
11
48.498404
21
182.049170
0
LINE
8
Camada 1
10
48.498404
20
182.049170
11
48.381641
21
180.873220
0
LINE
8
Camada 1
10
48.381641
20
180.873220
11
48.236912
21
174.462515
0
LINE
8
Camada 1
10
48.236912
20
174.462515
11
48.163748
21
130.601650
0
LINE
8
Camada 1
10
48.163748
20
130.601650
11
48.226969
21
86.145387
0
LINE
8
Camada 1
10
48.226969
20
86.145387
11
48.382862
21
80.106180
0
LINE
8
Camada 1
10
48.382862
20
80.106180
11
48.512428
21
79.079732
0
LINE
8
Camada 1
10
48.512428
20
79.079732
11
48.684236
21
78.599550
0
LINE
8
Camada 1
10
48.684236
20
78.599550
11
49.316801
21
77.565923
0
LINE
8
Camada 1
10
49.316801
20
77.565923
11
50.133742
21
76.643226
0
LINE
8
Camada 1
10
50.133742
20
76.643226
11
51.061722
21
75.901416
0
LINE
8
Camada 1
10
51.061722
20
75.901416
11
52.027406
21
75.410450
0
LINE
8
Camada 1
10
52.027406
20
75.410450
11
54.641596
21
75.223696
0
LINE
8
Camada 1
10
54.641596
20
75.223696
11
62.977391
21
75.110710
0
LINE
8
Camada 1
10
62.977391
20
75.110710
11
107.505906
21
75.033360
0
LINE
8
Camada 1
10
107.505906
20
75.033360
11
150.323819
21
75.092135
0
LINE
8
Camada 1
10
150.323819
20
75.092135
11
159.847051
21
75.186163
0
LINE
8
Camada 1
10
159.847051
20
75.186163
11
163.193406
21
75.332560
0
LINE
8
Camada 1
10
163.193406
20
75.332560
11
163.193400
21
75.332590
0
LINE
8
Camada 1
10
58.281100
20
81.511900
11
57.720992
21
82.178561
0
LINE
8
Camada 1
10
57.720992
20
82.178561
11
57.379464
21
83.405496
0
LINE
8
Camada 1
10
57.379464
20
83.405496
11
57.213844
21
85.469620
0
LINE
8
Camada 1
10
57.213844
20
85.469620
11
57.181460
21
88.647850
0
LINE
8
Camada 1
10
57.181460
20
88.647850
11
57.343844
21
93.519447
0
LINE
8
Camada 1
10
57.343844
20
93.519447
11
57.627228
21
94.522049
0
LINE
8
Camada 1
10
57.627228
20
94.522049
11
58.144049
21
95.245260
0
LINE
8
Camada 1
10
58.144049
20
95.245260
11
58.737610
21
95.923900
0
LINE
8
Camada 1
10
58.737610
20
95.923900
11
67.736900
21
95.923900
0
LINE
8
Camada 1
10
67.736900
20
95.923900
11
76.736200
21
95.923900
0
LINE
8
Camada 1
10
76.736200
20
95.923900
11
77.329761
21
95.245260
0
LINE
8
Camada 1
10
77.329761
20
95.245260
11
77.846581
21
94.522049
0
LINE
8
Camada 1
10
77.846581
20
94.522049
11
78.129965
21
93.519448
0
LINE
8
Camada 1
10
78.129965
20
93.519448
11
78.292350
21
88.647850
0
LINE
8
Camada 1
10
78.292350
20
88.647850
11
78.259967
21
85.469620
0
LINE
8
Camada 1
10
78.259967
20
85.469620
11
78.094347
21
83.405496
0
LINE
8
Camada 1
10
78.094347
20
83.405496
11
77.752820
21
82.178561
0
LINE
8
Camada 1
10
77.752820
20
82.178561
11
77.192710
21
81.511900
0
LINE
8
Camada 1
10
77.192710
20
81.511900
11
76.167458
21
81.313315
0
LINE
8
Camada 1
10
76.167458
20
81.313315
11
73.994744
21
81.171469
0
LINE
8
Camada 1
10
73.994744
20
81.171469
11
67.736873
21
81.057993
0
LINE
8
Camada 1
10
67.736873
20
81.057993
11
61.478996
21
81.171469
0
LINE
8
Camada 1
10
61.478996
20
81.171469
11
59.306273
21
81.313315
0
LINE
8
Camada 1
10
59.306273
20
81.313315
11
58.281010
21
81.511900
0
LINE
8
Camada 1
10
58.281010
20
81.511900
11
58.281100
21
81.511900
0
LINE
8
Camada 1
10
72.157400
20
85.176450
11
76.445580
21
88.445580
0
LINE
8
Camada 1
10
76.445580
20
88.445580
11
72.227110
21
91.655570
0
LINE
8
Camada 1
10
72.227110
20
91.655570
11
67.736920
21
94.865560
0
LINE
8
Camada 1
10
67.736920
20
94.865560
11
63.246730
21
91.655570
0
LINE
8
Camada 1
10
63.246730
20
91.655570
11
59.028260
21
88.445580
0
LINE
8
Camada 1
10
59.028260
20
88.445580
11
63.316440
21
85.176450
0
LINE
8
Camada 1
10
63.316440
20
85.176450
11
67.736910
21
81.907320
0
LINE
8
Camada 1
10
67.736910
20
81.907320
11
72.157390
21
85.176450
0
LINE
8
Camada 1
10
72.157390
20
85.176450
11
72.157400
21
85.176450
0
LINE
8
Camada 1
10
66.682800
20
84.818240
11
65.676139
21
85.265167
0
LINE
8
Camada 1
10
65.676139
20
85.265167
11
64.831028
21
86.029695
0
LINE
8
Camada 1
10
64.831028
20
86.029695
11
64.249290
21
86.988818
0
LINE
8
Camada 1
10
64.249290
20
86.988818
11
64.032750
21
88.019530
0
LINE
8
Camada 1
10
64.032750
20
88.019530
11
64.032700
21
89.118700
0
LINE
8
Camada 1
10
64.032700
20
89.118700
11
65.457180
21
88.971680
0
LINE
8
Camada 1
10
65.457180
20
88.971680
11
66.787775
21
88.696826
0
LINE
8
Camada 1
10
66.787775
20
88.696826
11
68.187946
21
88.187110
0
LINE
8
Camada 1
10
68.187946
20
88.187110
11
69.444840
21
87.535561
0
LINE
8
Camada 1
10
69.444840
20
87.535561
11
70.345600
21
86.835210
0
LINE
8
Camada 1
10
70.345600
20
86.835210
11
70.938708
21
86.203870
0
LINE
8
Camada 1
10
70.938708
20
86.203870
11
70.111240
21
85.507610
0
LINE
8
Camada 1
10
70.111240
20
85.507610
11
69.383717
21
85.015869
0
LINE
8
Camada 1
10
69.383717
20
85.015869
11
68.796540
21
84.811340
0
LINE
8
Camada 1
10
68.796540
20
84.811340
11
67.956946
21
84.706630
0
LINE
8
Camada 1
10
67.956946
20
84.706630
11
66.682746
21
84.818180
0
LINE
8
Camada 1
10
66.682746
20
84.818180
11
66.682800
21
84.818240
0
LINE
8
Camada 1
10
70.336510
20
88.373770
11
69.172820
21
89.049701
0
LINE
8
Camada 1
10
69.172820
20
89.049701
11
67.895675
21
89.599064
0
LINE
8
Camada 1
10
67.895675
20
89.599064
11
66.652588
21
89.968102
0
LINE
8
Camada 1
10
66.652588
20
89.968102
11
65.591070
21
90.103060
0
LINE
8
Camada 1
10
65.591070
20
90.103060
11
64.749339
21
90.191913
0
LINE
8
Camada 1
10
64.749339
20
90.191913
11
64.611992
21
90.330628
0
LINE
8
Camada 1
10
64.611992
20
90.330628
11
64.610508
21
90.556780
0
LINE
8
Camada 1
10
64.610508
20
90.556780
11
64.972002
21
91.153923
0
LINE
8
Camada 1
10
64.972002
20
91.153923
11
65.717291
21
91.687996
0
LINE
8
Camada 1
10
65.717291
20
91.687996
11
66.684039
21
92.071951
0
LINE
8
Camada 1
10
66.684039
20
92.071951
11
67.709908
21
92.218740
0
LINE
8
Camada 1
10
67.709908
20
92.218740
11
68.507696
21
92.144915
0
LINE
8
Camada 1
10
68.507696
20
92.144915
11
69.238913
21
91.934678
0
LINE
8
Camada 1
10
69.238913
20
91.934678
11
70.441759
21
91.163381
0
LINE
8
Camada 1
10
70.441759
20
91.163381
11
71.198695
21
90.021684
0
LINE
8
Camada 1
10
71.198695
20
90.021684
11
71.372524
21
89.348446
0
LINE
8
Camada 1
10
71.372524
20
89.348446
11
71.389968
21
88.626420
0
LINE
8
Camada 1
10
71.389968
20
88.626420
11
71.308798
21
87.710770
0
LINE
8
Camada 1
10
71.308798
20
87.710770
11
70.336510
21
88.373770
0
LINE
8
Camada 1
10
127.003610
20
83.356190
11
127.037513
21
83.723375
0
LINE
8
Camada 1
10
127.037513
20
83.723375
11
127.215285
21
83.921438
0
LINE
8
Camada 1
10
127.215285
20
83.921438
11
128.458810
21
84.017650
0
LINE
8
Camada 1
10
128.458810
20
84.017650
11
129.486554
21
84.095370
0
LINE
8
Camada 1
10
129.486554
20
84.095370
11
129.914020
21
84.282230
0
LINE
8
Camada 1
10
129.914020
20
84.282230
11
129.486554
21
84.469090
0
LINE
8
Camada 1
10
129.486554
20
84.469090
11
128.458810
21
84.546810
0
LINE
8
Camada 1
10
128.458810
20
84.546810
11
127.191023
21
84.649029
0
LINE
8
Camada 1
10
127.191023
20
84.649029
11
127.028415
21
84.885048
0
LINE
8
Camada 1
10
127.028415
20
84.885048
11
127.003610
21
85.340560
0
LINE
8
Camada 1
10
127.003610
20
85.340560
11
127.028415
21
85.796068
0
LINE
8
Camada 1
10
127.028415
20
85.796068
11
127.191023
21
86.032088
0
LINE
8
Camada 1
10
127.191023
20
86.032088
11
128.458810
21
86.134310
0
LINE
8
Camada 1
10
128.458810
20
86.134310
11
129.486554
21
86.212031
0
LINE
8
Camada 1
10
129.486554
20
86.212031
11
129.914020
21
86.398900
0
LINE
8
Camada 1
10
129.914020
20
86.398900
11
129.486554
21
86.585760
0
LINE
8
Camada 1
10
129.486554
20
86.585760
11
128.458810
21
86.663480
0
LINE
8
Camada 1
10
128.458810
20
86.663480
11
127.191023
21
86.765699
0
LINE
8
Camada 1
10
127.191023
20
86.765699
11
127.028415
21
87.001718
0
LINE
8
Camada 1
10
127.028415
20
87.001718
11
127.003610
21
87.457230
0
LINE
8
Camada 1
10
127.003610
20
87.457230
11
127.028415
21
87.912733
0
LINE
8
Camada 1
10
127.028415
20
87.912733
11
127.191023
21
88.148754
0
LINE
8
Camada 1
10
127.191023
20
88.148754
11
128.458810
21
88.250980
0
LINE
8
Camada 1
10
128.458810
20
88.250980
11
129.486554
21
88.328700
0
LINE
8
Camada 1
10
129.486554
20
88.328700
11
129.914020
21
88.515560
0
LINE
8
Camada 1
10
129.914020
20
88.515560
11
129.486554
21
88.702425
0
LINE
8
Camada 1
10
129.486554
20
88.702425
11
128.458810
21
88.780150
0
LINE
8
Camada 1
10
128.458810
20
88.780150
11
127.191023
21
88.882369
0
LINE
8
Camada 1
10
127.191023
20
88.882369
11
127.028415
21
89.118388
0
LINE
8
Camada 1
10
127.028415
20
89.118388
11
127.003610
21
89.573900
0
LINE
8
Camada 1
10
127.003610
20
89.573900
11
127.028415
21
90.029403
0
LINE
8
Camada 1
10
127.028415
20
90.029403
11
127.191023
21
90.265424
0
LINE
8
Camada 1
10
127.191023
20
90.265424
11
128.458810
21
90.367650
0
LINE
8
Camada 1
10
128.458810
20
90.367650
11
129.486554
21
90.445370
0
LINE
8
Camada 1
10
129.486554
20
90.445370
11
129.914020
21
90.632230
0
LINE
8
Camada 1
10
129.914020
20
90.632230
11
129.486554
21
90.819090
0
LINE
8
Camada 1
10
129.486554
20
90.819090
11
128.458810
21
90.896810
0
LINE
8
Camada 1
10
128.458810
20
90.896810
11
127.191023
21
90.999029
0
LINE
8
Camada 1
10
127.191023
20
90.999029
11
127.028415
21
91.235048
0
LINE
8
Camada 1
10
127.028415
20
91.235048
11
127.003610
21
91.690560
0
LINE
8
Camada 1
10
127.003610
20
91.690560
11
127.028415
21
92.146068
0
LINE
8
Camada 1
10
127.028415
20
92.146068
11
127.191023
21
92.382088
0
LINE
8
Camada 1
10
127.191023
20
92.382088
11
128.458810
21
92.484310
0
LINE
8
Camada 1
10
128.458810
20
92.484310
11
129.486554
21
92.562031
0
LINE
8
Camada 1
10
129.486554
20
92.562031
11
129.914020
21
92.748900
0
LINE
8
Camada 1
10
129.914020
20
92.748900
11
129.486554
21
92.935760
0
LINE
8
Camada 1
10
129.486554
20
92.935760
11
128.458810
21
93.013480
0
LINE
8
Camada 1
10
128.458810
20
93.013480
11
127.215274
21
93.109700
0
LINE
8
Camada 1
10
127.215274
20
93.109700
11
127.037509
21
93.307763
0
LINE
8
Camada 1
10
127.037509
20
93.307763
11
127.003610
21
93.674940
0
LINE
8
Camada 1
10
127.003610
20
93.674940
11
127.004000
21
94.336400
0
LINE
8
Camada 1
10
127.004000
20
94.336400
11
144.995000
21
94.336400
0
LINE
8
Camada 1
10
144.995000
20
94.336400
11
162.987000
21
94.336400
0
LINE
8
Camada 1
10
162.987000
20
94.336400
11
162.987000
21
93.542600
0
LINE
8
Camada 1
10
162.987000
20
93.542600
11
162.962195
21
93.096112
0
LINE
8
Camada 1
10
162.962195
20
93.096112
11
162.821634
21
92.859090
0
LINE
8
Camada 1
10
162.821634
20
92.859090
11
161.796370
21
92.748850
0
LINE
8
Camada 1
10
161.796370
20
92.748850
11
160.955495
21
92.671125
0
LINE
8
Camada 1
10
160.955495
20
92.671125
11
160.605750
21
92.484260
0
LINE
8
Camada 1
10
160.605750
20
92.484260
11
160.955495
21
92.297400
0
LINE
8
Camada 1
10
160.955495
20
92.297400
11
161.796370
21
92.219680
0
LINE
8
Camada 1
10
161.796370
20
92.219680
11
162.801789
21
92.116785
0
LINE
8
Camada 1
10
162.801789
20
92.116785
11
162.954753
21
91.917887
0
LINE
8
Camada 1
10
162.954753
20
91.917887
11
162.987000
21
91.558220
0
LINE
8
Camada 1
10
162.987000
20
91.558220
11
162.954756
21
91.198552
0
LINE
8
Camada 1
10
162.954756
20
91.198552
11
162.801796
21
90.999655
0
LINE
8
Camada 1
10
162.801796
20
90.999655
11
161.796370
21
90.896760
0
LINE
8
Camada 1
10
161.796370
20
90.896760
11
160.955495
21
90.819040
0
LINE
8
Camada 1
10
160.955495
20
90.819040
11
160.605750
21
90.632180
0
LINE
8
Camada 1
10
160.605750
20
90.632180
11
160.955495
21
90.445320
0
LINE
8
Camada 1
10
160.955495
20
90.445320
11
161.796370
21
90.367600
0
LINE
8
Camada 1
10
161.796370
20
90.367600
11
162.821634
21
90.257356
0
LINE
8
Camada 1
10
162.821634
20
90.257356
11
162.962195
21
90.020334
0
LINE
8
Camada 1
10
162.962195
20
90.020334
11
162.987000
21
89.573850
0
LINE
8
Camada 1
10
162.987000
20
89.573850
11
162.962195
21
89.127362
0
LINE
8
Camada 1
10
162.962195
20
89.127362
11
162.821634
21
88.890340
0
LINE
8
Camada 1
10
162.821634
20
88.890340
11
161.796370
21
88.780100
0
LINE
8
Camada 1
10
161.796370
20
88.780100
11
160.955495
21
88.702375
0
LINE
8
Camada 1
10
160.955495
20
88.702375
11
160.605750
21
88.515510
0
LINE
8
Camada 1
10
160.605750
20
88.515510
11
160.955495
21
88.328650
0
LINE
8
Camada 1
10
160.955495
20
88.328650
11
161.796370
21
88.250930
0
LINE
8
Camada 1
10
161.796370
20
88.250930
11
162.821634
21
88.140686
0
LINE
8
Camada 1
10
162.821634
20
88.140686
11
162.962195
21
87.903664
0
LINE
8
Camada 1
10
162.962195
20
87.903664
11
162.987000
21
87.457180
0
LINE
8
Camada 1
10
162.987000
20
87.457180
11
162.962195
21
87.010696
0
LINE
8
Camada 1
10
162.962195
20
87.010696
11
162.821634
21
86.773674
0
LINE
8
Camada 1
10
162.821634
20
86.773674
11
161.796370
21
86.663430
0
LINE
8
Camada 1
10
161.796370
20
86.663430
11
160.955495
21
86.585710
0
LINE
8
Camada 1
10
160.955495
20
86.585710
11
160.605750
21
86.398850
0
LINE
8
Camada 1
10
160.605750
20
86.398850
11
160.955495
21
86.211981
0
LINE
8
Camada 1
10
160.955495
20
86.211981
11
161.796370
21
86.134260
0
LINE
8
Camada 1
10
161.796370
20
86.134260
11
162.821634
21
86.024016
0
LINE
8
Camada 1
10
162.821634
20
86.024016
11
162.962195
21
85.786994
0
LINE
8
Camada 1
10
162.962195
20
85.786994
11
162.987000
21
85.340510
0
LINE
8
Camada 1
10
162.987000
20
85.340510
11
162.962195
21
84.894026
0
LINE
8
Camada 1
10
162.962195
20
84.894026
11
162.821634
21
84.657004
0
LINE
8
Camada 1
10
162.821634
20
84.657004
11
161.796370
21
84.546760
0
LINE
8
Camada 1
10
161.796370
20
84.546760
11
160.955495
21
84.469040
0
LINE
8
Camada 1
10
160.955495
20
84.469040
11
160.605750
21
84.282180
0
LINE
8
Camada 1
10
160.605750
20
84.282180
11
160.955495
21
84.095320
0
LINE
8
Camada 1
10
160.955495
20
84.095320
11
161.796370
21
84.017600
0
LINE
8
Camada 1
10
161.796370
20
84.017600
11
162.801789
21
83.914705
0
LINE
8
Camada 1
10
162.801789
20
83.914705
11
162.954753
21
83.715807
0
LINE
8
Camada 1
10
162.954753
20
83.715807
11
162.987000
21
83.356140
0
LINE
8
Camada 1
10
162.987000
20
83.356140
11
162.987000
21
82.694700
0
LINE
8
Camada 1
10
162.987000
20
82.694700
11
144.995000
21
82.694700
0
LINE
8
Camada 1
10
144.995000
20
82.694700
11
127.004000
21
82.694700
0
LINE
8
Camada 1
10
127.004000
20
82.694700
11
127.003610
21
83.356190
0
LINE
8
Camada 1
10
135.263620
20
84.293870
11
136.245940
21
84.696601
0
LINE
8
Camada 1
10
136.245940
20
84.696601
11
137.075169
21
85.287611
0
LINE
8
Camada 1
10
137.075169
20
85.287611
11
137.682478
21
86.004248
0
LINE
8
Camada 1
10
137.682478
20
86.004248
11
137.999040
21
86.783860
0
LINE
8
Camada 1
10
137.999040
20
86.783860
11
138.044492
21
87.658833
0
LINE
8
Camada 1
10
138.044492
20
87.658833
11
137.769710
21
88.311536
0
LINE
8
Camada 1
10
137.769710
20
88.311536
11
137.124645
21
88.804297
0
LINE
8
Camada 1
10
137.124645
20
88.804297
11
136.059250
21
89.199440
0
LINE
8
Camada 1
10
136.059250
20
89.199440
11
134.177320
21
89.978220
0
LINE
8
Camada 1
10
134.177320
20
89.978220
11
133.945705
21
90.362963
0
LINE
8
Camada 1
10
133.945705
20
90.362963
11
133.997730
21
90.753145
0
LINE
8
Camada 1
10
133.997730
20
90.753145
11
134.305753
21
91.092732
0
LINE
8
Camada 1
10
134.305753
20
91.092732
11
134.842130
21
91.325690
0
LINE
8
Camada 1
10
134.842130
20
91.325690
11
135.505395
21
91.347660
0
LINE
8
Camada 1
10
135.505395
20
91.347660
11
136.020340
21
90.936700
0
LINE
8
Camada 1
10
136.020340
20
90.936700
11
136.622082
21
90.496749
0
LINE
8
Camada 1
10
136.622082
20
90.496749
11
137.563200
21
90.367650
0
LINE
8
Camada 1
10
137.563200
20
90.367650
11
138.469204
21
90.473606
0
LINE
8
Camada 1
10
138.469204
20
90.473606
11
138.613060
21
90.669987
0
LINE
8
Camada 1
10
138.613060
20
90.669987
11
138.645270
21
91.018800
0
LINE
8
Camada 1
10
138.645270
20
91.018800
11
138.476954
21
91.688336
0
LINE
8
Camada 1
10
138.476954
20
91.688336
11
138.014192
21
92.225521
0
LINE
8
Camada 1
10
138.014192
20
92.225521
11
137.320268
21
92.619463
0
LINE
8
Camada 1
10
137.320268
20
92.619463
11
136.458461
21
92.859275
0
LINE
8
Camada 1
10
136.458461
20
92.859275
11
135.492055
21
92.934066
0
LINE
8
Camada 1
10
135.492055
20
92.934066
11
134.484330
21
92.832947
0
LINE
8
Camada 1
10
134.484330
20
92.832947
11
133.498567
21
92.545028
0
LINE
8
Camada 1
10
133.498567
20
92.545028
11
132.598050
21
92.059420
0
LINE
8
Camada 1
10
132.598050
20
92.059420
11
132.050014
21
91.491921
0
LINE
8
Camada 1
10
132.050014
20
91.491921
11
131.607600
21
90.742600
0
LINE
8
Camada 1
10
131.607600
20
90.742600
11
131.375580
21
89.853094
0
LINE
8
Camada 1
10
131.375580
20
89.853094
11
131.519130
21
89.142461
0
LINE
8
Camada 1
10
131.519130
20
89.142461
11
132.056385
21
88.576701
0
LINE
8
Camada 1
10
132.056385
20
88.576701
11
133.005480
21
88.121810
0
LINE
8
Camada 1
10
133.005480
20
88.121810
11
135.103157
21
87.294554
0
LINE
8
Camada 1
10
135.103157
20
87.294554
11
135.409627
21
87.014809
0
LINE
8
Camada 1
10
135.409627
20
87.014809
11
135.470270
21
86.678460
0
LINE
8
Camada 1
10
135.470270
20
86.678460
11
135.381725
21
86.292842
0
LINE
8
Camada 1
10
135.381725
20
86.292842
11
135.144274
21
85.993409
0
LINE
8
Camada 1
10
135.144274
20
85.993409
11
134.391770
21
85.676386
0
LINE
8
Camada 1
10
134.391770
20
85.676386
11
133.550983
21
85.773973
0
LINE
8
Camada 1
10
133.550983
20
85.773973
11
133.203180
21
85.992801
0
LINE
8
Camada 1
10
133.203180
20
85.992801
11
132.960140
21
86.332750
0
LINE
8
Camada 1
10
132.960140
20
86.332750
11
132.529530
21
86.811684
0
LINE
8
Camada 1
10
132.529530
20
86.811684
11
131.571070
21
86.928060
0
LINE
8
Camada 1
10
131.571070
20
86.928060
11
130.606195
21
86.816744
0
LINE
8
Camada 1
10
130.606195
20
86.816744
11
130.469071
21
86.586202
0
LINE
8
Camada 1
10
130.469071
20
86.586202
11
130.443190
21
86.157830
0
LINE
8
Camada 1
10
130.443190
20
86.157830
11
130.544398
21
85.555705
0
LINE
8
Camada 1
10
130.544398
20
85.555705
11
130.833228
21
85.041884
0
LINE
8
Camada 1
10
130.833228
20
85.041884
11
131.287490
21
84.624948
0
LINE
8
Camada 1
10
131.287490
20
84.624948
11
131.884994
21
84.313479
0
LINE
8
Camada 1
10
131.884994
20
84.313479
11
133.420965
21
84.041259
0
LINE
8
Camada 1
10
133.420965
20
84.041259
11
135.263620
21
84.293870
0
LINE
8
Camada 1
10
135.263620
20
84.293870
11
135.263620
21
84.293870
0
LINE
8
Camada 1
10
152.556720
20
84.519380
11
153.827214
21
85.364621
0
LINE
8
Camada 1
10
153.827214
20
85.364621
11
154.590524
21
86.422823
0
LINE
8
Camada 1
10
154.590524
20
86.422823
11
154.758145
21
86.977309
0
LINE
8
Camada 1
10
154.758145
20
86.977309
11
154.770361
21
87.519668
0
LINE
8
Camada 1
10
154.770361
20
87.519668
11
154.617639
21
88.028108
0
LINE
8
Camada 1
10
154.617639
20
88.028108
11
154.290440
21
88.480840
0
LINE
8
Camada 1
10
154.290440
20
88.480840
11
153.546278
21
88.924796
0
LINE
8
Camada 1
10
153.546278
20
88.924796
11
152.451460
21
89.297840
0
LINE
8
Camada 1
10
152.451460
20
89.297840
11
151.216181
21
89.763740
0
LINE
8
Camada 1
10
151.216181
20
89.763740
11
150.608051
21
90.342418
0
LINE
8
Camada 1
10
150.608051
20
90.342418
11
150.557735
21
90.634015
0
LINE
8
Camada 1
10
150.557735
20
90.634015
11
150.686488
21
90.905769
0
LINE
8
Camada 1
10
150.686488
20
90.905769
11
151.510910
21
91.325690
0
LINE
8
Camada 1
10
151.510910
20
91.325690
11
152.174175
21
91.347660
0
LINE
8
Camada 1
10
152.174175
20
91.347660
11
152.689120
21
90.936700
0
LINE
8
Camada 1
10
152.689120
20
90.936700
11
153.290863
21
90.496749
0
LINE
8
Camada 1
10
153.290863
20
90.496749
11
154.231980
21
90.367650
0
LINE
8
Camada 1
10
154.231980
20
90.367650
11
155.139698
21
90.474219
0
LINE
8
Camada 1
10
155.139698
20
90.474219
11
155.282483
21
90.673573
0
LINE
8
Camada 1
10
155.282483
20
90.673573
11
155.314050
21
91.029100
0
LINE
8
Camada 1
10
155.314050
20
91.029100
11
155.120215
21
91.762417
0
LINE
8
Camada 1
10
155.120215
20
91.762417
11
154.592402
21
92.326441
0
LINE
8
Camada 1
10
154.592402
20
92.326441
11
153.811151
21
92.712850
0
LINE
8
Camada 1
10
153.811151
20
92.712850
11
152.857004
21
92.913325
0
LINE
8
Camada 1
10
152.857004
20
92.913325
11
151.810499
21
92.919544
0
LINE
8
Camada 1
10
151.810499
20
92.919544
11
150.752176
21
92.723187
0
LINE
8
Camada 1
10
150.752176
20
92.723187
11
149.762577
21
92.315932
0
LINE
8
Camada 1
10
149.762577
20
92.315932
11
148.922240
21
91.689460
0
LINE
8
Camada 1
10
148.922240
20
91.689460
11
148.329250
21
90.869885
0
LINE
8
Camada 1
10
148.329250
20
90.869885
11
148.170300
21
89.865630
0
LINE
8
Camada 1
10
148.170300
20
89.865630
11
148.270833
21
89.112881
0
LINE
8
Camada 1
10
148.270833
20
89.112881
11
148.650793
21
88.574084
0
LINE
8
Camada 1
10
148.650793
20
88.574084
11
149.427724
21
88.151565
0
LINE
8
Camada 1
10
149.427724
20
88.151565
11
150.719170
21
87.747650
0
LINE
8
Camada 1
10
150.719170
20
87.747650
11
151.595249
21
87.414927
0
LINE
8
Camada 1
10
151.595249
20
87.414927
11
152.165800
21
87.028130
0
LINE
8
Camada 1
10
152.165800
20
87.028130
11
152.342422
21
86.587310
0
LINE
8
Camada 1
10
152.342422
20
86.587310
11
151.886450
21
86.090810
0
LINE
8
Camada 1
10
151.886450
20
86.090810
11
151.236580
21
85.739318
0
LINE
8
Camada 1
10
151.236580
20
85.739318
11
150.578800
21
85.671593
0
LINE
8
Camada 1
10
150.578800
20
85.671593
11
150.009610
21
85.876818
0
LINE
8
Camada 1
10
150.009610
20
85.876818
11
149.625510
21
86.344180
0
LINE
8
Camada 1
10
149.625510
20
86.344180
11
149.214183
21
86.824409
0
LINE
8
Camada 1
10
149.214183
20
86.824409
11
148.302590
21
86.873350
0
LINE
8
Camada 1
10
148.302590
20
86.873350
11
147.540884
21
86.695427
0
LINE
8
Camada 1
10
147.540884
20
86.695427
11
147.171324
21
86.313829
0
LINE
8
Camada 1
10
147.171324
20
86.313829
11
147.200409
21
85.746664
0
LINE
8
Camada 1
10
147.200409
20
85.746664
11
147.634640
21
85.012040
0
LINE
8
Camada 1
10
147.634640
20
85.012040
11
148.508890
21
84.369017
0
LINE
8
Camada 1
10
148.508890
20
84.369017
11
149.743724
21
84.060249
0
LINE
8
Camada 1
10
149.743724
20
84.060249
11
151.154536
21
84.104211
0
LINE
8
Camada 1
10
151.154536
20
84.104211
11
152.556720
21
84.519380
0
LINE
8
Camada 1
10
152.556720
20
84.519380
11
152.556720
21
84.519380
0
LINE
8
Camada 1
10
145.524470
20
84.657460
11
145.685070
21
85.451210
0
LINE
8
Camada 1
10
145.685070
20
85.451210
11
145.692990
21
85.668677
0
LINE
8
Camada 1
10
145.692990
20
85.668677
11
145.436666
21
85.795646
0
LINE
8
Camada 1
10
145.436666
20
85.795646
11
143.695650
21
85.869730
0
LINE
8
Camada 1
10
143.695650
20
85.869730
11
141.546000
21
85.869700
0
LINE
8
Camada 1
10
141.546000
20
85.869700
11
141.717490
21
86.597300
0
LINE
8
Camada 1
10
141.717490
20
86.597300
11
141.903677
21
87.213512
0
LINE
8
Camada 1
10
141.903677
20
87.213512
11
142.222205
21
87.548264
0
LINE
8
Camada 1
10
142.222205
20
87.548264
11
142.871881
21
87.701821
0
LINE
8
Camada 1
10
142.871881
20
87.701821
11
144.051510
21
87.774450
0
LINE
8
Camada 1
10
144.051510
20
87.774450
11
145.652291
21
87.946202
0
LINE
8
Camada 1
10
145.652291
20
87.946202
11
145.930467
21
88.173330
0
LINE
8
Camada 1
10
145.930467
20
88.173330
11
146.079150
21
88.581680
0
LINE
8
Camada 1
10
146.079150
20
88.581680
11
146.272810
21
89.309280
0
LINE
8
Camada 1
10
146.272810
20
89.309280
11
144.280000
21
89.309300
0
LINE
8
Camada 1
10
144.280000
20
89.309300
11
142.579046
21
89.389901
0
LINE
8
Camada 1
10
142.579046
20
89.389901
11
142.395736
21
89.567407
0
LINE
8
Camada 1
10
142.395736
20
89.567407
11
142.447190
21
89.904610
0
LINE
8
Camada 1
10
142.447190
20
89.904610
11
142.610340
21
90.819960
0
LINE
8
Camada 1
10
142.610340
20
90.819960
11
143.147044
21
91.080480
0
LINE
8
Camada 1
10
143.147044
20
91.080480
11
144.796770
21
91.216830
0
LINE
8
Camada 1
10
144.796770
20
91.216830
11
146.710013
21
91.377236
0
LINE
8
Camada 1
10
146.710013
20
91.377236
11
146.978314
21
91.602135
0
LINE
8
Camada 1
10
146.978314
20
91.602135
11
147.063300
21
92.021280
0
LINE
8
Camada 1
10
147.063300
20
92.021280
11
147.147000
21
92.748890
0
LINE
8
Camada 1
10
147.147000
20
92.748890
11
143.954000
21
92.748900
0
LINE
8
Camada 1
10
143.954000
20
92.748900
11
140.761430
21
92.597480
0
LINE
8
Camada 1
10
140.761430
20
92.597480
11
139.036760
21
84.612960
0
LINE
8
Camada 1
10
139.036760
20
84.612960
11
139.144538
21
84.454621
0
LINE
8
Camada 1
10
139.144538
20
84.454621
11
139.653375
21
84.352784
0
LINE
8
Camada 1
10
139.653375
20
84.352784
11
142.224940
21
84.282230
0
LINE
8
Camada 1
10
142.224940
20
84.282230
11
144.876244
21
84.355909
0
LINE
8
Camada 1
10
144.876244
20
84.355909
11
145.384141
21
84.470652
0
LINE
8
Camada 1
10
145.384141
20
84.470652
11
145.523930
21
84.657460
0
LINE
8
Camada 1
10
145.523930
20
84.657460
11
145.524470
21
84.657460
0
LINE
8
Camada 1
10
158.234070
20
85.803580
11
159.139450
21
90.036920
0
LINE
8
Camada 1
10
159.139450
20
90.036920
11
159.733190
21
92.748900
0
LINE
8
Camada 1
10
159.733190
20
92.748900
11
158.600000
21
92.748900
0
LINE
8
Camada 1
10
158.600000
20
92.748900
11
157.467000
21
92.748900
0
LINE
8
Camada 1
10
157.467000
20
92.748900
11
157.047630
21
90.830670
0
LINE
8
Camada 1
10
157.047630
20
90.830670
11
156.129720
21
86.597330
0
LINE
8
Camada 1
10
156.129720
20
86.597330
11
155.631190
21
84.282230
0
LINE
8
Camada 1
10
155.631190
20
84.282230
11
156.777000
21
84.282200
0
LINE
8
Camada 1
10
156.777000
20
84.282200
11
157.922000
21
84.282200
0
LINE
8
Camada 1
10
157.922000
20
84.282200
11
158.234070
21
85.803580
0
LINE
8
Camada 1
10
61.783870
20
102.783080
11
60.292702
21
103.341216
0
LINE
8
Camada 1
10
60.292702
20
103.341216
11
59.763379
21
103.743884
0
LINE
8
Camada 1
10
59.763379
20
103.743884
11
59.360321
21
104.259055
0
LINE
8
Camada 1
10
59.360321
20
104.259055
11
58.879285
21
105.717209
0
LINE
8
Camada 1
10
58.879285
20
105.717209
11
58.742150
21
107.896290
0
LINE
8
Camada 1
10
58.742150
20
107.896290
11
58.741160
21
110.475980
0
LINE
8
Camada 1
10
58.741160
20
110.475980
11
56.771700
21
110.476000
0
LINE
8
Camada 1
10
56.771700
20
110.476000
11
55.106267
21
110.557279
0
LINE
8
Camada 1
10
55.106267
20
110.557279
11
54.607721
21
110.827255
0
LINE
8
Camada 1
10
54.607721
20
110.827255
11
54.282685
21
111.399789
0
LINE
8
Camada 1
10
54.282685
20
111.399789
11
54.094205
21
112.387132
0
LINE
8
Camada 1
10
54.094205
20
112.387132
11
54.005328
21
113.901536
0
LINE
8
Camada 1
10
54.005328
20
113.901536
11
53.978570
21
118.960530
0
LINE
8
Camada 1
10
53.978570
20
118.960530
11
54.001531
21
123.878902
0
LINE
8
Camada 1
10
54.001531
20
123.878902
11
54.088772
21
125.341305
0
LINE
8
Camada 1
10
54.088772
20
125.341305
11
54.278557
21
126.287829
0
LINE
8
Camada 1
10
54.278557
20
126.287829
11
54.609913
21
126.829954
0
LINE
8
Camada 1
10
54.609913
20
126.829954
11
55.121865
21
127.079161
0
LINE
8
Camada 1
10
55.121865
20
127.079161
11
56.843670
21
127.144750
0
LINE
8
Camada 1
10
56.843670
20
127.144750
11
58.741100
21
127.145000
0
LINE
8
Camada 1
10
58.741100
20
127.145000
11
58.741100
21
131.113000
0
LINE
8
Camada 1
10
58.741100
20
131.113000
11
58.741100
21
135.082000
0
LINE
8
Camada 1
10
58.741100
20
135.082000
11
56.210100
21
135.082000
0
LINE
8
Camada 1
10
56.210100
20
135.082000
11
54.272292
21
135.162455
0
LINE
8
Camada 1
10
54.272292
20
135.162455
11
53.167390
21
135.355890
0
LINE
8
Camada 1
10
53.167390
20
135.355890
11
52.880781
21
135.695098
0
LINE
8
Camada 1
10
52.880781
20
135.695098
11
52.727820
21
136.801684
0
LINE
8
Camada 1
10
52.727820
20
136.801684
11
52.655617
21
144.210120
0
LINE
8
Camada 1
10
52.655617
20
144.210120
11
52.727824
21
151.618565
0
LINE
8
Camada 1
10
52.727824
20
151.618565
11
52.880786
21
152.725152
0
LINE
8
Camada 1
10
52.880786
20
152.725152
11
53.167390
21
153.064360
0
LINE
8
Camada 1
10
53.167390
20
153.064360
11
54.272291
21
153.257795
0
LINE
8
Camada 1
10
54.272291
20
153.257795
11
56.210100
21
153.338250
0
LINE
8
Camada 1
10
56.210100
20
153.338250
11
58.741100
21
153.338000
0
LINE
8
Camada 1
10
58.741100
20
153.338000
11
58.742200
21
162.796850
0
LINE
8
Camada 1
10
58.742200
20
162.796850
11
58.818979
21
171.015140
0
LINE
8
Camada 1
10
58.818979
20
171.015140
11
58.976415
21
172.421951
0
LINE
8
Camada 1
10
58.976415
20
172.421951
11
59.268949
21
173.118050
0
LINE
8
Camada 1
10
59.268949
20
173.118050
11
59.893570
21
173.881505
0
LINE
8
Camada 1
10
59.893570
20
173.881505
11
60.657019
21
174.506120
0
LINE
8
Camada 1
10
60.657019
20
174.506120
11
61.048418
21
174.677755
0
LINE
8
Camada 1
10
61.048418
20
174.677755
11
61.924662
21
174.807288
0
LINE
8
Camada 1
10
61.924662
20
174.807288
11
67.175268
21
174.963798
0
LINE
8
Camada 1
10
67.175268
20
174.963798
11
105.974019
21
175.032870
0
LINE
8
Camada 1
10
105.974019
20
175.032870
11
150.428619
21
175.033860
0
LINE
8
Camada 1
10
150.428619
20
175.033860
11
153.135879
21
172.317370
0
LINE
8
Camada 1
10
153.135879
20
172.317370
11
155.843129
21
169.600870
0
LINE
8
Camada 1
10
155.843129
20
169.600870
11
155.843000
21
163.118000
0
LINE
8
Camada 1
10
155.843000
20
163.118000
11
155.843000
21
156.634000
0
LINE
8
Camada 1
10
155.843000
20
156.634000
11
158.091960
21
154.396720
0
LINE
8
Camada 1
10
158.091960
20
154.396720
11
160.340920
21
152.159450
0
LINE
8
Camada 1
10
160.340920
20
152.159450
11
160.341000
21
132.569000
0
LINE
8
Camada 1
10
160.341000
20
132.569000
11
160.341000
21
112.978000
0
LINE
8
Camada 1
10
160.341000
20
112.978000
11
157.959750
21
110.607780
0
LINE
8
Camada 1
10
157.959750
20
110.607780
11
155.578500
21
108.237560
0
LINE
8
Camada 1
10
155.578500
20
108.237560
11
155.579000
21
105.958000
0
LINE
8
Camada 1
10
155.579000
20
105.958000
11
155.741879
21
104.748707
0
LINE
8
Camada 1
10
155.741879
20
104.748707
11
155.801133
21
104.273293
0
LINE
8
Camada 1
10
155.801133
20
104.273293
11
155.717288
21
103.874960
0
LINE
8
Camada 1
10
155.717288
20
103.874960
11
155.394113
21
103.546903
0
LINE
8
Camada 1
10
155.394113
20
103.546903
11
154.735379
21
103.282316
0
LINE
8
Camada 1
10
154.735379
20
103.282316
11
152.026309
21
102.916333
0
LINE
8
Camada 1
10
152.026309
20
102.916333
11
146.820231
21
102.722567
0
LINE
8
Camada 1
10
146.820231
20
102.722567
11
138.347300
21
102.646577
0
LINE
8
Camada 1
10
138.347300
20
102.646577
11
108.521500
21
102.630150
0
LINE
8
Camada 1
10
108.521500
20
102.630150
11
75.840663
21
102.658361
0
LINE
8
Camada 1
10
75.840663
20
102.658361
11
61.784200
21
102.782640
0
LINE
8
Camada 1
10
61.784200
20
102.782640
11
61.783870
21
102.783080
0
LINE
8
Camada 1
10
152.668270
20
107.240350
11
152.668000
21
109.032000
0
LINE
8
Camada 1
10
152.668000
20
109.032000
11
155.049250
21
111.402220
0
LINE
8
Camada 1
10
155.049250
20
111.402220
11
157.430500
21
113.772440
0
LINE
8
Camada 1
10
157.430500
20
113.772440
11
157.431000
21
132.569000
0
LINE
8
Camada 1
10
157.431000
20
132.569000
11
157.431000
21
151.366000
0
LINE
8
Camada 1
10
157.431000
20
151.366000
11
155.182040
21
153.603270
0
LINE
8
Camada 1
10
155.182040
20
153.603270
11
152.933080
21
155.840550
0
LINE
8
Camada 1
10
152.933080
20
155.840550
11
152.933000
21
162.190000
0
LINE
8
Camada 1
10
152.933000
20
162.190000
11
152.933000
21
168.539000
0
LINE
8
Camada 1
10
152.933000
20
168.539000
11
151.154160
21
170.331580
0
LINE
8
Camada 1
10
151.154160
20
170.331580
11
149.375320
21
172.124160
0
LINE
8
Camada 1
10
149.375320
20
172.124160
11
105.932000
21
172.124000
0
LINE
8
Camada 1
10
105.932000
20
172.124000
11
62.070200
21
171.963400
0
LINE
8
Camada 1
10
62.070200
20
171.963400
11
61.848474
21
171.585323
0
LINE
8
Camada 1
10
61.848474
20
171.585323
11
61.721980
21
170.279120
0
LINE
8
Camada 1
10
61.721980
20
170.279120
11
61.651685
21
162.570690
0
LINE
8
Camada 1
10
61.651685
20
162.570690
11
61.651500
21
153.338000
0
LINE
8
Camada 1
10
61.651500
20
153.338000
11
67.253000
21
153.338000
0
LINE
8
Camada 1
10
67.253000
20
153.338000
11
71.954279
21
153.260990
0
LINE
8
Camada 1
10
71.954279
20
153.260990
11
72.891929
21
153.128210
0
LINE
8
Camada 1
10
72.891929
20
153.128210
11
73.338420
21
152.900120
0
LINE
8
Camada 1
10
73.338420
20
152.900120
11
73.603417
21
152.448795
0
LINE
8
Camada 1
10
73.603417
20
152.448795
11
73.748698
21
151.280947
0
LINE
8
Camada 1
10
73.748698
20
151.280947
11
73.822274
21
144.255850
0
LINE
8
Camada 1
10
73.822274
20
144.255850
11
73.748699
21
137.347037
0
LINE
8
Camada 1
10
73.748699
20
137.347037
11
73.616347
21
136.082539
0
LINE
8
Camada 1
10
73.616347
20
136.082539
11
73.384391
21
135.565600
0
LINE
8
Camada 1
10
73.384391
20
135.565600
11
72.987712
21
135.304390
0
LINE
8
Camada 1
10
72.987712
20
135.304390
11
72.118081
21
135.158690
0
LINE
8
Camada 1
10
72.118081
20
135.158690
11
67.298971
21
135.081750
0
LINE
8
Camada 1
10
67.298971
20
135.081750
11
61.651500
21
135.082000
0
LINE
8
Camada 1
10
61.651500
20
135.082000
11
61.651500
21
131.113000
0
LINE
8
Camada 1
10
61.651500
20
131.113000
11
61.651500
21
127.145000
0
LINE
8
Camada 1
10
61.651500
20
127.145000
11
67.253000
21
127.145000
0
LINE
8
Camada 1
10
67.253000
20
127.145000
11
71.954279
21
127.067990
0
LINE
8
Camada 1
10
71.954279
20
127.067990
11
72.891929
21
126.935210
0
LINE
8
Camada 1
10
72.891929
20
126.935210
11
73.338420
21
126.707120
0
LINE
8
Camada 1
10
73.338420
20
126.707120
11
73.602524
21
126.272492
0
LINE
8
Camada 1
10
73.602524
20
126.272492
11
73.747904
21
125.197179
0
LINE
8
Camada 1
10
73.747904
20
125.197179
11
73.822274
21
118.856600
0
LINE
8
Camada 1
10
73.822274
20
118.856600
11
73.747904
21
112.620756
0
LINE
8
Camada 1
10
73.747904
20
112.620756
11
73.615453
21
111.455893
0
LINE
8
Camada 1
10
73.615453
20
111.455893
11
73.384391
21
110.960100
0
LINE
8
Camada 1
10
73.384391
20
110.960100
11
72.987712
21
110.698890
0
LINE
8
Camada 1
10
72.987712
20
110.698890
11
72.118081
21
110.553190
0
LINE
8
Camada 1
10
72.118081
20
110.553190
11
67.298971
21
110.476250
0
LINE
8
Camada 1
10
67.298971
20
110.476250
11
61.651500
21
110.476000
0
LINE
8
Camada 1
10
61.651500
20
110.476000
11
61.651500
21
108.139000
0
LINE
8
Camada 1
10
61.651500
20
108.139000
11
61.827889
21
105.625460
0
LINE
8
Camada 1
10
61.827889
20
105.625460
11
107.336189
21
105.449070
0
LINE
8
Camada 1
10
107.336189
20
105.449070
11
152.668000
21
105.449000
0
LINE
8
Camada 1
10
152.668000
20
105.449000
11
152.668270
21
107.240350
0
LINE
8
Camada 1
10
97.105770
20
111.798900
11
97.171446
21
112.920070
0
LINE
8
Camada 1
10
97.171446
20
112.920070
11
97.329346
21
113.386400
0
LINE
8
Camada 1
10
97.329346
20
113.386400
11
97.686719
21
113.223095
0
LINE
8
Camada 1
10
97.686719
20
113.223095
11
98.043995
21
112.814797
0
LINE
8
Camada 1
10
98.043995
20
112.814797
11
98.318781
21
112.283931
0
LINE
8
Camada 1
10
98.318781
20
112.283931
11
98.428686
21
111.752920
0
LINE
8
Camada 1
10
98.428686
20
111.752920
11
98.312552
21
111.258397
0
LINE
8
Camada 1
10
98.312552
20
111.258397
11
98.023552
21
110.756684
0
LINE
8
Camada 1
10
98.023552
20
110.756684
11
97.650792
21
110.367709
0
LINE
8
Camada 1
10
97.650792
20
110.367709
11
97.283376
21
110.211400
0
LINE
8
Camada 1
10
97.283376
20
110.211400
11
97.105771
21
111.798900
0
LINE
8
Camada 1
10
97.105771
20
111.798900
11
97.105770
21
111.798900
0
LINE
8
Camada 1
10
101.988540
20
110.860830
11
101.339100
21
111.798900
0
LINE
8
Camada 1
10
101.339100
20
111.798900
11
101.534460
21
112.205007
0
LINE
8
Camada 1
10
101.534460
20
112.205007
11
101.992353
21
112.733148
0
LINE
8
Camada 1
10
101.992353
20
112.733148
11
102.520493
21
113.191040
0
LINE
8
Camada 1
10
102.520493
20
113.191040
11
102.926600
21
113.386400
0
LINE
8
Camada 1
10
102.926600
20
113.386400
11
103.864670
21
112.736960
0
LINE
8
Camada 1
10
103.864670
20
112.736960
11
104.514100
21
111.798900
0
LINE
8
Camada 1
10
104.514100
20
111.798900
11
103.864670
21
110.860830
0
LINE
8
Camada 1
10
103.864670
20
110.860830
11
102.926600
21
110.211400
0
LINE
8
Camada 1
10
102.926600
20
110.211400
11
101.988540
21
110.860830
0
LINE
8
Camada 1
10
101.988540
20
110.860830
11
101.988540
21
110.860830
0
LINE
8
Camada 1
10
107.809370
20
110.860830
11
107.159940
21
111.798900
0
LINE
8
Camada 1
10
107.159940
20
111.798900
11
107.809370
21
112.736960
0
LINE
8
Camada 1
10
107.809370
20
112.736960
11
108.747440
21
113.386400
0
LINE
8
Camada 1
10
108.747440
20
113.386400
11
109.685500
21
112.736960
0
LINE
8
Camada 1
10
109.685500
20
112.736960
11
110.334940
21
111.798900
0
LINE
8
Camada 1
10
110.334940
20
111.798900
11
109.685500
21
110.860830
0
LINE
8
Camada 1
10
109.685500
20
110.860830
11
108.747440
21
110.211400
0
LINE
8
Camada 1
10
108.747440
20
110.211400
11
107.809370
21
110.860830
0
LINE
8
Camada 1
10
107.809370
20
110.860830
11
107.809370
21
110.860830
0
LINE
8
Camada 1
10
113.630200
20
110.860830
11
112.980770
21
111.798900
0
LINE
8
Camada 1
10
112.980770
20
111.798900
11
113.630200
21
112.736960
0
LINE
8
Camada 1
10
113.630200
20
112.736960
11
114.568270
21
113.386400
0
LINE
8
Camada 1
10
114.568270
20
113.386400
11
115.506340
21
112.736960
0
LINE
8
Camada 1
10
115.506340
20
112.736960
11
116.155770
21
111.798900
0
LINE
8
Camada 1
10
116.155770
20
111.798900
11
115.506340
21
110.860830
0
LINE
8
Camada 1
10
115.506340
20
110.860830
11
114.568270
21
110.211400
0
LINE
8
Camada 1
10
114.568270
20
110.211400
11
113.630200
21
110.860830
0
LINE
8
Camada 1
10
113.630200
20
110.860830
11
113.630200
21
110.860830
0
LINE
8
Camada 1
10
134.796900
20
110.860830
11
134.147470
21
111.798900
0
LINE
8
Camada 1
10
134.147470
20
111.798900
11
134.796900
21
112.736960
0
LINE
8
Camada 1
10
134.796900
20
112.736960
11
135.734970
21
113.386400
0
LINE
8
Camada 1
10
135.734970
20
113.386400
11
136.673030
21
112.736960
0
LINE
8
Camada 1
10
136.673030
20
112.736960
11
137.322470
21
111.798900
0
LINE
8
Camada 1
10
137.322470
20
111.798900
11
136.673030
21
110.860830
0
LINE
8
Camada 1
10
136.673030
20
110.860830
11
135.734970
21
110.211400
0
LINE
8
Camada 1
10
135.734970
20
110.211400
11
134.796900
21
110.860830
0
LINE
8
Camada 1
10
134.796900
20
110.860830
11
134.796900
21
110.860830
0
LINE
8
Camada 1
10
80.821900
20
111.125410
11
80.354140
21
111.767060
0
LINE
8
Camada 1
10
80.354140
20
111.767060
11
80.204119
21
112.440679
0
LINE
8
Camada 1
10
80.204119
20
112.440679
11
80.371874
21
113.149126
0
LINE
8
Camada 1
10
80.371874
20
113.149126
11
80.857440
21
113.895260
0
LINE
8
Camada 1
10
80.857440
20
113.895260
11
81.590725
21
114.499268
0
LINE
8
Camada 1
10
81.590725
20
114.499268
11
82.412577
21
114.730653
0
LINE
8
Camada 1
10
82.412577
20
114.730653
11
83.247739
21
114.585495
0
LINE
8
Camada 1
10
83.247739
20
114.585495
11
84.020950
21
114.059880
0
LINE
8
Camada 1
10
84.020950
20
114.059880
11
84.426290
21
113.512992
0
LINE
8
Camada 1
10
84.426290
20
113.512992
11
84.626658
21
112.922585
0
LINE
8
Camada 1
10
84.626658
20
112.922585
11
84.638071
21
112.324546
0
LINE
8
Camada 1
10
84.638071
20
112.324546
11
84.476547
21
111.754765
0
LINE
8
Camada 1
10
84.476547
20
111.754765
11
84.158102
21
111.249129
0
LINE
8
Camada 1
10
84.158102
20
111.249129
11
83.698755
21
110.843528
0
LINE
8
Camada 1
10
83.698755
20
110.843528
11
83.114522
21
110.573848
0
LINE
8
Camada 1
10
83.114522
20
110.573848
11
82.421420
21
110.475980
0
LINE
8
Camada 1
10
82.421420
20
110.475980
11
81.543812
21
110.632553
0
LINE
8
Camada 1
10
81.543812
20
110.632553
11
80.821900
21
111.125410
0
LINE
8
Camada 1
10
80.821900
20
111.125410
11
80.821900
21
111.125410
0
LINE
8
Camada 1
10
119.239500
20
110.959830
11
118.919710
21
111.461782
0
LINE
8
Camada 1
10
118.919710
20
111.461782
11
118.821414
21
111.988006
0
LINE
8
Camada 1
10
118.821414
20
111.988006
11
118.943660
21
112.497313
0
LINE
8
Camada 1
10
118.943660
20
112.497313
11
119.285500
21
112.948510
0
LINE
8
Camada 1
10
119.285500
20
112.948510
11
119.729461
21
113.293507
0
LINE
8
Camada 1
10
119.729461
20
113.293507
11
119.983126
21
113.280379
0
LINE
8
Camada 1
10
119.983126
20
113.280379
11
120.097743
21
112.846986
0
LINE
8
Camada 1
10
120.097743
20
112.846986
11
120.124560
21
111.931190
0
LINE
8
Camada 1
10
120.124560
20
111.931190
11
120.085097
21
111.017235
0
LINE
8
Camada 1
10
120.085097
20
111.017235
11
119.945573
21
110.573886
0
LINE
8
Camada 1
10
119.945573
20
110.573886
11
119.674284
21
110.566350
0
LINE
8
Camada 1
10
119.674284
20
110.566350
11
119.239530
21
110.959830
0
LINE
8
Camada 1
10
119.239530
20
110.959830
11
119.239500
21
110.959830
0
LINE
8
Camada 1
10
129.649500
20
111.798900
11
129.737781
21
112.666334
0
LINE
8
Camada 1
10
129.737781
20
112.666334
11
129.972335
21
113.114089
0
LINE
8
Camada 1
10
129.972335
20
113.114089
11
130.307726
21
113.107035
0
LINE
8
Camada 1
10
130.307726
20
113.107035
11
130.698520
21
112.610040
0
LINE
8
Camada 1
10
130.698520
20
112.610040
11
130.952900
21
111.662969
0
LINE
8
Camada 1
10
130.952900
20
111.662969
11
130.836746
21
111.263203
0
LINE
8
Camada 1
10
130.836746
20
111.263203
11
130.556640
21
110.891750
0
LINE
8
Camada 1
10
130.556640
20
110.891750
11
130.122616
21
110.546352
0
LINE
8
Camada 1
10
130.122616
20
110.546352
11
129.843263
21
110.565899
0
LINE
8
Camada 1
10
129.843263
20
110.565899
11
129.693813
21
110.975159
0
LINE
8
Camada 1
10
129.693813
20
110.975159
11
129.649500
21
111.798900
0
LINE
8
Camada 1
10
129.649500
20
111.798900
11
129.649500
21
111.798900
0
LINE
8
Camada 1
10
140.882300
20
111.125410
11
140.232860
21
112.063480
0
LINE
8
Camada 1
10
140.232860
20
112.063480
11
140.882300
21
113.001550
0
LINE
8
Camada 1
10
140.882300
20
113.001550
11
141.820360
21
113.650980
0
LINE
8
Camada 1
10
141.820360
20
113.650980
11
142.758430
21
113.001550
0
LINE
8
Camada 1
10
142.758430
20
113.001550
11
143.407860
21
112.063480
0
LINE
8
Camada 1
10
143.407860
20
112.063480
11
142.758430
21
111.125410
0
LINE
8
Camada 1
10
142.758430
20
111.125410
11
141.820360
21
110.475980
0
LINE
8
Camada 1
10
141.820360
20
110.475980
11
140.882300
21
111.125410
0
LINE
8
Camada 1
10
140.882300
20
111.125410
11
140.882300
21
111.125410
0
LINE
8
Camada 1
10
149.084380
20
115.623330
11
148.701577
21
116.134109
0
LINE
8
Camada 1
10
148.701577
20
116.134109
11
148.505685
21
116.682931
0
LINE
8
Camada 1
10
148.505685
20
116.682931
11
148.482917
21
117.237081
0
LINE
8
Camada 1
10
148.482917
20
117.237081
11
148.619483
21
117.763841
0
LINE
8
Camada 1
10
148.619483
20
117.763841
11
148.901594
21
118.230495
0
LINE
8
Camada 1
10
148.901594
20
118.230495
11
149.315463
21
118.604325
0
LINE
8
Camada 1
10
149.315463
20
118.604325
11
149.847302
21
118.852616
0
LINE
8
Camada 1
10
149.847302
20
118.852616
11
150.483320
21
118.942650
0
LINE
8
Camada 1
10
150.483320
20
118.942650
11
151.187650
21
118.767733
0
LINE
8
Camada 1
10
151.187650
20
118.767733
11
151.802861
21
118.306862
0
LINE
8
Camada 1
10
151.802861
20
118.306862
11
152.238397
21
117.655864
0
LINE
8
Camada 1
10
152.238397
20
117.655864
11
152.403700
21
116.910560
0
LINE
8
Camada 1
10
152.403700
20
116.910560
11
152.214868
21
116.253021
0
LINE
8
Camada 1
10
152.214868
20
116.253021
11
151.734782
21
115.626731
0
LINE
8
Camada 1
10
151.734782
20
115.626731
11
151.093061
21
115.158191
0
LINE
8
Camada 1
10
151.093061
20
115.158191
11
150.419320
21
114.973900
0
LINE
8
Camada 1
10
150.419320
20
114.973900
11
149.744410
21
115.164669
0
LINE
8
Camada 1
10
149.744410
20
115.164669
11
149.084380
21
115.623330
0
LINE
8
Camada 1
10
149.084380
20
115.623330
11
149.084380
21
115.623330
0
LINE
8
Camada 1
10
79.612180
20
122.086520
11
78.941593
21
122.888417
0
LINE
8
Camada 1
10
78.941593
20
122.888417
11
78.625241
21
123.641407
0
LINE
8
Camada 1
10
78.625241
20
123.641407
11
78.647987
21
124.424695
0
LINE
8
Camada 1
10
78.647987
20
124.424695
11
78.994696
21
125.317480
0
LINE
8
Camada 1
10
78.994696
20
125.317480
11
79.493091
21
125.987849
0
LINE
8
Camada 1
10
79.493091
20
125.987849
11
80.195632
21
126.572486
0
LINE
8
Camada 1
10
80.195632
20
126.572486
11
80.975773
21
126.986185
0
LINE
8
Camada 1
10
80.975773
20
126.986185
11
81.706966
21
127.143740
0
LINE
8
Camada 1
10
81.706966
20
127.143740
11
82.339195
21
127.062715
0
LINE
8
Camada 1
10
82.339195
20
127.062715
11
82.927455
21
126.832167
0
LINE
8
Camada 1
10
82.927455
20
126.832167
11
83.901897
21
126.011174
0
LINE
8
Camada 1
10
83.901897
20
126.011174
11
84.489964
21
124.858101
0
LINE
8
Camada 1
10
84.489964
20
124.858101
11
84.595254
21
124.212454
0
LINE
8
Camada 1
10
84.595254
20
124.212454
11
84.551326
21
123.550290
0
LINE
8
Camada 1
10
84.551326
20
123.550290
11
84.163800
21
122.645045
0
LINE
8
Camada 1
10
84.163800
20
122.645045
11
83.443028
21
121.846107
0
LINE
8
Camada 1
10
83.443028
20
121.846107
11
82.535413
21
121.276516
0
LINE
8
Camada 1
10
82.535413
20
121.276516
11
81.587356
21
121.059310
0
LINE
8
Camada 1
10
81.587356
20
121.059310
11
80.623230
21
121.268809
0
LINE
8
Camada 1
10
80.623230
20
121.268809
11
79.612186
21
122.086520
0
LINE
8
Camada 1
10
79.612186
20
122.086520
11
79.612180
21
122.086520
0
LINE
8
Camada 1
10
91.645880
20
122.691680
11
91.227807
21
123.013064
0
LINE
8
Camada 1
10
91.227807
20
123.013064
11
90.857299
21
123.503809
0
LINE
8
Camada 1
10
90.857299
20
123.503809
11
90.592417
21
124.067556
0
LINE
8
Camada 1
10
90.592417
20
124.067556
11
90.491220
21
124.607950
0
LINE
8
Camada 1
10
90.491220
20
124.607950
11
91.039590
21
125.653840
0
LINE
8
Camada 1
10
91.039590
20
125.653840
11
91.670430
21
126.159396
0
LINE
8
Camada 1
10
91.670430
20
126.159396
11
92.447425
21
126.360839
0
LINE
8
Camada 1
10
92.447425
20
126.360839
11
93.243305
21
126.250775
0
LINE
8
Camada 1
10
93.243305
20
126.250775
11
93.930800
21
125.821810
0
LINE
8
Camada 1
10
93.930800
20
125.821810
11
94.359765
21
125.134315
0
LINE
8
Camada 1
10
94.359765
20
125.134315
11
94.469828
21
124.338435
0
LINE
8
Camada 1
10
94.469828
20
124.338435
11
94.268384
21
123.561440
0
LINE
8
Camada 1
10
94.268384
20
123.561440
11
93.762827
21
122.930600
0
LINE
8
Camada 1
10
93.762827
20
122.930600
11
93.231198
21
122.581379
0
LINE
8
Camada 1
10
93.231198
20
122.581379
11
92.741106
21
122.429660
0
LINE
8
Camada 1
10
92.741106
20
122.429660
11
92.232637
21
122.468681
0
LINE
8
Camada 1
10
92.232637
20
122.468681
11
91.645877
21
122.691680
0
LINE
8
Camada 1
10
91.645877
20
122.691680
11
91.645880
21
122.691680
0
LINE
8
Camada 1
10
100.718680
20
124.718170
11
100.490143
21
125.170856
0
LINE
8
Camada 1
10
100.490143
20
125.170856
11
100.357412
21
126.136539
0
LINE
8
Camada 1
10
100.357412
20
126.136539
11
100.280800
21
131.027160
0
LINE
8
Camada 1
10
100.280800
20
131.027160
11
100.357406
21
135.999290
0
LINE
8
Camada 1
10
100.357406
20
135.999290
11
100.503065
21
136.889608
0
LINE
8
Camada 1
10
100.503065
20
136.889608
11
100.764650
21
137.290180
0
LINE
8
Camada 1
10
100.764650
20
137.290180
11
101.700984
21
137.527690
0
LINE
8
Camada 1
10
101.700984
20
137.527690
11
105.009549
21
137.659424
0
LINE
8
Camada 1
10
105.009549
20
137.659424
11
125.726750
21
137.728060
0
LINE
8
Camada 1
10
125.726750
20
137.728060
11
146.794800
21
137.659441
0
LINE
8
Camada 1
10
146.794800
20
137.659441
11
149.860869
21
137.514781
0
LINE
8
Camada 1
10
149.860869
20
137.514781
11
150.411063
21
137.397688
0
LINE
8
Camada 1
10
150.411063
20
137.397688
11
150.642850
21
137.244210
0
LINE
8
Camada 1
10
150.642850
20
137.244210
11
150.871387
21
136.791523
0
LINE
8
Camada 1
10
150.871387
20
136.791523
11
151.004118
21
135.825838
0
LINE
8
Camada 1
10
151.004118
20
135.825838
11
151.080730
21
130.935220
0
LINE
8
Camada 1
10
151.080730
20
130.935220
11
151.004124
21
125.963083
0
LINE
8
Camada 1
10
151.004124
20
125.963083
11
150.858465
21
125.072766
0
LINE
8
Camada 1
10
150.858465
20
125.072766
11
150.596880
21
124.672200
0
LINE
8
Camada 1
10
150.596880
20
124.672200
11
149.660542
21
124.434684
0
LINE
8
Camada 1
10
149.660542
20
124.434684
11
146.351977
21
124.302948
0
LINE
8
Camada 1
10
146.351977
20
124.302948
11
125.634780
21
124.234310
0
LINE
8
Camada 1
10
125.634780
20
124.234310
11
104.566718
21
124.302930
0
LINE
8
Camada 1
10
104.566718
20
124.302930
11
101.500619
21
124.447593
0
LINE
8
Camada 1
10
101.500619
20
124.447593
11
100.950400
21
124.564689
0
LINE
8
Camada 1
10
100.950400
20
124.564689
11
100.718580
21
124.718170
0
LINE
8
Camada 1
10
100.718580
20
124.718170
11
100.718680
21
124.718170
0
LINE
8
Camada 1
10
148.170380
20
131.113480
11
148.170000
21
135.082000
0
LINE
8
Camada 1
10
148.170000
20
135.082000
11
125.681000
21
135.082000
0
LINE
8
Camada 1
10
125.681000
20
135.082000
11
103.191000
21
135.082000
0
LINE
8
Camada 1
10
103.191000
20
135.082000
11
103.191000
21
131.113000
0
LINE
8
Camada 1
10
103.191000
20
131.113000
11
103.191000
21
127.145000
0
LINE
8
Camada 1
10
103.191000
20
127.145000
11
125.681000
21
127.145000
0
LINE
8
Camada 1
10
125.681000
20
127.145000
11
148.170000
21
127.145000
0
LINE
8
Camada 1
10
148.170000
20
127.145000
11
148.170380
21
131.113480
0
LINE
8
Camada 1
10
80.701680
20
135.611400
11
80.411805
21
136.027551
0
LINE
8
Camada 1
10
80.411805
20
136.027551
11
80.252925
21
136.805795
0
LINE
8
Camada 1
10
80.252925
20
136.805795
11
80.172513
21
141.047380
0
LINE
8
Camada 1
10
80.172513
20
141.047380
11
80.211358
21
144.809395
0
LINE
8
Camada 1
10
80.211358
20
144.809395
11
80.390793
21
145.919623
0
LINE
8
Camada 1
10
80.390793
20
145.919623
11
80.793240
21
146.632334
0
LINE
8
Camada 1
10
80.793240
20
146.632334
11
81.505951
21
147.034780
0
LINE
8
Camada 1
10
81.505951
20
147.034780
11
82.616179
21
147.214215
0
LINE
8
Camada 1
10
82.616179
20
147.214215
11
86.378193
21
147.253060
0
LINE
8
Camada 1
10
86.378193
20
147.253060
11
90.038138
21
147.229845
0
LINE
8
Camada 1
10
90.038138
20
147.229845
11
91.107156
21
147.066904
0
LINE
8
Camada 1
10
91.107156
20
147.066904
11
91.785559
21
146.684035
0
LINE
8
Camada 1
10
91.785559
20
146.684035
11
92.160864
21
145.991956
0
LINE
8
Camada 1
10
92.160864
20
145.991956
11
92.320585
21
144.901385
0
LINE
8
Camada 1
10
92.320585
20
144.901385
11
92.343343
21
141.167650
0
LINE
8
Camada 1
10
92.343343
20
141.167650
11
92.321456
21
137.429922
0
LINE
8
Camada 1
10
92.321456
20
137.429922
11
92.159677
21
136.339184
0
LINE
8
Camada 1
10
92.159677
20
136.339184
11
91.777859
21
135.647712
0
LINE
8
Camada 1
10
91.777859
20
135.647712
11
91.086387
21
135.265894
0
LINE
8
Camada 1
10
91.086387
20
135.265894
11
89.995649
21
135.104117
0
LINE
8
Camada 1
10
89.995649
20
135.104117
11
86.257923
21
135.082230
0
LINE
8
Camada 1
10
86.257923
20
135.082230
11
81.911443
21
135.162289
0
LINE
8
Camada 1
10
81.911443
20
135.162289
11
81.120087
21
135.321125
0
LINE
8
Camada 1
10
81.120087
20
135.321125
11
80.701673
21
135.611400
0
LINE
8
Camada 1
10
80.701673
20
135.611400
11
80.701680
21
135.611400
0
LINE
8
Camada 1
10
89.697510
20
141.035350
11
89.697300
21
144.343000
0
LINE
8
Camada 1
10
89.697300
20
144.343000
11
86.390000
21
144.343000
0
LINE
8
Camada 1
10
86.390000
20
144.343000
11
83.082700
21
144.343000
0
LINE
8
Camada 1
10
83.082700
20
144.343000
11
83.082700
21
141.035000
0
LINE
8
Camada 1
10
83.082700
20
141.035000
11
83.082700
21
137.728000
0
LINE
8
Camada 1
10
83.082700
20
137.728000
11
86.390000
21
137.728000
0
LINE
8
Camada 1
10
86.390000
20
137.728000
11
89.697300
21
137.728000
0
LINE
8
Camada 1
10
89.697300
20
137.728000
11
89.697510
21
141.035350
0
LINE
8
Camada 1
10
109.349610
20
144.826240
11
108.218146
21
145.456983
0
LINE
8
Camada 1
10
108.218146
20
145.456983
11
107.149337
21
146.368290
0
LINE
8
Camada 1
10
107.149337
20
146.368290
11
106.232550
21
147.469579
0
LINE
8
Camada 1
10
106.232550
20
147.469579
11
105.557150
21
148.670270
0
LINE
8
Camada 1
10
105.557150
20
148.670270
11
105.217146
21
149.711403
0
LINE
8
Camada 1
10
105.217146
20
149.711403
11
105.066694
21
150.785429
0
LINE
8
Camada 1
10
105.066694
20
150.785429
11
105.098670
21
151.866874
0
LINE
8
Camada 1
10
105.098670
20
151.866874
11
105.305946
21
152.930261
0
LINE
8
Camada 1
10
105.305946
20
152.930261
11
105.681398
21
153.950115
0
LINE
8
Camada 1
10
105.681398
20
153.950115
11
106.217898
21
154.900960
0
LINE
8
Camada 1
10
106.217898
20
154.900960
11
106.908320
21
155.757320
0
LINE
8
Camada 1
10
106.908320
20
155.757320
11
107.745540
21
156.493720
0
LINE
8
Camada 1
10
107.745540
20
156.493720
11
108.837720
21
157.166289
0
LINE
8
Camada 1
10
108.837720
20
157.166289
11
109.971176
21
157.590350
0
LINE
8
Camada 1
10
109.971176
20
157.590350
11
111.201415
21
157.780321
0
LINE
8
Camada 1
10
111.201415
20
157.780321
11
112.583940
21
157.750620
0
LINE
8
Camada 1
10
112.583940
20
157.750620
11
114.268805
21
157.524864
0
LINE
8
Camada 1
10
114.268805
20
157.524864
11
115.541824
21
157.135434
0
LINE
8
Camada 1
10
115.541824
20
157.135434
11
116.647275
21
156.474450
0
LINE
8
Camada 1
10
116.647275
20
156.474450
11
117.829440
21
155.434030
0
LINE
8
Camada 1
10
117.829440
20
155.434030
11
119.512330
21
153.867650
0
LINE
8
Camada 1
10
119.512330
20
153.867650
11
120.714430
21
155.100800
0
LINE
8
Camada 1
10
120.714430
20
155.100800
11
121.559794
21
155.898317
0
LINE
8
Camada 1
10
121.559794
20
155.898317
11
122.506930
21
156.567691
0
LINE
8
Camada 1
10
122.506930
20
156.567691
11
123.535354
21
157.102973
0
LINE
8
Camada 1
10
123.535354
20
157.102973
11
124.624582
21
157.498211
0
LINE
8
Camada 1
10
124.624582
20
157.498211
11
125.754132
21
157.747457
0
LINE
8
Camada 1
10
125.754132
20
157.747457
11
126.903519
21
157.844761
0
LINE
8
Camada 1
10
126.903519
20
157.844761
11
128.052260
21
157.784172
0
LINE
8
Camada 1
10
128.052260
20
157.784172
11
129.179870
21
157.559740
0
LINE
8
Camada 1
10
129.179870
20
157.559740
11
130.133250
21
157.192806
0
LINE
8
Camada 1
10
130.133250
20
157.192806
11
131.018664
21
156.653533
0
LINE
8
Camada 1
10
131.018664
20
156.653533
11
131.817881
21
155.966641
0
LINE
8
Camada 1
10
131.817881
20
155.966641
11
132.512670
21
155.156850
0
LINE
8
Camada 1
10
132.512670
20
155.156850
11
133.084798
21
154.248880
0
LINE
8
Camada 1
10
133.084798
20
154.248880
11
133.516033
21
153.267452
0
LINE
8
Camada 1
10
133.516033
20
153.267452
11
133.788145
21
152.237285
0
LINE
8
Camada 1
10
133.788145
20
152.237285
11
133.882900
21
151.183100
0
LINE
8
Camada 1
10
133.882900
20
151.183100
11
133.787983
21
149.840175
0
LINE
8
Camada 1
10
133.787983
20
149.840175
11
133.463704
21
148.701585
0
LINE
8
Camada 1
10
133.463704
20
148.701585
11
132.850770
21
147.627338
0
LINE
8
Camada 1
10
132.850770
20
147.627338
11
131.889890
21
146.477440
0
LINE
8
Camada 1
10
131.889890
20
146.477440
11
130.701354
21
145.395087
0
LINE
8
Camada 1
10
130.701354
20
145.395087
11
129.483616
21
144.723369
0
LINE
8
Camada 1
10
129.483616
20
144.723369
11
128.094850
21
144.408611
0
LINE
8
Camada 1
10
128.094850
20
144.408611
11
126.393230
21
144.397140
0
LINE
8
Camada 1
10
126.393230
20
144.397140
11
124.769988
21
144.637402
0
LINE
8
Camada 1
10
124.769988
20
144.637402
11
123.308651
21
145.155186
0
LINE
8
Camada 1
10
123.308651
20
145.155186
11
121.951866
21
145.977772
0
LINE
8
Camada 1
10
121.951866
20
145.977772
11
120.642280
21
147.132440
0
LINE
8
Camada 1
10
120.642280
20
147.132440
11
119.513170
21
148.282920
0
LINE
8
Camada 1
10
119.513170
20
148.282920
11
117.794430
21
146.708010
0
LINE
8
Camada 1
10
117.794430
20
146.708010
11
116.166597
21
145.409582
0
LINE
8
Camada 1
10
116.166597
20
145.409582
11
114.744820
21
144.737870
0
LINE
8
Camada 1
10
114.744820
20
144.737870
11
113.364876
21
144.454043
0
LINE
8
Camada 1
10
113.364876
20
144.454043
11
111.919272
21
144.375581
0
LINE
8
Camada 1
10
111.919272
20
144.375581
11
110.537641
21
144.500364
0
LINE
8
Camada 1
10
110.537641
20
144.500364
11
109.349610
21
144.826270
0
LINE
8
Camada 1
10
109.349610
20
144.826270
11
109.349610
21
144.826240
0
LINE
8
Camada 1
10
114.719330
20
147.753870
11
115.621546
21
148.323603
0
LINE
8
Camada 1
10
115.621546
20
148.323603
11
116.515662
21
149.144731
0
LINE
8
Camada 1
10
116.515662
20
149.144731
11
117.242142
21
150.047544
0
LINE
8
Camada 1
10
117.242142
20
150.047544
11
117.641450
21
150.862330
0
LINE
8
Camada 1
10
117.641450
20
150.862330
11
117.557218
21
151.687907
0
LINE
8
Camada 1
10
117.557218
20
151.687907
11
117.017130
21
152.638119
0
LINE
8
Camada 1
10
117.017130
20
152.638119
11
116.136490
21
153.560953
0
LINE
8
Camada 1
10
116.136490
20
153.560953
11
115.030600
21
154.304400
0
LINE
8
Camada 1
10
115.030600
20
154.304400
11
113.595749
21
154.861607
0
LINE
8
Camada 1
10
113.595749
20
154.861607
11
112.034020
21
155.003540
0
LINE
8
Camada 1
10
112.034020
20
155.003540
11
110.831712
21
154.934432
0
LINE
8
Camada 1
10
110.831712
20
154.934432
11
109.959147
21
154.696580
0
LINE
8
Camada 1
10
109.959147
20
154.696580
11
109.255464
21
154.216740
0
LINE
8
Camada 1
10
109.255464
20
154.216740
11
108.559800
21
153.421670
0
LINE
8
Camada 1
10
108.559800
20
153.421670
11
108.120959
21
152.702719
0
LINE
8
Camada 1
10
108.120959
20
152.702719
11
107.858816
21
151.945375
0
LINE
8
Camada 1
10
107.858816
20
151.945375
11
107.769129
21
151.169791
0
LINE
8
Camada 1
10
107.769129
20
151.169791
11
107.847657
21
150.396120
0
LINE
8
Camada 1
10
107.847657
20
150.396120
11
108.090159
21
149.644514
0
LINE
8
Camada 1
10
108.090159
20
149.644514
11
108.492393
21
148.935125
0
LINE
8
Camada 1
10
108.492393
20
148.935125
11
109.050117
21
148.288106
0
LINE
8
Camada 1
10
109.050117
20
148.288106
11
109.759090
21
147.723610
0
LINE
8
Camada 1
10
109.759090
20
147.723610
11
110.738890
21
147.369635
0
LINE
8
Camada 1
10
110.738890
20
147.369635
11
112.064194
21
147.257740
0
LINE
8
Camada 1
10
112.064194
20
147.257740
11
113.477005
21
147.386355
0
LINE
8
Camada 1
10
113.477005
20
147.386355
11
114.719330
21
147.753910
0
LINE
8
Camada 1
10
114.719330
20
147.753910
11
114.719330
21
147.753870
0
LINE
8
Camada 1
10
129.899130
20
148.164750
11
130.551241
21
148.952856
0
LINE
8
Camada 1
10
130.551241
20
148.952856
11
130.973857
21
149.843190
0
LINE
8
Camada 1
10
130.973857
20
149.843190
11
131.163700
21
150.825729
0
LINE
8
Camada 1
10
131.163700
20
150.825729
11
131.117490
21
151.890450
0
LINE
8
Camada 1
10
131.117490
20
151.890450
11
130.810406
21
152.908313
0
LINE
8
Camada 1
10
130.810406
20
152.908313
11
130.248204
21
153.750857
0
LINE
8
Camada 1
10
130.248204
20
153.750857
11
129.474301
21
154.403456
0
LINE
8
Camada 1
10
129.474301
20
154.403456
11
128.532112
21
154.851484
0
LINE
8
Camada 1
10
128.532112
20
154.851484
11
127.465056
21
155.080314
0
LINE
8
Camada 1
10
127.465056
20
155.080314
11
126.316547
21
155.075321
0
LINE
8
Camada 1
10
126.316547
20
155.075321
11
125.130003
21
154.821878
0
LINE
8
Camada 1
10
125.130003
20
154.821878
11
123.948840
21
154.305360
0
LINE
8
Camada 1
10
123.948840
20
154.305360
11
123.083825
21
153.650192
0
LINE
8
Camada 1
10
123.083825
20
153.650192
11
122.181111
21
152.724514
0
LINE
8
Camada 1
10
122.181111
20
152.724514
11
121.470767
21
151.793186
0
LINE
8
Camada 1
10
121.470767
20
151.793186
11
121.182860
21
151.121070
0
LINE
8
Camada 1
10
121.182860
20
151.121070
11
121.464832
21
150.399540
0
LINE
8
Camada 1
10
121.464832
20
150.399540
11
122.183552
21
149.488340
0
LINE
8
Camada 1
10
122.183552
20
149.488340
11
123.148232
21
148.592298
0
LINE
8
Camada 1
10
123.148232
20
148.592298
11
124.168080
21
147.916240
0
LINE
8
Camada 1
10
124.168080
20
147.916240
11
125.620677
21
147.361629
0
LINE
8
Camada 1
10
125.620677
20
147.361629
11
127.325560
21
147.309720
0
LINE
8
Camada 1
10
127.325560
20
147.309720
11
128.929276
21
147.520290
0
LINE
8
Camada 1
10
128.929276
20
147.520290
11
129.422775
21
147.764813
0
LINE
8
Camada 1
10
129.422775
20
147.764813
11
129.899130
21
148.164750
0
LINE
8
Camada 1
10
129.899130
20
148.164750
11
129.899130
21
148.164750
0
LINE
8
Camada 1
10
148.819830
20
144.992080
11
148.421308
21
145.531985
0
LINE
8
Camada 1
10
148.421308
20
145.531985
11
148.223305
21
146.119115
0
LINE
8
Camada 1
10
148.223305
20
146.119115
11
148.210017
21
146.716726
0
LINE
8
Camada 1
10
148.210017
20
146.716726
11
148.365641
21
147.288075
0
LINE
8
Camada 1
10
148.365641
20
147.288075
11
148.674375
21
147.796418
0
LINE
8
Camada 1
10
148.674375
20
147.796418
11
149.120415
21
148.205012
0
LINE
8
Camada 1
10
149.120415
20
148.205012
11
149.687957
21
148.477114
0
LINE
8
Camada 1
10
149.687957
20
148.477114
11
150.361200
21
148.575980
0
LINE
8
Camada 1
10
150.361200
20
148.575980
11
151.184132
21
148.414536
0
LINE
8
Camada 1
10
151.184132
20
148.414536
11
151.830275
21
147.963741
0
LINE
8
Camada 1
10
151.830275
20
147.963741
11
152.252513
21
147.273901
0
LINE
8
Camada 1
10
152.252513
20
147.273901
11
152.403730
21
146.395320
0
LINE
8
Camada 1
10
152.403730
20
146.395320
11
152.303939
21
145.752816
0
LINE
8
Camada 1
10
152.303939
20
145.752816
11
152.029591
21
145.214376
0
LINE
8
Camada 1
10
152.029591
20
145.214376
11
151.618222
21
144.794695
0
LINE
8
Camada 1
10
151.618222
20
144.794695
11
151.107369
21
144.508471
0
LINE
8
Camada 1
10
151.107369
20
144.508471
11
150.534566
21
144.370401
0
LINE
8
Camada 1
10
150.534566
20
144.370401
11
149.937352
21
144.395181
0
LINE
8
Camada 1
10
149.937352
20
144.395181
11
149.353261
21
144.597508
0
LINE
8
Camada 1
10
149.353261
20
144.597508
11
148.819830
21
144.992080
0
LINE
8
Camada 1
10
148.819830
20
144.992080
11
148.819830
21
144.992080
0
LINE
8
Camada 1
10
67.187530
20
158.874380
11
66.743495
21
159.370551
0
LINE
8
Camada 1
10
66.743495
20
159.370551
11
66.513550
21
159.943650
0
LINE
8
Camada 1
10
66.513550
20
159.943650
11
66.414132
21
162.722860
0
LINE
8
Camada 1
10
66.414132
20
162.722860
11
66.508215
21
165.446536
0
LINE
8
Camada 1
10
66.508215
20
165.446536
11
66.702628
21
166.015480
0
LINE
8
Camada 1
10
66.702628
20
166.015480
11
67.063565
21
166.447380
0
LINE
8
Camada 1
10
67.063565
20
166.447380
11
67.497541
21
166.809530
0
LINE
8
Camada 1
10
67.497541
20
166.809530
11
68.078114
21
167.003807
0
LINE
8
Camada 1
10
68.078114
20
167.003807
11
70.912045
21
167.096810
0
LINE
8
Camada 1
10
70.912045
20
167.096810
11
73.745979
21
167.003819
0
LINE
8
Camada 1
10
73.745979
20
167.003819
11
74.326551
21
166.809543
0
LINE
8
Camada 1
10
74.326551
20
166.809543
11
74.760525
21
166.447380
0
LINE
8
Camada 1
10
74.760525
20
166.447380
11
75.119676
21
166.018412
0
LINE
8
Camada 1
10
75.119676
20
166.018412
11
75.314288
21
165.464939
0
LINE
8
Camada 1
10
75.314288
20
165.464939
11
75.409958
21
162.887960
0
LINE
8
Camada 1
10
75.409958
20
162.887960
11
75.297371
21
160.242839
0
LINE
8
Camada 1
10
75.297371
20
160.242839
11
75.089568
21
159.397126
0
LINE
8
Camada 1
10
75.089568
20
159.397126
11
74.721142
21
158.808110
0
LINE
8
Camada 1
10
74.721142
20
158.808110
11
74.147380
21
158.429889
0
LINE
8
Camada 1
10
74.147380
20
158.429889
11
73.323568
21
158.216561
0
LINE
8
Camada 1
10
73.323568
20
158.216561
11
70.746948
21
158.100980
0
LINE
8
Camada 1
10
70.746948
20
158.100980
11
68.228619
21
158.203842
0
LINE
8
Camada 1
10
68.228619
20
158.203842
11
67.679575
21
158.434219
0
LINE
8
Camada 1
10
67.679575
20
158.434219
11
67.187528
21
158.874380
0
LINE
8
Camada 1
10
67.187528
20
158.874380
11
67.187530
21
158.874380
0
LINE
8
Camada 1
10
81.310530
20
163.067800
11
80.773724
21
163.634087
0
LINE
8
Camada 1
10
80.773724
20
163.634087
11
80.446519
21
164.302406
0
LINE
8
Camada 1
10
80.446519
20
164.302406
11
80.342484
21
165.028868
0
LINE
8
Camada 1
10
80.342484
20
165.028868
11
80.475190
21
165.769580
0
LINE
8
Camada 1
10
80.475190
20
165.769580
11
80.727217
21
166.267000
0
LINE
8
Camada 1
10
80.727217
20
166.267000
11
81.083307
21
166.655956
0
LINE
8
Camada 1
10
81.083307
20
166.655956
11
82.008802
21
167.089581
0
LINE
8
Camada 1
10
82.008802
20
167.089581
11
83.053931
21
167.032655
0
LINE
8
Camada 1
10
83.053931
20
167.032655
11
84.020950
21
166.447380
0
LINE
8
Camada 1
10
84.020950
20
166.447380
11
84.579607
21
165.553879
0
LINE
8
Camada 1
10
84.579607
20
165.553879
11
84.637684
21
164.594639
0
LINE
8
Camada 1
10
84.637684
20
164.594639
11
84.220348
21
163.699552
0
LINE
8
Camada 1
10
84.220348
20
163.699552
11
83.352763
21
162.998510
0
LINE
8
Camada 1
10
83.352763
20
162.998510
11
82.720620
21
162.715603
0
LINE
8
Camada 1
10
82.720620
20
162.715603
11
82.233289
21
162.630687
0
LINE
8
Camada 1
10
82.233289
20
162.630687
11
81.795137
21
162.747008
0
LINE
8
Camada 1
10
81.795137
20
162.747008
11
81.310533
21
163.067810
0
LINE
8
Camada 1
10
81.310533
20
163.067810
11
81.310530
21
163.067800
0
LINE
8
Camada 1
10
95.638530
20
163.248330
11
94.989097
21
164.186400
0
LINE
8
Camada 1
10
94.989097
20
164.186400
11
95.184457
21
164.592507
0
LINE
8
Camada 1
10
95.184457
20
164.592507
11
95.642349
21
165.120647
0
LINE
8
Camada 1
10
95.642349
20
165.120647
11
96.170490
21
165.578540
0
LINE
8
Camada 1
10
96.170490
20
165.578540
11
96.576597
21
165.773900
0
LINE
8
Camada 1
10
96.576597
20
165.773900
11
96.982705
21
165.578540
0
LINE
8
Camada 1
10
96.982705
20
165.578540
11
97.510846
21
165.120647
0
LINE
8
Camada 1
10
97.510846
20
165.120647
11
97.968737
21
164.592507
0
LINE
8
Camada 1
10
97.968737
20
164.592507
11
98.164097
21
164.186400
0
LINE
8
Camada 1
10
98.164097
20
164.186400
11
97.968737
21
163.780289
0
LINE
8
Camada 1
10
97.968737
20
163.780289
11
97.510844
21
163.252149
0
LINE
8
Camada 1
10
97.510844
20
163.252149
11
96.982704
21
162.794259
0
LINE
8
Camada 1
10
96.982704
20
162.794259
11
96.576597
21
162.598900
0
LINE
8
Camada 1
10
96.576597
20
162.598900
11
95.638530
21
163.248330
0
LINE
8
Camada 1
10
95.638530
20
163.248330
11
95.638530
21
163.248330
0
LINE
8
Camada 1
10
101.194780
20
163.248330
11
100.545340
21
164.138690
0
LINE
8
Camada 1
10
100.545340
20
164.138690
11
100.721723
21
164.578585
0
LINE
8
Camada 1
10
100.721723
20
164.578585
11
101.139565
21
165.120200
0
LINE
8
Camada 1
10
101.139565
20
165.120200
11
101.631904
21
165.579863
0
LINE
8
Camada 1
10
101.631904
20
165.579863
11
102.031780
21
165.773900
0
LINE
8
Camada 1
10
102.031780
20
165.773900
11
102.486394
21
165.585638
0
LINE
8
Camada 1
10
102.486394
20
165.585638
11
103.045639
21
165.139577
0
LINE
8
Camada 1
10
103.045639
20
165.139577
11
103.520095
21
164.613803
0
LINE
8
Camada 1
10
103.520095
20
164.613803
11
103.720340
21
164.186400
0
LINE
8
Camada 1
10
103.720340
20
164.186400
11
103.070910
21
163.248330
0
LINE
8
Camada 1
10
103.070910
20
163.248330
11
102.132840
21
162.598900
0
LINE
8
Camada 1
10
102.132840
20
162.598900
11
101.194780
21
163.248330
0
LINE
8
Camada 1
10
101.194780
20
163.248330
11
101.194780
21
163.248330
0
LINE
8
Camada 1
10
106.751030
20
163.248330
11
106.101590
21
164.186400
0
LINE
8
Camada 1
10
106.101590
20
164.186400
11
106.751030
21
165.124460
0
LINE
8
Camada 1
10
106.751030
20
165.124460
11
107.689090
21
165.773900
0
LINE
8
Camada 1
10
107.689090
20
165.773900
11
108.627160
21
165.124460
0
LINE
8
Camada 1
10
108.627160
20
165.124460
11
109.276590
21
164.186400
0
LINE
8
Camada 1
10
109.276590
20
164.186400
11
108.627160
21
163.248330
0
LINE
8
Camada 1
10
108.627160
20
163.248330
11
107.689090
21
162.598900
0
LINE
8
Camada 1
10
107.689090
20
162.598900
11
106.751030
21
163.248330
0
LINE
8
Camada 1
10
106.751030
20
163.248330
11
106.751030
21
163.248330
0
LINE
8
Camada 1
10
112.307280
20
163.248330
11
111.657840
21
164.186400
0
LINE
8
Camada 1
10
111.657840
20
164.186400
11
112.307280
21
165.124460
0
LINE
8
Camada 1
10
112.307280
20
165.124460
11
113.245340
21
165.773900
0
LINE
8
Camada 1
10
113.245340
20
165.773900
11
114.183410
21
165.124460
0
LINE
8
Camada 1
10
114.183410
20
165.124460
11
114.832840
21
164.186400
0
LINE
8
Camada 1
10
114.832840
20
164.186400
11
114.183410
21
163.248330
0
LINE
8
Camada 1
10
114.183410
20
163.248330
11
113.245340
21
162.598900
0
LINE
8
Camada 1
10
113.245340
20
162.598900
11
112.307280
21
163.248330
0
LINE
8
Camada 1
10
112.307280
20
163.248330
11
112.307280
21
163.248330
0
LINE
8
Camada 1
10
128.061980
20
164.193460
11
128.137961
21
165.514219
0
LINE
8
Camada 1
10
128.137961
20
165.514219
11
128.291248
21
165.630674
0
LINE
8
Camada 1
10
128.291248
20
165.630674
11
128.573230
21
165.518900
0
LINE
8
Camada 1
10
128.573230
20
165.518900
11
129.140485
21
164.974407
0
LINE
8
Camada 1
10
129.140485
20
164.974407
11
129.333909
21
164.254292
0
LINE
8
Camada 1
10
129.333909
20
164.254292
11
129.152218
21
163.518439
0
LINE
8
Camada 1
10
129.152218
20
163.518439
11
128.594130
21
162.926730
0
LINE
8
Camada 1
10
128.594130
20
162.926730
11
128.295379
21
162.774038
0
LINE
8
Camada 1
10
128.295379
20
162.774038
11
128.136419
21
162.864489
0
LINE
8
Camada 1
10
128.136419
20
162.864489
11
128.062010
21
164.193460
0
LINE
8
Camada 1
10
128.062010
20
164.193460
11
128.061980
21
164.193460
0
LINE
8
Camada 1
10
133.209330
20
163.248330
11
132.559900
21
164.186400
0
LINE
8
Camada 1
10
132.559900
20
164.186400
11
133.209330
21
165.124460
0
LINE
8
Camada 1
10
133.209330
20
165.124460
11
134.147400
21
165.773900
0
LINE
8
Camada 1
10
134.147400
20
165.773900
11
135.085460
21
165.124460
0
LINE
8
Camada 1
10
135.085460
20
165.124460
11
135.734900
21
164.186400
0
LINE
8
Camada 1
10
135.734900
20
164.186400
11
135.085460
21
163.248330
0
LINE
8
Camada 1
10
135.085460
20
163.248330
11
134.147400
21
162.598900
0
LINE
8
Camada 1
10
134.147400
20
162.598900
11
133.209330
21
163.248330
0
LINE
8
Camada 1
10
133.209330
20
163.248330
11
133.209330
21
163.248330
0
LINE
8
Camada 1
10
139.294750
20
163.248330
11
138.645310
21
164.186400
0
LINE
8
Camada 1
10
138.645310
20
164.186400
11
139.294750
21
165.124460
0
LINE
8
Camada 1
10
139.294750
20
165.124460
11
140.232810
21
165.773900
0
LINE
8
Camada 1
10
140.232810
20
165.773900
11
141.170880
21
165.124460
0
LINE
8
Camada 1
10
141.170880
20
165.124460
11
141.820310
21
164.186400
0
LINE
8
Camada 1
10
141.820310
20
164.186400
11
141.170880
21
163.248330
0
LINE
8
Camada 1
10
141.170880
20
163.248330
11
140.232810
21
162.598900
0
LINE
8
Camada 1
10
140.232810
20
162.598900
11
139.294750
21
163.248330
0
LINE
8
Camada 1
10
139.294750
20
163.248330
11
139.294750
21
163.248330
0
LINE
8
Camada 1
10
89.844650
20
163.451520
11
89.432773
21
164.377560
0
LINE
8
Camada 1
10
89.432773
20
164.377560
11
89.592004
21
164.791906
0
LINE
8
Camada 1
10
89.592004
20
164.791906
11
89.978655
21
165.250101
0
LINE
8
Camada 1
10
89.978655
20
165.250101
11
90.456168
21
165.621111
0
LINE
8
Camada 1
10
90.456168
20
165.621111
11
90.887983
21
165.773900
0
LINE
8
Camada 1
10
90.887983
20
165.773900
11
91.352473
21
165.614002
0
LINE
8
Camada 1
10
91.352473
20
165.614002
11
91.826355
21
165.216789
0
LINE
8
Camada 1
10
91.826355
20
165.216789
11
92.194854
21
164.705978
0
LINE
8
Camada 1
10
92.194854
20
164.705978
11
92.343193
21
164.205290
0
LINE
8
Camada 1
10
92.343193
20
164.205290
11
92.265947
21
163.765375
0
LINE
8
Camada 1
10
92.265947
20
163.765375
11
92.056040
21
163.404470
0
LINE
8
Camada 1
10
92.056040
20
163.404470
11
91.369240
21
162.959207
0
LINE
8
Camada 1
10
91.369240
20
162.959207
11
90.544782
21
162.948544
0
LINE
8
Camada 1
10
90.544782
20
162.948544
11
90.162802
21
163.130887
0
LINE
8
Camada 1
10
90.162802
20
163.130887
11
89.844653
21
163.451520
0
LINE
8
Camada 1
10
89.844653
20
163.451520
11
89.844650
21
163.451520
0
LINE
8
Camada 1
10
117.816650
20
163.194210
11
117.507433
21
163.696369
0
LINE
8
Camada 1
10
117.507433
20
163.696369
11
117.398151
21
164.162689
0
LINE
8
Camada 1
10
117.398151
20
164.162689
11
117.488244
21
164.620104
0
LINE
8
Camada 1
10
117.488244
20
164.620104
11
117.777150
21
165.095550
0
LINE
8
Camada 1
10
117.777150
20
165.095550
11
118.272429
21
165.627142
0
LINE
8
Camada 1
10
118.272429
20
165.627142
11
118.587299
21
165.690749
0
LINE
8
Camada 1
10
118.587299
20
165.690749
11
118.753179
21
165.262541
0
LINE
8
Camada 1
10
118.753179
20
165.262541
11
118.801490
21
164.318690
0
LINE
8
Camada 1
10
118.801490
20
164.318690
11
118.732535
21
163.413034
0
LINE
8
Camada 1
10
118.732535
20
163.413034
11
118.535538
21
162.912467
0
LINE
8
Camada 1
10
118.535538
20
162.912467
11
118.225302
21
162.833892
0
LINE
8
Camada 1
10
118.225302
20
162.833892
11
117.816630
21
163.194210
0
LINE
8
Camada 1
10
117.816630
20
163.194210
11
117.816650
21
163.194210
0
LINE
8
Camada 1
10
145.407150
20
163.451520
11
145.096555
21
164.025987
0
LINE
8
Camada 1
10
145.096555
20
164.025987
11
145.021939
21
164.531067
0
LINE
8
Camada 1
10
145.021939
20
164.531067
11
145.183968
21
164.973999
0
LINE
8
Camada 1
10
145.183968
20
164.973999
11
145.583310
21
165.362020
0
LINE
8
Camada 1
10
145.583310
20
165.362020
11
146.118965
21
165.685451
0
LINE
8
Camada 1
10
146.118965
20
165.685451
11
146.420364
21
165.665021
0
LINE
8
Camada 1
10
146.420364
20
165.665021
11
146.553101
21
165.232258
0
LINE
8
Camada 1
10
146.553101
20
165.232258
11
146.582770
21
164.318690
0
LINE
8
Camada 1
10
146.582770
20
164.318690
11
146.503756
21
163.353770
0
LINE
8
Camada 1
10
146.503756
20
163.353770
11
146.274099
21
162.882156
0
LINE
8
Camada 1
10
146.274099
20
162.882156
11
145.904872
21
162.912017
0
LINE
8
Camada 1
10
145.904872
20
162.912017
11
145.407150
21
163.451520
0
LINE
8
Camada 1
10
145.407150
20
163.451520
11
145.407150
21
163.451520
0
LINE
8
Camada 1
10
71.176550
20
118.810320
11
71.176500
21
124.234000
0
LINE
8
Camada 1
10
71.176500
20
124.234000
11
64.032700
21
124.234000
0
LINE
8
Camada 1
10
64.032700
20
124.234000
11
56.889000
21
124.234000
0
LINE
8
Camada 1
10
56.889000
20
124.234000
11
56.889000
21
118.810000
0
LINE
8
Camada 1
10
56.889000
20
118.810000
11
56.889000
21
113.386000
0
LINE
8
Camada 1
10
56.889000
20
113.386000
11
64.032700
21
113.386000
0
LINE
8
Camada 1
10
64.032700
20
113.386000
11
71.176500
21
113.386000
0
LINE
8
Camada 1
10
71.176500
20
113.386000
11
71.176550
21
118.810320
0
LINE
8
Camada 1
10
71.176550
20
144.078020
11
71.176500
21
150.428000
0
LINE
8
Camada 1
10
71.176500
20
150.428000
11
63.239000
21
150.428000
0
LINE
8
Camada 1
10
63.239000
20
150.428000
11
55.301500
21
150.428000
0
LINE
8
Camada 1
10
55.301500
20
150.428000
11
55.301500
21
144.078000
0
LINE
8
Camada 1
10
55.301500
20
144.078000
11
55.301500
21
137.728000
0
LINE
8
Camada 1
10
55.301500
20
137.728000
11
63.239000
21
137.728000
0
LINE
8
Camada 1
10
63.239000
20
137.728000
11
71.176500
21
137.728000
0
LINE
8
Camada 1
10
71.176500
20
137.728000
11
71.176550
21
144.078020
0
LINE
8
Camada 1
10
46.834850
20
151.883230
11
46.967142
21
181.516530
0
LINE
8
Camada 1
10
46.967142
20
181.516530
11
47.592424
21
182.899520
0
LINE
8
Camada 1
10
47.592424
20
182.899520
11
48.322247
21
184.138212
0
LINE
8
Camada 1
10
48.322247
20
184.138212
11
49.307527
21
185.253962
0
LINE
8
Camada 1
10
49.307527
20
185.253962
11
50.473439
21
186.175894
0
LINE
8
Camada 1
10
50.473439
20
186.175894
11
51.745154
21
186.833130
0
LINE
8
Camada 1
10
51.745154
20
186.833130
11
52.336507
21
186.995512
0
LINE
8
Camada 1
10
52.336507
20
186.995512
11
53.559708
21
187.118683
0
LINE
8
Camada 1
10
53.559708
20
187.118683
11
60.314929
21
187.269041
0
LINE
8
Camada 1
10
60.314929
20
187.269041
11
107.953554
21
187.337370
0
LINE
8
Camada 1
10
107.953554
20
187.337370
11
155.592217
21
187.269052
0
LINE
8
Camada 1
10
155.592217
20
187.269052
11
162.347431
21
187.118695
0
LINE
8
Camada 1
10
162.347431
20
187.118695
11
163.570620
21
186.995520
0
LINE
8
Camada 1
10
163.570620
20
186.995520
11
164.161954
21
186.833130
0
LINE
8
Camada 1
10
164.161954
20
186.833130
11
165.433674
21
186.175894
0
LINE
8
Camada 1
10
165.433674
20
186.175894
11
166.599586
21
185.253962
0
LINE
8
Camada 1
10
166.599586
20
185.253962
11
167.584865
21
184.138212
0
LINE
8
Camada 1
10
167.584865
20
184.138212
11
168.314684
21
182.899520
0
LINE
8
Camada 1
10
168.314684
20
182.899520
11
168.939964
21
181.516530
0
LINE
8
Camada 1
10
168.939964
20
181.516530
11
169.072264
21
151.883230
0
LINE
8
Camada 1
10
169.072264
20
151.883230
11
169.204554
21
122.249930
0
LINE
8
Camada 1
10
169.204554
20
122.249930
11
183.920654
21
122.181530
0
LINE
8
Camada 1
10
183.920654
20
122.181530
11
198.636754
21
122.113230
0
LINE
8
Camada 1
10
198.636754
20
122.113230
11
200.055734
21
122.854510
0
LINE
8
Camada 1
10
200.055734
20
122.854510
11
201.309897
21
123.700549
0
LINE
8
Camada 1
10
201.309897
20
123.700549
11
202.272984
21
124.731590
0
LINE
8
Camada 1
10
202.272984
20
124.731590
11
203.071244
21
125.867380
0
LINE
8
Camada 1
10
203.071244
20
125.867380
11
203.071000
21
200.391000
0
LINE
8
Camada 1
10
203.071000
20
200.391000
11
203.071000
21
274.914000
0
LINE
8
Camada 1
10
203.071000
20
274.914000
11
202.322440
21
276.017020
0
LINE
8
Camada 1
10
202.322440
20
276.017020
11
201.476256
21
277.016065
0
LINE
8
Camada 1
10
201.476256
20
277.016065
11
200.492980
21
277.869100
0
LINE
8
Camada 1
10
200.492980
20
277.869100
11
199.412080
21
278.618164
0
LINE
8
Camada 1
10
199.412080
20
278.618164
11
107.954000
21
278.619000
0
LINE
8
Camada 1
10
107.954000
20
278.619000
11
16.494800
21
278.619000
0
LINE
8
Camada 1
10
16.494800
20
278.619000
11
15.413900
21
277.869936
0
LINE
8
Camada 1
10
15.413900
20
277.869936
11
14.430626
21
277.016899
0
LINE
8
Camada 1
10
14.430626
20
277.016899
11
13.584440
21
276.017856
0
LINE
8
Camada 1
10
13.584440
20
276.017856
11
12.835879
21
274.914836
0
LINE
8
Camada 1
10
12.835879
20
274.914836
11
12.835900
21
200.391000
0
LINE
8
Camada 1
10
12.835900
20
200.391000
11
12.835900
21
125.867000
0
LINE
8
Camada 1
10
12.835900
20
125.867000
11
13.634169
21
124.731210
0
LINE
8
Camada 1
10
13.634169
20
124.731210
11
14.597256
21
123.700169
0
LINE
8
Camada 1
10
14.597256
20
123.700169
11
15.851419
21
122.854130
0
LINE
8
Camada 1
10
15.851419
20
122.854130
11
17.270399
21
122.112850
0
LINE
8
Camada 1
10
17.270399
20
122.112850
11
31.986499
21
122.181150
0
LINE
8
Camada 1
10
31.986499
20
122.181150
11
46.702599
21
122.249550
0
LINE
8
Camada 1
10
46.702599
20
122.249550
11
46.834850
21
151.883230
0
LINE
8
Camada 1
10
93.401500
20
206.387000
11
93.401500
21
212.935000
0
LINE
8
Camada 1
10
93.401500
20
212.935000
11
96.510350
21
212.820065
0
LINE
8
Camada 1
10
96.510350
20
212.820065
11
98.902246
21
212.643024
0
LINE
8
Camada 1
10
98.902246
20
212.643024
11
100.228670
21
212.373692
0
LINE
8
Camada 1
10
100.228670
20
212.373692
11
100.730299
21
212.003394
0
LINE
8
Camada 1
10
100.730299
20
212.003394
11
101.150481
21
211.501338
0
LINE
8
Camada 1
10
101.150481
20
211.501338
11
101.711973
21
210.234526
0
LINE
8
Camada 1
10
101.711973
20
210.234526
11
101.844086
21
208.838403
0
LINE
8
Camada 1
10
101.844086
20
208.838403
11
101.727544
21
208.174707
0
LINE
8
Camada 1
10
101.727544
20
208.174707
11
101.477760
21
207.578112
0
LINE
8
Camada 1
10
101.477760
20
207.578112
11
100.919020
21
206.572462
0
LINE
8
Camada 1
10
100.919020
20
206.572462
11
100.972605
21
206.138416
0
LINE
8
Camada 1
10
100.972605
20
206.138416
11
101.356400
21
205.575208
0
LINE
8
Camada 1
10
101.356400
20
205.575208
11
101.802434
21
204.775032
0
LINE
8
Camada 1
10
101.802434
20
204.775032
11
101.980513
21
203.734032
0
LINE
8
Camada 1
10
101.980513
20
203.734032
11
101.883232
21
202.647197
0
LINE
8
Camada 1
10
101.883232
20
202.647197
11
101.503190
21
201.709518
0
LINE
8
Camada 1
10
101.503190
20
201.709518
11
100.813700
21
200.870468
0
LINE
8
Camada 1
10
100.813700
20
200.870468
11
99.927290
21
200.359758
0
LINE
8
Camada 1
10
99.927290
20
200.359758
11
98.580620
21
200.084728
0
LINE
8
Camada 1
10
98.580620
20
200.084728
11
96.510350
21
199.952718
0
LINE
8
Camada 1
10
96.510350
20
199.952718
11
93.401500
21
199.839971
0
LINE
8
Camada 1
10
93.401500
20
199.839971
11
93.401500
21
206.387000
0
LINE
8
Camada 1
10
99.467710
20
202.718510
11
99.864057
21
203.316731
0
LINE
8
Camada 1
10
99.864057
20
203.316731
11
99.980151
21
203.809439
0
LINE
8
Camada 1
10
99.980151
20
203.809439
11
99.811472
21
204.283305
0
LINE
8
Camada 1
10
99.811472
20
204.283305
11
99.353500
21
204.825000
0
LINE
8
Camada 1
10
99.353500
20
204.825000
11
98.955006
21
205.170203
0
LINE
8
Camada 1
10
98.955006
20
205.170203
11
98.542825
21
205.359875
0
LINE
8
Camada 1
10
98.542825
20
205.359875
11
97.170700
21
205.408000
0
LINE
8
Camada 1
10
97.170700
20
205.408000
11
95.650490
21
205.328690
0
LINE
8
Camada 1
10
95.650490
20
205.328690
11
95.568520
21
204.039390
0
LINE
8
Camada 1
10
95.568520
20
204.039390
11
95.540809
21
202.917028
0
LINE
8
Camada 1
10
95.540809
20
202.917028
11
95.733698
21
202.313016
0
LINE
8
Camada 1
10
95.733698
20
202.313016
11
96.287563
21
202.067694
0
LINE
8
Camada 1
10
96.287563
20
202.067694
11
97.342780
21
202.021400
0
LINE
8
Camada 1
10
97.342780
20
202.021400
11
98.744749
21
202.139803
0
LINE
8
Camada 1
10
98.744749
20
202.139803
11
99.127242
21
202.350673
0
LINE
8
Camada 1
10
99.127242
20
202.350673
11
99.467750
21
202.718540
0
LINE
8
Camada 1
10
99.467750
20
202.718540
11
99.467710
21
202.718510
0
LINE
8
Camada 1
10
99.222330
20
207.842200
11
99.600176
21
208.429221
0
LINE
8
Camada 1
10
99.600176
20
208.429221
11
99.731979
21
209.114391
0
LINE
8
Camada 1
10
99.731979
20
209.114391
11
99.616392
21
209.785123
0
LINE
8
Camada 1
10
99.616392
20
209.785123
11
99.252070
21
210.328830
0
LINE
8
Camada 1
10
99.252070
20
210.328830
11
98.525288
21
210.665746
0
LINE
8
Camada 1
10
98.525288
20
210.665746
11
97.201550
21
210.700567
0
LINE
8
Camada 1
10
97.201550
20
210.700567
11
95.650450
21
210.620327
0
LINE
8
Camada 1
10
95.650450
20
210.620327
11
95.568480
21
209.331027
0
LINE
8
Camada 1
10
95.568480
20
209.331027
11
95.541157
21
208.216963
0
LINE
8
Camada 1
10
95.541157
20
208.216963
11
95.724330
21
207.612030
0
LINE
8
Camada 1
10
95.724330
20
207.612030
11
96.244870
21
207.362097
0
LINE
8
Camada 1
10
96.244870
20
207.362097
11
97.229650
21
207.313037
0
LINE
8
Camada 1
10
97.229650
20
207.313037
11
98.491910
21
207.427016
0
LINE
8
Camada 1
10
98.491910
20
207.427016
11
99.222330
21
207.842204
0
LINE
8
Camada 1
10
99.222330
20
207.842204
11
99.222330
21
207.842200
0
LINE
8
Camada 1
10
108.879620
20
200.185410
11
107.964648
21
200.614592
0
LINE
8
Camada 1
10
107.964648
20
200.614592
11
107.015820
21
201.327029
0
LINE
8
Camada 1
10
107.015820
20
201.327029
11
106.154758
21
202.215164
0
LINE
8
Camada 1
10
106.154758
20
202.215164
11
105.503080
21
203.171440
0
LINE
8
Camada 1
10
105.503080
20
203.171440
11
105.036848
21
204.614695
0
LINE
8
Camada 1
10
105.036848
20
204.614695
11
104.880642
21
206.384654
0
LINE
8
Camada 1
10
104.880642
20
206.384654
11
105.034655
21
208.153861
0
LINE
8
Camada 1
10
105.034655
20
208.153861
11
105.499080
21
209.594860
0
LINE
8
Camada 1
10
105.499080
20
209.594860
11
106.517110
21
211.040373
0
LINE
8
Camada 1
10
106.517110
20
211.040373
11
107.819200
21
212.062194
0
LINE
8
Camada 1
10
107.819200
20
212.062194
11
109.420743
21
212.668955
0
LINE
8
Camada 1
10
109.420743
20
212.668955
11
111.337130
21
212.869290
0
LINE
8
Camada 1
10
111.337130
20
212.869290
11
112.568821
21
212.776074
0
LINE
8
Camada 1
10
112.568821
20
212.776074
11
113.704964
21
212.504455
0
LINE
8
Camada 1
10
113.704964
20
212.504455
11
114.730501
21
212.066476
0
LINE
8
Camada 1
10
114.730501
20
212.066476
11
115.630372
21
211.474181
0
LINE
8
Camada 1
10
115.630372
20
211.474181
11
116.389521
21
210.739614
0
LINE
8
Camada 1
10
116.389521
20
210.739614
11
116.992887
21
209.874817
0
LINE
8
Camada 1
10
116.992887
20
209.874817
11
117.425413
21
208.891835
0
LINE
8
Camada 1
10
117.425413
20
208.891835
11
117.672040
21
207.802710
0
LINE
8
Camada 1
10
117.672040
20
207.802710
11
117.863729
21
206.932625
0
LINE
8
Camada 1
10
117.863729
20
206.932625
11
118.113460
21
206.457190
0
LINE
8
Camada 1
10
118.113460
20
206.457190
11
118.269922
21
206.306432
0
LINE
8
Camada 1
10
118.269922
20
206.306432
11
118.108460
21
206.258752
0
LINE
8
Camada 1
10
118.108460
20
206.258752
11
117.859396
21
205.902952
0
LINE
8
Camada 1
10
117.859396
20
205.902952
11
117.676700
21
205.053042
0
LINE
8
Camada 1
10
117.676700
20
205.053042
11
117.445456
21
203.961173
0
LINE
8
Camada 1
10
117.445456
20
203.961173
11
117.020171
21
202.967910
0
LINE
8
Camada 1
10
117.020171
20
202.967910
11
116.419338
21
202.088422
0
LINE
8
Camada 1
10
116.419338
20
202.088422
11
115.661452
21
201.337880
0
LINE
8
Camada 1
10
115.661452
20
201.337880
11
114.765007
21
200.731452
0
LINE
8
Camada 1
10
114.765007
20
200.731452
11
113.748495
21
200.284310
0
LINE
8
Camada 1
10
113.748495
20
200.284310
11
112.630412
21
200.011624
0
LINE
8
Camada 1
10
112.630412
20
200.011624
11
111.429250
21
199.928562
0
LINE
8
Camada 1
10
111.429250
20
199.928562
11
108.879780
21
200.185412
0
LINE
8
Camada 1
10
108.879780
20
200.185412
11
108.879620
21
200.185410
0
LINE
8
Camada 1
10
112.463930
20
202.021360
11
113.090776
21
202.259439
0
LINE
8
Camada 1
10
113.090776
20
202.259439
11
113.897791
21
202.856854
0
LINE
8
Camada 1
10
113.897791
20
202.856854
11
114.682676
21
203.638369
0
LINE
8
Camada 1
10
114.682676
20
203.638369
11
115.243130
21
204.428750
0
LINE
8
Camada 1
10
115.243130
20
204.428750
11
115.513879
21
205.309020
0
LINE
8
Camada 1
10
115.513879
20
205.309020
11
115.626490
21
206.384390
0
LINE
8
Camada 1
10
115.626490
20
206.384390
11
115.417460
21
207.836726
0
LINE
8
Camada 1
10
115.417460
20
207.836726
11
114.842988
21
209.048645
0
LINE
8
Camada 1
10
114.842988
20
209.048645
11
113.982005
21
209.987745
0
LINE
8
Camada 1
10
113.982005
20
209.987745
11
112.913439
21
210.621625
0
LINE
8
Camada 1
10
112.913439
20
210.621625
11
111.716219
21
210.917883
0
LINE
8
Camada 1
10
111.716219
20
210.917883
11
110.469275
21
210.844118
0
LINE
8
Camada 1
10
110.469275
20
210.844118
11
109.251535
21
210.367927
0
LINE
8
Camada 1
10
109.251535
20
210.367927
11
108.141930
21
209.456910
0
LINE
8
Camada 1
10
108.141930
20
209.456910
11
107.412188
21
208.410639
0
LINE
8
Camada 1
10
107.412188
20
208.410639
11
107.006523
21
207.292790
0
LINE
8
Camada 1
10
107.006523
20
207.292790
11
106.908666
21
206.155512
0
LINE
8
Camada 1
10
106.908666
20
206.155512
11
107.102349
21
205.050959
0
LINE
8
Camada 1
10
107.102349
20
205.050959
11
107.571304
21
204.031280
0
LINE
8
Camada 1
10
107.571304
20
204.031280
11
108.299263
21
203.148629
0
LINE
8
Camada 1
10
108.299263
20
203.148629
11
109.269957
21
202.455155
0
LINE
8
Camada 1
10
109.269957
20
202.455155
11
110.467120
21
202.003010
0
LINE
8
Camada 1
10
110.467120
20
202.003010
11
111.613240
21
201.916660
0
LINE
8
Camada 1
10
111.613240
20
201.916660
11
112.463930
21
202.021364
0
LINE
8
Camada 1
10
112.463930
20
202.021364
11
112.463930
21
202.021360
0
LINE
8
Camada 1
10
123.564030
20
205.011150
11
123.489655
21
208.995843
0
LINE
8
Camada 1
10
123.489655
20
208.995843
11
123.246530
21
210.435110
0
LINE
8
Camada 1
10
123.246530
20
210.435110
11
122.610375
21
210.659344
0
LINE
8
Camada 1
10
122.610375
20
210.659344
11
121.526740
21
210.752610
0
LINE
8
Camada 1
10
121.526740
20
210.752610
11
120.124000
21
210.753000
0
LINE
8
Camada 1
10
120.124000
20
210.753000
11
120.124000
21
211.679000
0
LINE
8
Camada 1
10
120.124000
20
211.679000
11
120.124000
21
212.605000
0
LINE
8
Camada 1
10
120.124000
20
212.605000
11
124.490000
21
212.605000
0
LINE
8
Camada 1
10
124.490000
20
212.605000
11
128.856000
21
212.605000
0
LINE
8
Camada 1
10
128.856000
20
212.605000
11
128.856000
21
211.692000
0
LINE
8
Camada 1
10
128.856000
20
211.692000
11
128.856000
21
210.778000
0
LINE
8
Camada 1
10
128.856000
20
210.778000
11
127.202350
21
210.699230
0
LINE
8
Camada 1
10
127.202350
20
210.699230
11
125.548710
21
210.620460
0
LINE
8
Camada 1
10
125.548710
20
210.620460
11
125.477110
21
205.262650
0
LINE
8
Camada 1
10
125.477110
20
205.262650
11
125.405510
21
199.904840
0
LINE
8
Camada 1
10
125.405510
20
199.904840
11
124.485000
21
199.905000
0
LINE
8
Camada 1
10
124.485000
20
199.905000
11
123.564000
21
199.905000
0
LINE
8
Camada 1
10
123.564000
20
199.905000
11
123.564030
21
205.011150
0
LINE
8
Camada 1
10
101.080000
20
229.674000
11
98.546581
21
232.341423
0
LINE
8
Camada 1
10
98.546581
20
232.341423
11
97.349940
21
233.362550
0
LINE
8
Camada 1
10
97.349940
20
233.362550
11
97.177124
21
232.211090
0
LINE
8
Camada 1
10
97.177124
20
232.211090
11
97.105245
21
229.655060
0
LINE
8
Camada 1
10
97.105245
20
229.655060
11
97.105600
21
226.099000
0
LINE
8
Camada 1
10
97.105600
20
226.099000
11
96.179600
21
226.099000
0
LINE
8
Camada 1
10
96.179600
20
226.099000
11
95.253600
21
226.099000
0
LINE
8
Camada 1
10
95.253600
20
226.099000
11
95.253600
21
232.770000
0
LINE
8
Camada 1
10
95.253600
20
232.770000
11
95.319418
21
238.129743
0
LINE
8
Camada 1
10
95.319418
20
238.129743
11
95.427272
21
238.994977
0
LINE
8
Camada 1
10
95.427272
20
238.994977
11
95.507396
21
239.106299
0
LINE
8
Camada 1
10
95.507396
20
239.106299
11
95.607827
21
239.053850
0
LINE
8
Camada 1
10
95.607827
20
239.053850
11
99.081357
21
235.033770
0
LINE
8
Camada 1
10
99.081357
20
235.033770
11
101.352116
21
232.510080
0
LINE
8
Camada 1
10
101.352116
20
232.510080
11
102.431297
21
231.543660
0
LINE
8
Camada 1
10
102.431297
20
231.543660
11
102.594186
21
232.688983
0
LINE
8
Camada 1
10
102.594186
20
232.688983
11
102.661937
21
235.242460
0
LINE
8
Camada 1
10
102.661937
20
235.242460
11
102.662000
21
238.799000
0
LINE
8
Camada 1
10
102.662000
20
238.799000
11
103.720000
21
238.799000
0
LINE
8
Camada 1
10
103.720000
20
238.799000
11
104.779000
21
238.799000
0
LINE
8
Camada 1
10
104.779000
20
238.799000
11
104.779000
21
232.317000
0
LINE
8
Camada 1
10
104.779000
20
232.317000
11
104.672590
21
225.834710
0
LINE
8
Camada 1
10
104.672590
20
225.834710
11
101.080830
21
229.674490
0
LINE
8
Camada 1
10
101.080830
20
229.674490
11
101.080000
21
229.674000
0
LINE
8
Camada 1
10
111.375300
20
226.826410
11
109.936907
21
227.878928
0
LINE
8
Camada 1
10
109.936907
20
227.878928
11
108.914362
21
229.286330
0
LINE
8
Camada 1
10
108.914362
20
229.286330
11
108.306766
21
230.927714
0
LINE
8
Camada 1
10
108.306766
20
230.927714
11
108.113218
21
232.682179
0
LINE
8
Camada 1
10
108.113218
20
232.682179
11
108.332817
21
234.428822
0
LINE
8
Camada 1
10
108.332817
20
234.428822
11
108.964664
21
236.046743
0
LINE
8
Camada 1
10
108.964664
20
236.046743
11
110.007858
21
237.415039
0
LINE
8
Camada 1
10
110.007858
20
237.415039
11
110.683430
21
237.967797
0
LINE
8
Camada 1
10
110.683430
20
237.967797
11
111.461500
21
238.412810
0
LINE
8
Camada 1
10
111.461500
20
238.412810
11
113.382110
21
238.995719
0
LINE
8
Camada 1
10
113.382110
20
238.995719
11
115.382575
21
239.062967
0
LINE
8
Camada 1
10
115.382575
20
239.062967
11
117.275835
21
238.632027
0
LINE
8
Camada 1
10
117.275835
20
238.632027
11
118.123807
21
238.235196
0
LINE
8
Camada 1
10
118.123807
20
238.235196
11
118.874830
21
237.720369
0
LINE
8
Camada 1
10
118.874830
20
237.720369
11
119.890128
21
236.708247
0
LINE
8
Camada 1
10
119.890128
20
236.708247
11
120.559473
21
235.585710
0
LINE
8
Camada 1
10
120.559473
20
235.585710
11
120.927989
21
234.245698
0
LINE
8
Camada 1
10
120.927989
20
234.245698
11
121.040800
21
232.581149
0
LINE
8
Camada 1
10
121.040800
20
232.581149
11
120.928759
21
230.926002
0
LINE
8
Camada 1
10
120.928759
20
230.926002
11
120.565798
21
229.589573
0
LINE
8
Camada 1
10
120.565798
20
229.589573
11
119.911660
21
228.474841
0
LINE
8
Camada 1
10
119.911660
20
228.474841
11
118.926090
21
227.484789
0
LINE
8
Camada 1
10
118.926090
20
227.484789
11
118.143615
21
226.947618
0
LINE
8
Camada 1
10
118.143615
20
226.947618
11
117.266547
21
226.536185
0
LINE
8
Camada 1
10
117.266547
20
226.536185
11
115.325604
21
226.098991
0
LINE
8
Camada 1
10
115.325604
20
226.098991
11
113.297193
21
226.190114
0
LINE
8
Camada 1
10
113.297193
20
226.190114
11
112.310792
21
226.439079
0
LINE
8
Camada 1
10
112.310792
20
226.439079
11
111.375250
21
226.826464
0
LINE
8
Camada 1
10
111.375250
20
226.826464
11
111.375300
21
226.826410
0
LINE
8
Camada 1
10
116.815780
20
228.725110
11
117.675157
21
229.361206
0
LINE
8
Camada 1
10
117.675157
20
229.361206
11
118.320276
21
230.157628
0
LINE
8
Camada 1
10
118.320276
20
230.157628
11
118.747247
21
231.071830
0
LINE
8
Camada 1
10
118.747247
20
231.071830
11
118.952180
21
232.061268
0
LINE
8
Camada 1
10
118.952180
20
232.061268
11
118.931185
21
233.083395
0
LINE
8
Camada 1
10
118.931185
20
233.083395
11
118.680372
21
234.095666
0
LINE
8
Camada 1
10
118.680372
20
234.095666
11
118.195850
21
235.055536
0
LINE
8
Camada 1
10
118.195850
20
235.055536
11
117.473730
21
235.920460
0
LINE
8
Camada 1
10
117.473730
20
235.920460
11
116.582370
21
236.605089
0
LINE
8
Camada 1
10
116.582370
20
236.605089
11
115.638129
21
237.004169
0
LINE
8
Camada 1
10
115.638129
20
237.004169
11
114.630218
21
237.120550
0
LINE
8
Camada 1
10
114.630218
20
237.120550
11
113.547850
21
236.957080
0
LINE
8
Camada 1
10
113.547850
20
236.957080
11
112.176807
21
236.355789
0
LINE
8
Camada 1
10
112.176807
20
236.355789
11
111.168729
21
235.404937
0
LINE
8
Camada 1
10
111.168729
20
235.404937
11
110.546846
21
234.136161
0
LINE
8
Camada 1
10
110.546846
20
234.136161
11
110.334390
21
232.581100
0
LINE
8
Camada 1
10
110.334390
20
232.581100
11
110.486735
21
231.323591
0
LINE
8
Camada 1
10
110.486735
20
231.323591
11
110.914584
21
230.235568
0
LINE
8
Camada 1
10
110.914584
20
230.235568
11
111.574161
21
229.343075
0
LINE
8
Camada 1
10
111.574161
20
229.343075
11
112.421690
21
228.672157
0
LINE
8
Camada 1
10
112.421690
20
228.672157
11
113.413393
21
228.248859
0
LINE
8
Camada 1
10
113.413393
20
228.248859
11
114.505493
21
228.099224
0
LINE
8
Camada 1
10
114.505493
20
228.099224
11
115.654215
21
228.249296
0
LINE
8
Camada 1
10
115.654215
20
228.249296
11
116.815780
21
228.725120
0
LINE
8
Camada 1
10
116.815780
20
228.725120
11
116.815780
21
228.725110
0
LINE
8
Camada 1
10
90.165800
20
257.650000
11
90.094200
21
263.008000
0
LINE
8
Camada 1
10
90.094200
20
263.008000
11
88.440500
21
263.087000
0
LINE
8
Camada 1
10
88.440500
20
263.087000
11
86.786900
21
263.166000
0
LINE
8
Camada 1
10
86.786900
20
263.166000
11
86.786900
21
264.079000
0
LINE
8
Camada 1
10
86.786900
20
264.079000
11
86.786900
21
264.993000
0
LINE
8
Camada 1
10
86.786900
20
264.993000
11
91.152500
21
264.993000
0
LINE
8
Camada 1
10
91.152500
20
264.993000
11
95.518100
21
264.993000
0
LINE
8
Camada 1
10
95.518100
20
264.993000
11
95.518100
21
264.079000
0
LINE
8
Camada 1
10
95.518100
20
264.079000
11
95.518100
21
263.166000
0
LINE
8
Camada 1
10
95.518100
20
263.166000
11
93.864460
21
263.087230
0
LINE
8
Camada 1
10
93.864460
20
263.087230
11
92.210810
21
263.008460
0
LINE
8
Camada 1
10
92.210810
20
263.008460
11
92.139180
21
257.650650
0
LINE
8
Camada 1
10
92.139180
20
257.650650
11
92.067560
21
252.292840
0
LINE
8
Camada 1
10
92.067560
20
252.292840
11
91.152500
21
252.293000
0
LINE
8
Camada 1
10
91.152500
20
252.293000
11
90.237400
21
252.293000
0
LINE
8
Camada 1
10
90.237400
20
252.293000
11
90.165800
21
257.650000
0
LINE
8
Camada 1
10
98.428550
20
258.774480
11
98.428600
21
265.257000
0
LINE
8
Camada 1
10
98.428600
20
265.257000
11
101.339000
21
265.257000
0
LINE
8
Camada 1
10
101.339000
20
265.257000
11
104.249000
21
265.257000
0
LINE
8
Camada 1
10
104.249000
20
265.257000
11
104.249000
21
264.210000
0
LINE
8
Camada 1
10
104.249000
20
264.210000
11
104.249000
21
263.164000
0
LINE
8
Camada 1
10
104.249000
20
263.164000
11
102.330770
21
263.086260
0
LINE
8
Camada 1
10
102.330770
20
263.086260
11
100.412540
21
263.008520
0
LINE
8
Camada 1
10
100.412540
20
263.008520
11
100.413000
21
261.421000
0
LINE
8
Camada 1
10
100.413000
20
261.421000
11
100.413000
21
259.833000
0
LINE
8
Camada 1
10
100.413000
20
259.833000
11
102.066650
21
259.754230
0
LINE
8
Camada 1
10
102.066650
20
259.754230
11
103.720290
21
259.675460
0
LINE
8
Camada 1
10
103.720290
20
259.675460
11
103.720000
21
258.775000
0
LINE
8
Camada 1
10
103.720000
20
258.775000
11
103.720000
21
257.874000
0
LINE
8
Camada 1
10
103.720000
20
257.874000
11
102.066360
21
257.795230
0
LINE
8
Camada 1
10
102.066360
20
257.795230
11
100.412710
21
257.716460
0
LINE
8
Camada 1
10
100.412710
20
257.716460
11
100.413000
21
256.129000
0
LINE
8
Camada 1
10
100.413000
20
256.129000
11
100.413000
21
254.542000
0
LINE
8
Camada 1
10
100.413000
20
254.542000
11
102.463520
21
254.464730
0
LINE
8
Camada 1
10
102.463520
20
254.464730
11
104.514040
21
254.387450
0
LINE
8
Camada 1
10
104.514040
20
254.387450
11
104.514000
21
253.340000
0
LINE
8
Camada 1
10
104.514000
20
253.340000
11
104.514000
21
252.293000
0
LINE
8
Camada 1
10
104.514000
20
252.293000
11
101.471000
21
252.293000
0
LINE
8
Camada 1
10
101.471000
20
252.293000
11
98.428600
21
252.293000
0
LINE
8
Camada 1
10
98.428600
20
252.293000
11
98.428550
21
258.774480
0
LINE
8
Camada 1
10
112.054550
20
252.525260
11
110.993209
21
252.888199
0
LINE
8
Camada 1
10
110.993209
20
252.888199
11
110.055577
21
253.385753
0
LINE
8
Camada 1
10
110.055577
20
253.385753
11
109.247031
21
254.010786
0
LINE
8
Camada 1
10
109.247031
20
254.010786
11
108.572946
21
254.756160
0
LINE
8
Camada 1
10
108.572946
20
254.756160
11
108.038700
21
255.614741
0
LINE
8
Camada 1
10
108.038700
20
255.614741
11
107.649667
21
256.579390
0
LINE
8
Camada 1
10
107.649667
20
256.579390
11
107.411225
21
257.642972
0
LINE
8
Camada 1
10
107.411225
20
257.642972
11
107.328750
21
258.798350
0
LINE
8
Camada 1
10
107.328750
20
258.798350
11
107.440857
21
260.194281
0
LINE
8
Camada 1
10
107.440857
20
260.194281
11
107.774549
21
261.450537
0
LINE
8
Camada 1
10
107.774549
20
261.450537
11
108.315756
21
262.552747
0
LINE
8
Camada 1
10
108.315756
20
262.552747
11
109.050406
21
263.486541
0
LINE
8
Camada 1
10
109.050406
20
263.486541
11
109.964431
21
264.237548
0
LINE
8
Camada 1
10
109.964431
20
264.237548
11
111.043760
21
264.791395
0
LINE
8
Camada 1
10
111.043760
20
264.791395
11
112.274323
21
265.133713
0
LINE
8
Camada 1
10
112.274323
20
265.133713
11
113.642050
21
265.250130
0
LINE
8
Camada 1
10
113.642050
20
265.250130
11
115.579900
21
265.026531
0
LINE
8
Camada 1
10
115.579900
20
265.026531
11
115.833595
21
264.571994
0
LINE
8
Camada 1
10
115.833595
20
264.571994
11
115.858110
21
263.897042
0
LINE
8
Camada 1
10
115.858110
20
263.897042
11
115.689005
21
263.311632
0
LINE
8
Camada 1
10
115.689005
20
263.311632
11
115.361840
21
263.125721
0
LINE
8
Camada 1
10
115.361840
20
263.125721
11
113.603800
21
263.244548
0
LINE
8
Camada 1
10
113.603800
20
263.244548
11
112.317815
21
263.094923
0
LINE
8
Camada 1
10
112.317815
20
263.094923
11
111.257250
21
262.493872
0
LINE
8
Camada 1
10
111.257250
20
262.493872
11
110.430277
21
261.707798
0
LINE
8
Camada 1
10
110.430277
20
261.707798
11
109.839797
21
260.814682
0
LINE
8
Camada 1
10
109.839797
20
260.814682
11
109.485792
21
259.849307
0
LINE
8
Camada 1
10
109.485792
20
259.849307
11
109.368243
21
258.846453
0
LINE
8
Camada 1
10
109.368243
20
258.846453
11
109.487132
21
257.840902
0
LINE
8
Camada 1
10
109.487132
20
257.840902
11
109.842442
21
256.867433
0
LINE
8
Camada 1
10
109.842442
20
256.867433
11
110.434154
21
255.960830
0
LINE
8
Camada 1
10
110.434154
20
255.960830
11
111.262250
21
255.155872
0
LINE
8
Camada 1
10
111.262250
20
255.155872
11
111.741265
21
254.838088
0
LINE
8
Camada 1
10
111.741265
20
254.838088
11
112.272854
21
254.653283
0
LINE
8
Camada 1
10
112.272854
20
254.653283
11
114.100740
21
254.553876
0
LINE
8
Camada 1
10
114.100740
20
254.553876
11
116.155930
21
254.566606
0
LINE
8
Camada 1
10
116.155930
20
254.566606
11
116.156000
21
253.710000
0
LINE
8
Camada 1
10
116.156000
20
253.710000
11
116.088803
21
253.063205
0
LINE
8
Camada 1
10
116.088803
20
253.063205
11
115.927240
21
252.711603
0
LINE
8
Camada 1
10
115.927240
20
252.711603
11
114.127180
21
252.440832
0
LINE
8
Camada 1
10
114.127180
20
252.440832
11
112.054960
21
252.525664
0
LINE
8
Camada 1
10
112.054960
20
252.525664
11
112.054550
21
252.525260
0
LINE
8
Camada 1
10
119.066010
20
258.774480
11
119.066000
21
265.257000
0
LINE
8
Camada 1
10
119.066000
20
265.257000
11
120.115000
21
265.257000
0
LINE
8
Camada 1
10
120.115000
20
265.257000
11
121.164000
21
265.257000
0
LINE
8
Camada 1
10
121.164000
20
265.257000
11
121.239400
21
262.545020
0
LINE
8
Camada 1
10
121.239400
20
262.545020
11
121.314800
21
259.833040
0
LINE
8
Camada 1
10
121.314800
20
259.833040
11
123.564000
21
259.833000
0
LINE
8
Camada 1
10
123.564000
20
259.833000
11
125.813000
21
259.833000
0
LINE
8
Camada 1
10
125.813000
20
259.833000
11
125.888400
21
262.544980
0
LINE
8
Camada 1
10
125.888400
20
262.544980
11
125.963800
21
265.256960
0
LINE
8
Camada 1
10
125.963800
20
265.256960
11
126.881000
21
265.257000
0
LINE
8
Camada 1
10
126.881000
20
265.257000
11
127.797000
21
265.257000
0
LINE
8
Camada 1
10
127.797000
20
265.257000
11
127.797000
21
258.775000
0
LINE
8
Camada 1
10
127.797000
20
258.775000
11
127.797000
21
252.293000
0
LINE
8
Camada 1
10
127.797000
20
252.293000
11
126.881000
21
252.293000
0
LINE
8
Camada 1
10
126.881000
20
252.293000
11
125.964000
21
252.293000
0
LINE
8
Camada 1
10
125.964000
20
252.293000
11
125.888600
21
255.004980
0
LINE
8
Camada 1
10
125.888600
20
255.004980
11
125.813200
21
257.716960
0
LINE
8
Camada 1
10
125.813200
20
257.716960
11
123.564000
21
257.717000
0
LINE
8
Camada 1
10
123.564000
20
257.717000
11
121.315000
21
257.717000
0
LINE
8
Camada 1
10
121.315000
20
257.717000
11
121.239600
21
255.005020
0
LINE
8
Camada 1
10
121.239600
20
255.005020
11
121.164200
21
252.293040
0
LINE
8
Camada 1
10
121.164200
20
252.293040
11
120.115000
21
252.293000
0
LINE
8
Camada 1
10
120.115000
20
252.293000
11
119.066000
21
252.293000
0
LINE
8
Camada 1
10
119.066000
20
252.293000
11
119.066010
21
258.774480
 0 
ENDSEC
 0 
EOF